SplineFontDB: 3.2
FontName: Backto1982
FullName: Back to 1982
FamilyName: Back to 1982
Weight: Book
Copyright: (c) Jakob Fischer at www.pizzadude.dk - DO NOT DISTRIBUTE WITHOUT AUTHOR'S PERMISSION!
Version: 2
ItalicAngle: 0
UnderlinePosition: -143
UnderlineWidth: 20
Ascent: 800
Descent: 200
InvalidEm: 0
sfntRevision: 0x00010000
LayerCount: 2
Layer: 0 1 "Warstwa t+AUIA-a" 1
Layer: 1 1 "Plan pierwszy" 0
XUID: [1021 623 454765966 1684]
StyleMap: 0x0040
FSType: 0
OS2Version: 1
OS2_WeightWidthSlopeOnly: 0
OS2_UseTypoMetrics: 0
CreationTime: 1044737309
ModificationTime: 1682552006
PfmFamily: 81
TTFWeight: 400
TTFWidth: 5
LineGap: 0
VLineGap: 0
Panose: 0 0 4 0 0 0 0 0 0 0
OS2TypoAscent: 806
OS2TypoAOffset: 0
OS2TypoDescent: -192
OS2TypoDOffset: 0
OS2TypoLinegap: 0
OS2WinAscent: 1098
OS2WinAOffset: 0
OS2WinDescent: 527
OS2WinDOffset: 0
HheadAscent: 806
HheadAOffset: 0
HheadDescent: -192
HheadDOffset: 0
OS2SubXSize: 700
OS2SubYSize: 650
OS2SubXOff: 0
OS2SubYOff: 143
OS2SupXSize: 700
OS2SupYSize: 650
OS2SupXOff: 0
OS2SupYOff: 453
OS2StrikeYSize: 50
OS2StrikeYPos: 259
OS2Vendor: 'MACR'
OS2CodePages: 00000001.00000000
OS2UnicodeRanges: 00000001.00000000.00000040.00000000
DEI: 91125
TtTable: prep
NPUSHB
 21
 13
 13
 12
 12
 11
 11
 10
 10
 9
 9
 8
 8
 7
 7
 6
 6
 1
 1
 0
 0
 1
SCANTYPE
PUSHW_1
 511
SCANCTRL
RCVT
ROUND[Grey]
WCVTP
RCVT
ROUND[Grey]
WCVTP
RCVT
ROUND[Grey]
WCVTP
RCVT
ROUND[Grey]
WCVTP
RCVT
ROUND[Grey]
WCVTP
RCVT
ROUND[Grey]
WCVTP
RCVT
ROUND[Grey]
WCVTP
RCVT
ROUND[Grey]
WCVTP
RCVT
ROUND[Grey]
WCVTP
RCVT
ROUND[Grey]
WCVTP
PUSHB_4
 3
 2
 70
 0
CALL
PUSHB_4
 5
 4
 70
 0
CALL
PUSHB_2
 2
 2
RCVT
ROUND[Grey]
WCVTP
PUSHB_2
 4
 4
RCVT
ROUND[Grey]
WCVTP
EndTTInstrs
TtTable: fpgm
NPUSHB
 1
 0
FDEF
SROUND
RCVT
DUP
PUSHB_1
 3
CINDEX
RCVT
SWAP
SUB
ROUND[Grey]
RTG
SWAP
ROUND[Grey]
ADD
WCVTP
ENDF
EndTTInstrs
ShortTable: cvt  18
  -271
  839
  142
  318
  141
  284
  427
  370
  320
  491
  427
  490
  370
  320
  23138
  23138
  2
  4
EndShort
ShortTable: maxp 16
  1
  0
  103

StartChar: .notdef
Encoding: 65536 -1 0
Width: 450
VWidth: 880
GlyphClass: 1
Flags: W
LayerCount: 2
Fore
SplineSet
100.5 80.599609375 m 1,0,-1
 100.5 725.400390625 l 1,1,-1
 400.5 725.400390625 l 1,2,-1
 400.5 80.599609375 l 1,3,-1
 100.5 80.599609375 l 1,0,-1
150.099609375 131 m 1,4,-1
 350.099609375 131 l 1,5,-1
 350.099609375 675.799804688 l 1,6,-1
 150.099609375 675.799804688 l 1,7,-1
 150.099609375 131 l 1,4,-1
EndSplineSet
Validated: 524289
EndChar

StartChar: exclam
Encoding: 33 33 4
Width: 186
VWidth: 636
GlyphClass: 1
Flags: W
LayerCount: 2
Fore
SplineSet
45.400390625 38.400390625 m 5,0,-1
 45.400390625 106.080078125 l 5,1,-1
 113.080078125 106.080078125 l 5,2,-1
 113.080078125 38.400390625 l 5,3,-1
 45.400390625 38.400390625 l 5,0,-1
45.400390625 175.200195312 m 5,4,-1
 45.400390625 516.958984375 l 5,5,-1
 113.080078125 516.958984375 l 5,6,-1
 113.080078125 175.200195312 l 5,7,-1
 45.400390625 175.200195312 l 5,4,-1
151.48046875 136.799804688 m 5,8,-1
 151.48046875 507.359375 l 5,9,-1
 127.48046875 507.359375 l 5,10,-1
 127.48046875 531.359375 l 5,11,-1
 31 531.359375 l 5,12,-1
 31 160.799804688 l 5,13,-1
 55 160.799804688 l 5,14,-1
 55 136.799804688 l 5,15,-1
 151.48046875 136.799804688 l 5,8,-1
151.48046875 0 m 5,16,-1
 151.48046875 96.4794921875 l 5,17,-1
 127.48046875 96.4794921875 l 5,18,-1
 127.48046875 120.479492188 l 5,19,-1
 31 120.479492188 l 5,20,-1
 31 24 l 5,21,-1
 55 24 l 5,22,-1
 55 0 l 5,23,-1
 151.48046875 0 l 5,16,-1
EndSplineSet
EndChar

StartChar: quotedbl
Encoding: 34 34 5
Width: 347
VWidth: 811
GlyphClass: 1
Flags: W
LayerCount: 2
Fore
SplineSet
62.6201171875 516.639648438 m 5,0,-1
 62.6201171875 652.959960938 l 5,1,-1
 130.299804688 652.959960938 l 5,2,-1
 130.299804688 516.639648438 l 5,3,-1
 62.6201171875 516.639648438 l 5,0,-1
199.899414062 516.639648438 m 5,4,-1
 199.899414062 652.959960938 l 5,5,-1
 267.579101562 652.959960938 l 5,6,-1
 267.579101562 516.639648438 l 5,7,-1
 199.899414062 516.639648438 l 5,4,-1
305.979492188 478.239257812 m 5,8,-1
 305.979492188 643.360351562 l 5,9,-1
 281.979492188 643.360351562 l 5,10,-1
 281.979492188 667.360351562 l 5,11,-1
 185.5 667.360351562 l 5,12,-1
 185.5 502.239257812 l 5,13,-1
 209.5 502.239257812 l 5,14,-1
 209.5 478.239257812 l 5,15,-1
 305.979492188 478.239257812 l 5,8,-1
168.69921875 478.239257812 m 5,16,-1
 168.69921875 643.360351562 l 5,17,-1
 144.69921875 643.360351562 l 5,18,-1
 144.69921875 667.360351562 l 5,19,-1
 48.2197265625 667.360351562 l 5,20,-1
 48.2197265625 502.239257812 l 5,21,-1
 72.2197265625 502.239257812 l 5,22,-1
 72.2197265625 478.239257812 l 5,23,-1
 168.69921875 478.239257812 l 5,16,-1
EndSplineSet
EndChar

StartChar: numbersign
Encoding: 35 35 6
Width: 500
VWidth: 627
GlyphClass: 1
Flags: W
LayerCount: 2
Fore
SplineSet
284.6796875 262.860351562 m 1,0,-1
 217 262.860351562 l 1,1,-1
 217 195.66015625 l 1,2,-1
 284.6796875 195.66015625 l 1,3,-1
 284.6796875 262.860351562 l 1,0,-1
352.83984375 127.020507812 m 1,4,-1
 352.83984375 58.8603515625 l 1,5,-1
 285.639648438 58.8603515625 l 1,6,-1
 285.639648438 127.020507812 l 1,7,-1
 216.0390625 127.020507812 l 1,8,-1
 216.0390625 58.8603515625 l 1,9,-1
 148.359375 58.8603515625 l 1,10,-1
 148.359375 127.020507812 l 1,11,-1
 79.7197265625 127.020507812 l 1,12,-1
 79.7197265625 194.700195312 l 1,13,-1
 148.359375 194.700195312 l 1,14,-1
 148.359375 264.299804688 l 1,15,-1
 79.7197265625 264.299804688 l 1,16,-1
 79.7197265625 331.5 l 1,17,-1
 148.359375 331.5 l 1,18,-1
 148.359375 400.139648438 l 1,19,-1
 216.0390625 400.139648438 l 1,20,-1
 216.0390625 331.5 l 1,21,-1
 285.639648438 331.5 l 1,22,-1
 285.639648438 400.139648438 l 1,23,-1
 352.83984375 400.139648438 l 1,24,-1
 352.83984375 331.5 l 1,25,-1
 421.479492188 331.5 l 1,26,-1
 421.479492188 264.299804688 l 1,27,-1
 352.83984375 264.299804688 l 1,28,-1
 352.83984375 194.700195312 l 1,29,-1
 421.479492188 194.700195312 l 1,30,-1
 421.479492188 127.020507812 l 1,31,-1
 352.83984375 127.020507812 l 1,4,-1
459.87890625 88.6201171875 m 1,32,-1
 459.87890625 185.099609375 l 1,33,-1
 435.87890625 185.099609375 l 1,34,-1
 435.87890625 209.099609375 l 1,35,-1
 391.239257812 209.099609375 l 1,36,-1
 391.239257812 225.900390625 l 1,37,-1
 459.87890625 225.900390625 l 1,38,-1
 459.87890625 321.900390625 l 1,39,-1
 435.87890625 321.900390625 l 1,40,-1
 435.87890625 345.900390625 l 1,41,-1
 391.239257812 345.900390625 l 1,42,-1
 391.239257812 390.540039062 l 1,43,-1
 367.239257812 390.540039062 l 1,44,-1
 367.239257812 414.540039062 l 1,45,-1
 271.239257812 414.540039062 l 1,46,-1
 271.239257812 345.900390625 l 1,47,-1
 254.439453125 345.900390625 l 1,48,-1
 254.439453125 390.540039062 l 1,49,-1
 230.439453125 390.540039062 l 1,50,-1
 230.439453125 414.540039062 l 1,51,-1
 133.959960938 414.540039062 l 1,52,-1
 133.959960938 345.900390625 l 1,53,-1
 65.3203125 345.900390625 l 1,54,-1
 65.3203125 249.900390625 l 1,55,-1
 89.3203125 249.900390625 l 1,56,-1
 89.3203125 225.900390625 l 1,57,-1
 133.959960938 225.900390625 l 1,58,-1
 133.959960938 209.099609375 l 1,59,-1
 65.3203125 209.099609375 l 1,60,-1
 65.3203125 112.620117188 l 1,61,-1
 89.3203125 112.620117188 l 1,62,-1
 89.3203125 88.6201171875 l 1,63,-1
 133.959960938 88.6201171875 l 1,64,-1
 133.959960938 44.4599609375 l 1,65,-1
 157.959960938 44.4599609375 l 1,66,-1
 157.959960938 20.4599609375 l 1,67,-1
 254.439453125 20.4599609375 l 1,68,-1
 254.439453125 88.6201171875 l 1,69,-1
 271.239257812 88.6201171875 l 1,70,-1
 271.239257812 44.4599609375 l 1,71,-1
 295.239257812 44.4599609375 l 1,72,-1
 295.239257812 20.4599609375 l 1,73,-1
 391.239257812 20.4599609375 l 1,74,-1
 391.239257812 88.6201171875 l 1,75,-1
 459.87890625 88.6201171875 l 1,32,-1
255.399414062 224.459960938 m 1,76,-1
 270.279296875 224.459960938 l 1,77,-1
 270.279296875 210.060546875 l 1,78,-1
 255.399414062 210.060546875 l 1,79,-1
 255.399414062 224.459960938 l 1,76,-1
EndSplineSet
EndChar

StartChar: dollar
Encoding: 36 36 7
Width: 500
VWidth: 636
GlyphClass: 1
Flags: W
LayerCount: 2
Fore
SplineSet
352.83984375 176.020507812 m 1,0,-1
 352.83984375 107.860351562 l 1,1,-1
 284.19921875 107.860351562 l 1,2,-1
 284.19921875 39.220703125 l 1,3,-1
 217 39.220703125 l 1,4,-1
 217 107.860351562 l 1,5,-1
 147.399414062 107.860351562 l 1,6,-1
 147.399414062 175.060546875 l 1,7,-1
 353.799804688 175.060546875 l 1,8,-1
 353.799804688 244.66015625 l 1,9,-1
 147.399414062 244.66015625 l 1,10,-1
 147.399414062 311.379882812 l 1,11,-1
 79.7197265625 313.299804688 l 1,12,-1
 79.7197265625 380.5 l 1,13,-1
 147.399414062 380.5 l 1,14,-1
 147.399414062 449.139648438 l 1,15,-1
 217 449.139648438 l 1,16,-1
 217 517.779296875 l 1,17,-1
 284.6796875 517.779296875 l 1,18,-1
 284.6796875 449.139648438 l 1,19,-1
 352.83984375 449.139648438 l 1,20,-1
 352.83984375 381.459960938 l 1,21,-1
 149.799804688 381.459960938 l 1,22,-1
 149.799804688 312.8203125 l 1,23,-1
 352.83984375 312.8203125 l 1,24,-1
 352.83984375 243.700195312 l 1,25,-1
 421.479492188 243.700195312 l 1,26,-1
 421.479492188 176.020507812 l 1,27,-1
 352.83984375 176.020507812 l 1,0,-1
459.87890625 137.620117188 m 1,28,-1
 459.87890625 234.099609375 l 1,29,-1
 435.87890625 234.099609375 l 1,30,-1
 435.87890625 258.099609375 l 1,31,-1
 391.239257812 258.099609375 l 1,32,-1
 391.239257812 303.220703125 l 1,33,-1
 367.239257812 303.220703125 l 1,34,-1
 367.239257812 327.220703125 l 1,35,-1
 188.19921875 327.220703125 l 1,36,-1
 188.19921875 343.060546875 l 1,37,-1
 391.239257812 343.060546875 l 1,38,-1
 391.239257812 439.540039062 l 1,39,-1
 367.239257812 439.540039062 l 1,40,-1
 367.239257812 463.540039062 l 1,41,-1
 323.079101562 463.540039062 l 1,42,-1
 323.079101562 508.1796875 l 1,43,-1
 299.079101562 508.1796875 l 1,44,-1
 299.079101562 532.1796875 l 1,45,-1
 202.599609375 532.1796875 l 1,46,-1
 202.599609375 463.540039062 l 1,47,-1
 133 463.540039062 l 1,48,-1
 133 394.900390625 l 1,49,-1
 65.3203125 394.900390625 l 1,50,-1
 65.3203125 299.379882812 l 1,51,-1
 89.3203125 298.419921875 l 1,52,-1
 89.3203125 275.379882812 l 1,53,-1
 133 273.939453125 l 1,54,-1
 133 230.259765625 l 1,55,-1
 157 230.259765625 l 1,56,-1
 157 206.259765625 l 1,57,-1
 339.399414062 206.259765625 l 1,58,-1
 339.399414062 189.459960938 l 1,59,-1
 133 189.459960938 l 1,60,-1
 133 93.4599609375 l 1,61,-1
 157 93.4599609375 l 1,62,-1
 157 69.4599609375 l 1,63,-1
 202.599609375 69.4599609375 l 1,64,-1
 202.599609375 24.8203125 l 1,65,-1
 226.599609375 24.8203125 l 1,66,-1
 226.599609375 0.8203125 l 1,67,-1
 322.599609375 0.8203125 l 1,68,-1
 322.599609375 69.4599609375 l 1,69,-1
 391.239257812 69.4599609375 l 1,70,-1
 391.239257812 137.620117188 l 1,71,-1
 459.87890625 137.620117188 l 1,28,-1
EndSplineSet
EndChar

StartChar: percent
Encoding: 37 37 8
Width: 427
VWidth: 650
GlyphClass: 1
Flags: W
LayerCount: 2
Fore
SplineSet
277.060546875 98.400390625 m 1,0,-1
 277.060546875 166.080078125 l 1,1,-1
 344.260742188 166.080078125 l 1,2,-1
 344.260742188 98.400390625 l 1,3,-1
 277.060546875 98.400390625 l 1,0,-1
71.1396484375 303.83984375 m 1,4,-1
 71.1396484375 371.520507812 l 1,5,-1
 138.8203125 371.520507812 l 1,6,-1
 138.8203125 303.83984375 l 1,7,-1
 71.1396484375 303.83984375 l 1,4,-1
275.620117188 303.83984375 m 1,8,-1
 275.620117188 235.6796875 l 1,9,-1
 207.459960938 235.6796875 l 1,10,-1
 207.459960938 167.040039062 l 1,11,-1
 138.8203125 167.040039062 l 1,12,-1
 138.8203125 30.240234375 l 1,13,-1
 71.1396484375 30.240234375 l 1,14,-1
 71.1396484375 166.080078125 l 1,15,-1
 139.780273438 166.080078125 l 1,16,-1
 139.780273438 234.720703125 l 1,17,-1
 208.420898438 234.720703125 l 1,18,-1
 208.420898438 302.879882812 l 1,19,-1
 277.060546875 302.879882812 l 1,20,-1
 277.060546875 440.16015625 l 1,21,-1
 344.260742188 440.16015625 l 1,22,-1
 344.260742188 303.83984375 l 1,23,-1
 275.620117188 303.83984375 l 1,8,-1
382.66015625 265.440429688 m 1,24,-1
 382.66015625 430.560546875 l 1,25,-1
 358.66015625 430.560546875 l 1,26,-1
 358.66015625 454.560546875 l 1,27,-1
 262.66015625 454.560546875 l 1,28,-1
 262.66015625 317.280273438 l 1,29,-1
 194.020507812 317.280273438 l 1,30,-1
 194.020507812 249.120117188 l 1,31,-1
 125.379882812 249.120117188 l 1,32,-1
 125.379882812 180.479492188 l 1,33,-1
 56.740234375 180.479492188 l 1,34,-1
 56.740234375 15.83984375 l 1,35,-1
 80.740234375 15.83984375 l 1,36,-1
 80.740234375 -8.16015625 l 1,37,-1
 177.220703125 -8.16015625 l 1,38,-1
 177.220703125 128.639648438 l 1,39,-1
 245.860351562 128.639648438 l 1,40,-1
 245.860351562 197.280273438 l 1,41,-1
 314.020507812 197.280273438 l 1,42,-1
 314.020507812 265.440429688 l 1,43,-1
 382.66015625 265.440429688 l 1,24,-1
177.220703125 265.440429688 m 1,44,-1
 177.220703125 361.920898438 l 1,45,-1
 153.220703125 361.920898438 l 1,46,-1
 153.220703125 385.920898438 l 1,47,-1
 56.740234375 385.920898438 l 1,48,-1
 56.740234375 289.440429688 l 1,49,-1
 80.740234375 289.440429688 l 1,50,-1
 80.740234375 265.440429688 l 1,51,-1
 177.220703125 265.440429688 l 1,44,-1
382.66015625 60 m 1,52,-1
 382.66015625 156.479492188 l 1,53,-1
 358.66015625 156.479492188 l 1,54,-1
 358.66015625 180.479492188 l 1,55,-1
 262.66015625 180.479492188 l 1,56,-1
 262.66015625 84 l 1,57,-1
 286.66015625 84 l 1,58,-1
 286.66015625 60 l 1,59,-1
 382.66015625 60 l 1,52,-1
EndSplineSet
EndChar

StartChar: ampersand
Encoding: 38 38 9
Width: 347
VWidth: 636
GlyphClass: 1
Flags: W
LayerCount: 2
Fore
SplineSet
131.739257812 381.259765625 m 1,0,-1
 131.739257812 313.579101562 l 1,1,-1
 198.939453125 311.66015625 l 1,2,-1
 198.939453125 244.459960938 l 1,3,-1
 131.739257812 244.459960938 l 1,4,-1
 131.739257812 174.860351562 l 1,5,-1
 267.579101562 174.860351562 l 1,6,-1
 267.579101562 107.66015625 l 1,7,-1
 198.939453125 107.66015625 l 1,8,-1
 198.939453125 39.0205078125 l 1,9,-1
 129.33984375 39.0205078125 l 1,10,-1
 129.33984375 107.66015625 l 1,11,-1
 62.6201171875 107.66015625 l 1,12,-1
 62.6201171875 243.5 l 1,13,-1
 129.33984375 243.5 l 1,14,-1
 129.33984375 311.1796875 l 1,15,-1
 62.6201171875 313.099609375 l 1,16,-1
 62.6201171875 448.939453125 l 1,17,-1
 129.33984375 448.939453125 l 1,18,-1
 129.33984375 517.579101562 l 1,19,-1
 198.939453125 517.579101562 l 1,20,-1
 198.939453125 448.939453125 l 1,21,-1
 267.579101562 448.939453125 l 1,22,-1
 267.579101562 381.259765625 l 1,23,-1
 131.739257812 381.259765625 l 1,0,-1
305.979492188 342.860351562 m 1,24,-1
 305.979492188 439.33984375 l 1,25,-1
 281.979492188 439.33984375 l 1,26,-1
 281.979492188 463.33984375 l 1,27,-1
 237.33984375 463.33984375 l 1,28,-1
 237.33984375 507.979492188 l 1,29,-1
 213.33984375 507.979492188 l 1,30,-1
 213.33984375 531.979492188 l 1,31,-1
 114.939453125 531.979492188 l 1,32,-1
 114.939453125 463.33984375 l 1,33,-1
 48.2197265625 463.33984375 l 1,34,-1
 48.2197265625 299.1796875 l 1,35,-1
 72.2197265625 298.219726562 l 1,36,-1
 72.2197265625 275.1796875 l 1,37,-1
 114.939453125 273.739257812 l 1,38,-1
 114.939453125 257.899414062 l 1,39,-1
 48.2197265625 257.899414062 l 1,40,-1
 48.2197265625 93.259765625 l 1,41,-1
 72.2197265625 93.259765625 l 1,42,-1
 72.2197265625 69.259765625 l 1,43,-1
 114.939453125 69.259765625 l 1,44,-1
 114.939453125 24.6201171875 l 1,45,-1
 138.939453125 24.6201171875 l 1,46,-1
 138.939453125 0.6201171875 l 1,47,-1
 237.33984375 0.6201171875 l 1,48,-1
 237.33984375 69.259765625 l 1,49,-1
 305.979492188 69.259765625 l 1,50,-1
 305.979492188 165.259765625 l 1,51,-1
 281.979492188 165.259765625 l 1,52,-1
 281.979492188 189.259765625 l 1,53,-1
 170.139648438 189.259765625 l 1,54,-1
 170.139648438 206.059570312 l 1,55,-1
 237.33984375 206.059570312 l 1,56,-1
 237.33984375 301.579101562 l 1,57,-1
 213.33984375 302.059570312 l 1,58,-1
 213.33984375 325.579101562 l 1,59,-1
 170.139648438 326.540039062 l 1,60,-1
 170.139648438 342.860351562 l 1,61,-1
 305.979492188 342.860351562 l 1,24,-1
EndSplineSet
EndChar

StartChar: quotesingle
Encoding: 39 39 10
Width: 194
VWidth: 811
GlyphClass: 1
Flags: W
LayerCount: 2
Fore
SplineSet
45.4599609375 516.639648438 m 1,0,-1
 45.4599609375 652.959960938 l 1,1,-1
 113.139648438 652.959960938 l 1,2,-1
 113.139648438 516.639648438 l 1,3,-1
 45.4599609375 516.639648438 l 1,0,-1
151.540039062 478.239257812 m 1,4,-1
 151.540039062 643.360351562 l 1,5,-1
 127.540039062 643.360351562 l 1,6,-1
 127.540039062 667.360351562 l 1,7,-1
 31.0595703125 667.360351562 l 1,8,-1
 31.0595703125 502.239257812 l 1,9,-1
 55.0595703125 502.239257812 l 1,10,-1
 55.0595703125 478.239257812 l 1,11,-1
 151.540039062 478.239257812 l 1,4,-1
EndSplineSet
EndChar

StartChar: parenleft
Encoding: 40 40 11
Width: 347
VWidth: 636
GlyphClass: 1
Flags: W
LayerCount: 2
Fore
SplineSet
199.899414062 39.220703125 m 1,0,-1
 199.899414062 107.860351562 l 1,1,-1
 131.259765625 107.860351562 l 1,2,-1
 131.259765625 176.020507812 l 1,3,-1
 62.6201171875 176.020507812 l 1,4,-1
 62.6201171875 380.5 l 1,5,-1
 131.259765625 380.5 l 1,6,-1
 131.259765625 449.139648438 l 1,7,-1
 197.01953125 449.139648438 l 1,8,-1
 197.01953125 517.779296875 l 1,9,-1
 267.579101562 517.779296875 l 1,10,-1
 267.579101562 450.099609375 l 1,11,-1
 199.419921875 450.099609375 l 1,12,-1
 199.419921875 381.459960938 l 1,13,-1
 130.299804688 381.459960938 l 1,14,-1
 130.299804688 175.060546875 l 1,15,-1
 199.419921875 175.060546875 l 1,16,-1
 199.419921875 106.900390625 l 1,17,-1
 267.579101562 106.900390625 l 1,18,-1
 267.579101562 39.220703125 l 1,19,-1
 199.899414062 39.220703125 l 1,0,-1
305.979492188 0.8203125 m 1,20,-1
 305.979492188 97.2998046875 l 1,21,-1
 281.979492188 97.2998046875 l 1,22,-1
 281.979492188 121.299804688 l 1,23,-1
 237.8203125 121.299804688 l 1,24,-1
 237.8203125 165.459960938 l 1,25,-1
 213.8203125 165.459960938 l 1,26,-1
 213.8203125 189.459960938 l 1,27,-1
 168.69921875 189.459960938 l 1,28,-1
 168.69921875 343.060546875 l 1,29,-1
 237.8203125 343.060546875 l 1,30,-1
 237.8203125 411.700195312 l 1,31,-1
 305.979492188 411.700195312 l 1,32,-1
 305.979492188 508.1796875 l 1,33,-1
 281.979492188 508.1796875 l 1,34,-1
 281.979492188 532.1796875 l 1,35,-1
 182.620117188 532.1796875 l 1,36,-1
 182.620117188 463.540039062 l 1,37,-1
 116.859375 463.540039062 l 1,38,-1
 116.859375 394.900390625 l 1,39,-1
 48.2197265625 394.900390625 l 1,40,-1
 48.2197265625 161.620117188 l 1,41,-1
 72.2197265625 161.620117188 l 1,42,-1
 72.2197265625 137.620117188 l 1,43,-1
 116.859375 137.620117188 l 1,44,-1
 116.859375 93.4599609375 l 1,45,-1
 140.859375 93.4599609375 l 1,46,-1
 140.859375 69.4599609375 l 1,47,-1
 185.5 69.4599609375 l 1,48,-1
 185.5 24.8203125 l 1,49,-1
 209.5 24.8203125 l 1,50,-1
 209.5 0.8203125 l 1,51,-1
 305.979492188 0.8203125 l 1,20,-1
EndSplineSet
EndChar

StartChar: parenright
Encoding: 41 41 12
Width: 347
VWidth: 636
GlyphClass: 1
Flags: W
LayerCount: 2
Fore
SplineSet
198.939453125 175.620117188 m 1,0,-1
 198.939453125 107.459960938 l 1,1,-1
 131.259765625 107.459960938 l 1,2,-1
 131.259765625 38.8203125 l 1,3,-1
 62.6201171875 38.8203125 l 1,4,-1
 62.6201171875 106.5 l 1,5,-1
 131.259765625 106.5 l 1,6,-1
 131.259765625 174.66015625 l 1,7,-1
 199.899414062 174.66015625 l 1,8,-1
 199.899414062 381.059570312 l 1,9,-1
 128.859375 381.059570312 l 1,10,-1
 128.859375 449.219726562 l 1,11,-1
 62.6201171875 449.219726562 l 1,12,-1
 62.6201171875 517.37890625 l 1,13,-1
 131.259765625 517.37890625 l 1,14,-1
 131.259765625 450.66015625 l 1,15,-1
 198.939453125 448.739257812 l 1,16,-1
 198.939453125 380.099609375 l 1,17,-1
 267.579101562 380.099609375 l 1,18,-1
 267.579101562 175.620117188 l 1,19,-1
 198.939453125 175.620117188 l 1,0,-1
305.979492188 137.219726562 m 1,20,-1
 305.979492188 370.5 l 1,21,-1
 281.979492188 370.5 l 1,22,-1
 281.979492188 394.5 l 1,23,-1
 237.33984375 394.5 l 1,24,-1
 237.33984375 438.66015625 l 1,25,-1
 213.33984375 439.139648438 l 1,26,-1
 213.33984375 462.66015625 l 1,27,-1
 169.66015625 463.620117188 l 1,28,-1
 169.66015625 507.779296875 l 1,29,-1
 145.66015625 507.779296875 l 1,30,-1
 145.66015625 531.779296875 l 1,31,-1
 48.2197265625 531.779296875 l 1,32,-1
 48.2197265625 434.8203125 l 1,33,-1
 72.2197265625 434.8203125 l 1,34,-1
 72.2197265625 410.8203125 l 1,35,-1
 114.459960938 410.8203125 l 1,36,-1
 114.459960938 366.66015625 l 1,37,-1
 138.459960938 366.66015625 l 1,38,-1
 138.459960938 342.66015625 l 1,39,-1
 185.5 342.66015625 l 1,40,-1
 185.5 189.059570312 l 1,41,-1
 116.859375 189.059570312 l 1,42,-1
 116.859375 120.899414062 l 1,43,-1
 48.2197265625 120.899414062 l 1,44,-1
 48.2197265625 24.419921875 l 1,45,-1
 72.2197265625 24.419921875 l 1,46,-1
 72.2197265625 0.419921875 l 1,47,-1
 169.66015625 0.419921875 l 1,48,-1
 169.66015625 69.0595703125 l 1,49,-1
 237.33984375 69.0595703125 l 1,50,-1
 237.33984375 137.219726562 l 1,51,-1
 305.979492188 137.219726562 l 1,20,-1
EndSplineSet
EndChar

StartChar: asterisk
Encoding: 42 42 13
Width: 500
VWidth: 627
GlyphClass: 1
Flags: W
LayerCount: 2
Fore
SplineSet
353.799804688 58.66015625 m 1,0,-1
 353.799804688 126.8203125 l 1,1,-1
 284.19921875 126.8203125 l 1,2,-1
 284.19921875 58.66015625 l 1,3,-1
 217 58.66015625 l 1,4,-1
 217 125.860351562 l 1,5,-1
 148.359375 125.860351562 l 1,6,-1
 148.359375 58.66015625 l 1,7,-1
 79.7197265625 58.66015625 l 1,8,-1
 79.7197265625 125.860351562 l 1,9,-1
 148.359375 125.860351562 l 1,10,-1
 148.359375 195.459960938 l 1,11,-1
 79.7197265625 195.459960938 l 1,12,-1
 79.7197265625 263.139648438 l 1,13,-1
 148.359375 263.139648438 l 1,14,-1
 148.359375 332.259765625 l 1,15,-1
 79.7197265625 332.259765625 l 1,16,-1
 79.7197265625 399.939453125 l 1,17,-1
 148.359375 399.939453125 l 1,18,-1
 148.359375 332.259765625 l 1,19,-1
 217 332.259765625 l 1,20,-1
 217 399.939453125 l 1,21,-1
 284.6796875 399.939453125 l 1,22,-1
 284.6796875 332.259765625 l 1,23,-1
 352.359375 332.259765625 l 1,24,-1
 352.359375 399.939453125 l 1,25,-1
 421.479492188 399.939453125 l 1,26,-1
 421.479492188 332.259765625 l 1,27,-1
 352.83984375 332.259765625 l 1,28,-1
 352.83984375 262.66015625 l 1,29,-1
 421.479492188 262.66015625 l 1,30,-1
 421.479492188 195.459960938 l 1,31,-1
 354.759765625 195.459960938 l 1,32,-1
 354.759765625 127.299804688 l 1,33,-1
 421.479492188 125.860351562 l 1,34,-1
 421.479492188 58.66015625 l 1,35,-1
 353.799804688 58.66015625 l 1,0,-1
459.87890625 20.259765625 m 1,36,-1
 459.87890625 115.779296875 l 1,37,-1
 435.87890625 116.259765625 l 1,38,-1
 435.87890625 139.779296875 l 1,39,-1
 393.16015625 140.739257812 l 1,40,-1
 393.16015625 157.059570312 l 1,41,-1
 459.87890625 157.059570312 l 1,42,-1
 459.87890625 253.059570312 l 1,43,-1
 435.87890625 253.059570312 l 1,44,-1
 435.87890625 277.059570312 l 1,45,-1
 391.239257812 277.059570312 l 1,46,-1
 391.239257812 293.860351562 l 1,47,-1
 459.87890625 293.860351562 l 1,48,-1
 459.87890625 390.33984375 l 1,49,-1
 435.87890625 390.33984375 l 1,50,-1
 435.87890625 414.33984375 l 1,51,-1
 337.959960938 414.33984375 l 1,52,-1
 337.959960938 346.66015625 l 1,53,-1
 323.079101562 346.66015625 l 1,54,-1
 323.079101562 390.33984375 l 1,55,-1
 299.079101562 390.33984375 l 1,56,-1
 299.079101562 414.33984375 l 1,57,-1
 202.599609375 414.33984375 l 1,58,-1
 202.599609375 346.66015625 l 1,59,-1
 186.759765625 346.66015625 l 1,60,-1
 186.759765625 390.33984375 l 1,61,-1
 162.759765625 390.33984375 l 1,62,-1
 162.759765625 414.33984375 l 1,63,-1
 65.3203125 414.33984375 l 1,64,-1
 65.3203125 317.860351562 l 1,65,-1
 89.3203125 317.860351562 l 1,66,-1
 89.3203125 293.860351562 l 1,67,-1
 133.959960938 293.860351562 l 1,68,-1
 133.959960938 277.540039062 l 1,69,-1
 65.3203125 277.540039062 l 1,70,-1
 65.3203125 181.059570312 l 1,71,-1
 89.3203125 181.059570312 l 1,72,-1
 89.3203125 157.059570312 l 1,73,-1
 133.959960938 157.059570312 l 1,74,-1
 133.959960938 140.259765625 l 1,75,-1
 65.3203125 140.259765625 l 1,76,-1
 65.3203125 44.259765625 l 1,77,-1
 89.3203125 44.259765625 l 1,78,-1
 89.3203125 20.259765625 l 1,79,-1
 186.759765625 20.259765625 l 1,80,-1
 186.759765625 87.4599609375 l 1,81,-1
 202.599609375 87.4599609375 l 1,82,-1
 202.599609375 44.259765625 l 1,83,-1
 226.599609375 44.259765625 l 1,84,-1
 226.599609375 20.259765625 l 1,85,-1
 322.599609375 20.259765625 l 1,86,-1
 322.599609375 88.419921875 l 1,87,-1
 339.399414062 88.419921875 l 1,88,-1
 339.399414062 44.259765625 l 1,89,-1
 363.399414062 44.259765625 l 1,90,-1
 363.399414062 20.259765625 l 1,91,-1
 459.87890625 20.259765625 l 1,36,-1
EndSplineSet
EndChar

StartChar: plus
Encoding: 43 43 14
Width: 347
VWidth: 626
GlyphClass: 1
Flags: W
LayerCount: 2
Fore
SplineSet
198.939453125 194.400390625 m 1,0,-1
 198.939453125 125.759765625 l 1,1,-1
 131.259765625 125.759765625 l 1,2,-1
 131.259765625 194.400390625 l 1,3,-1
 62.6201171875 194.400390625 l 1,4,-1
 62.6201171875 262.080078125 l 1,5,-1
 131.259765625 262.080078125 l 1,6,-1
 131.259765625 330.240234375 l 1,7,-1
 198.939453125 330.240234375 l 1,8,-1
 198.939453125 261.599609375 l 1,9,-1
 267.579101562 261.599609375 l 1,10,-1
 267.579101562 194.400390625 l 1,11,-1
 198.939453125 194.400390625 l 1,0,-1
305.979492188 156 m 1,12,-1
 305.979492188 252 l 1,13,-1
 281.979492188 252 l 1,14,-1
 281.979492188 276 l 1,15,-1
 237.33984375 276 l 1,16,-1
 237.33984375 320.639648438 l 1,17,-1
 213.33984375 320.639648438 l 1,18,-1
 213.33984375 344.639648438 l 1,19,-1
 116.859375 344.639648438 l 1,20,-1
 116.859375 276.479492188 l 1,21,-1
 48.2197265625 276.479492188 l 1,22,-1
 48.2197265625 180 l 1,23,-1
 72.2197265625 180 l 1,24,-1
 72.2197265625 156 l 1,25,-1
 116.859375 156 l 1,26,-1
 116.859375 111.360351562 l 1,27,-1
 140.859375 111.360351562 l 1,28,-1
 140.859375 87.3603515625 l 1,29,-1
 237.33984375 87.3603515625 l 1,30,-1
 237.33984375 156 l 1,31,-1
 305.979492188 156 l 1,12,-1
EndSplineSet
EndChar

StartChar: comma
Encoding: 44 44 15
Width: 194
VWidth: 441
GlyphClass: 1
Flags: W
LayerCount: 2
Fore
SplineSet
45.4599609375 -130.8203125 m 1,0,-1
 45.4599609375 5.01953125 l 1,1,-1
 113.139648438 5.01953125 l 1,2,-1
 113.139648438 -130.8203125 l 1,3,-1
 45.4599609375 -130.8203125 l 1,0,-1
151.540039062 -169.220703125 m 1,4,-1
 151.540039062 -4.580078125 l 1,5,-1
 127.540039062 -4.580078125 l 1,6,-1
 127.540039062 19.419921875 l 1,7,-1
 31.0595703125 19.419921875 l 1,8,-1
 31.0595703125 -145.220703125 l 1,9,-1
 55.0595703125 -145.220703125 l 1,10,-1
 55.0595703125 -169.220703125 l 1,11,-1
 151.540039062 -169.220703125 l 1,4,-1
EndSplineSet
EndChar

StartChar: hyphen
Encoding: 45 45 16
AltUni2: 002010.ffffffff.0 002010.ffffffff.0
Width: 500
VWidth: 626
GlyphClass: 1
Flags: W
LayerCount: 2
Fore
SplineSet
79.7197265625 193.860351562 m 1,0,-1
 79.7197265625 261.540039062 l 1,1,-1
 421.479492188 261.540039062 l 1,2,-1
 421.479492188 193.860351562 l 1,3,-1
 79.7197265625 193.860351562 l 1,0,-1
459.87890625 155.459960938 m 1,4,-1
 459.87890625 251.940429688 l 1,5,-1
 435.87890625 251.940429688 l 1,6,-1
 435.87890625 275.940429688 l 1,7,-1
 65.3203125 275.940429688 l 1,8,-1
 65.3203125 179.459960938 l 1,9,-1
 89.3203125 179.459960938 l 1,10,-1
 89.3203125 155.459960938 l 1,11,-1
 459.87890625 155.459960938 l 1,4,-1
EndSplineSet
EndChar

StartChar: period
Encoding: 46 46 17
Width: 194
VWidth: 478
GlyphClass: 1
Flags: W
LayerCount: 2
Fore
SplineSet
45.4599609375 -23.1396484375 m 1,0,-1
 45.4599609375 44.5400390625 l 1,1,-1
 113.139648438 44.5400390625 l 1,2,-1
 113.139648438 -23.1396484375 l 1,3,-1
 45.4599609375 -23.1396484375 l 1,0,-1
151.540039062 -61.5400390625 m 1,4,-1
 151.540039062 34.9404296875 l 1,5,-1
 127.540039062 34.9404296875 l 1,6,-1
 127.540039062 58.9404296875 l 1,7,-1
 31.0595703125 58.9404296875 l 1,8,-1
 31.0595703125 -37.5400390625 l 1,9,-1
 55.0595703125 -37.5400390625 l 1,10,-1
 55.0595703125 -61.5400390625 l 1,11,-1
 151.540039062 -61.5400390625 l 1,4,-1
EndSplineSet
EndChar

StartChar: slash
Encoding: 47 47 18
Width: 347
VWidth: 605
GlyphClass: 1
Flags: W
LayerCount: 2
Fore
SplineSet
198.939453125 304.3203125 m 1,0,-1
 198.939453125 167.040039062 l 1,1,-1
 130.299804688 167.040039062 l 1,2,-1
 130.299804688 30.240234375 l 1,3,-1
 62.6201171875 30.240234375 l 1,4,-1
 62.6201171875 166.080078125 l 1,5,-1
 131.259765625 166.080078125 l 1,6,-1
 131.259765625 303.360351562 l 1,7,-1
 199.899414062 303.360351562 l 1,8,-1
 199.899414062 440.16015625 l 1,9,-1
 267.579101562 440.16015625 l 1,10,-1
 267.579101562 304.3203125 l 1,11,-1
 198.939453125 304.3203125 l 1,0,-1
305.979492188 265.920898438 m 1,12,-1
 305.979492188 430.560546875 l 1,13,-1
 281.979492188 430.560546875 l 1,14,-1
 281.979492188 454.560546875 l 1,15,-1
 185.5 454.560546875 l 1,16,-1
 185.5 317.760742188 l 1,17,-1
 116.859375 317.760742188 l 1,18,-1
 116.859375 180.479492188 l 1,19,-1
 48.2197265625 180.479492188 l 1,20,-1
 48.2197265625 15.83984375 l 1,21,-1
 72.2197265625 15.83984375 l 1,22,-1
 72.2197265625 -8.16015625 l 1,23,-1
 168.69921875 -8.16015625 l 1,24,-1
 168.69921875 128.639648438 l 1,25,-1
 237.33984375 128.639648438 l 1,26,-1
 237.33984375 265.920898438 l 1,27,-1
 305.979492188 265.920898438 l 1,12,-1
EndSplineSet
EndChar

StartChar: zero
Encoding: 48 48 19
Width: 502
VWidth: 636
GlyphClass: 1
Flags: W
LayerCount: 2
Fore
SplineSet
284.6796875 448.939453125 m 1,0,-1
 148.359375 448.939453125 l 1,1,-1
 148.359375 175.8203125 l 1,2,-1
 216.0390625 175.8203125 l 1,3,-1
 216.0390625 381.259765625 l 1,4,-1
 284.6796875 381.259765625 l 1,5,-1
 284.6796875 448.939453125 l 1,0,-1
352.83984375 380.299804688 m 1,6,-1
 285.639648438 380.299804688 l 1,7,-1
 285.639648438 174.860351562 l 1,8,-1
 217 174.860351562 l 1,9,-1
 217 107.66015625 l 1,10,-1
 352.83984375 107.66015625 l 1,11,-1
 352.83984375 380.299804688 l 1,6,-1
352.83984375 107.66015625 m 1,12,-1
 352.83984375 39.0205078125 l 1,13,-1
 148.359375 39.0205078125 l 1,14,-1
 148.359375 107.66015625 l 1,15,-1
 79.7197265625 107.66015625 l 1,16,-1
 79.7197265625 448.939453125 l 1,17,-1
 148.359375 448.939453125 l 1,18,-1
 148.359375 517.579101562 l 1,19,-1
 352.83984375 517.579101562 l 1,20,-1
 352.83984375 448.939453125 l 1,21,-1
 421.479492188 448.939453125 l 1,22,-1
 421.479492188 107.66015625 l 1,23,-1
 352.83984375 107.66015625 l 1,12,-1
459.87890625 69.259765625 m 1,24,-1
 459.87890625 439.33984375 l 1,25,-1
 435.87890625 439.33984375 l 1,26,-1
 435.87890625 463.33984375 l 1,27,-1
 391.239257812 463.33984375 l 1,28,-1
 391.239257812 507.979492188 l 1,29,-1
 367.239257812 507.979492188 l 1,30,-1
 367.239257812 531.979492188 l 1,31,-1
 133.959960938 531.979492188 l 1,32,-1
 133.959960938 463.33984375 l 1,33,-1
 65.3203125 463.33984375 l 1,34,-1
 65.3203125 93.259765625 l 1,35,-1
 89.3203125 93.259765625 l 1,36,-1
 89.3203125 69.259765625 l 1,37,-1
 133.959960938 69.259765625 l 1,38,-1
 133.959960938 24.6201171875 l 1,39,-1
 157.959960938 24.6201171875 l 1,40,-1
 157.959960938 0.6201171875 l 1,41,-1
 391.239257812 0.6201171875 l 1,42,-1
 391.239257812 69.259765625 l 1,43,-1
 459.87890625 69.259765625 l 1,24,-1
201.639648438 190.219726562 m 1,44,-1
 186.759765625 190.219726562 l 1,45,-1
 186.759765625 410.540039062 l 1,46,-1
 270.279296875 410.540039062 l 1,47,-1
 270.279296875 395.66015625 l 1,48,-1
 201.639648438 395.66015625 l 1,49,-1
 201.639648438 190.219726562 l 1,44,-1
324.0390625 136.459960938 m 1,50,-1
 324.0390625 341.899414062 l 1,51,-1
 338.439453125 341.899414062 l 1,52,-1
 338.439453125 122.059570312 l 1,53,-1
 255.399414062 122.059570312 l 1,54,-1
 255.399414062 136.459960938 l 1,55,-1
 324.0390625 136.459960938 l 1,50,-1
EndSplineSet
EndChar

StartChar: one
Encoding: 49 49 20
Width: 347
VWidth: 636
GlyphClass: 1
Flags: W
LayerCount: 2
Fore
SplineSet
62.6201171875 38.8203125 m 1,0,-1
 62.6201171875 106.5 l 1,1,-1
 131.259765625 106.5 l 1,2,-1
 131.259765625 381.059570312 l 1,3,-1
 62.6201171875 381.059570312 l 1,4,-1
 62.6201171875 448.739257812 l 1,5,-1
 131.259765625 448.739257812 l 1,6,-1
 131.259765625 517.37890625 l 1,7,-1
 198.939453125 517.37890625 l 1,8,-1
 198.939453125 106.5 l 1,9,-1
 267.579101562 106.5 l 1,10,-1
 267.579101562 38.8203125 l 1,11,-1
 62.6201171875 38.8203125 l 1,0,-1
305.979492188 0.419921875 m 1,12,-1
 305.979492188 96.8994140625 l 1,13,-1
 281.979492188 96.8994140625 l 1,14,-1
 281.979492188 120.899414062 l 1,15,-1
 237.33984375 120.899414062 l 1,16,-1
 237.33984375 507.779296875 l 1,17,-1
 213.33984375 507.779296875 l 1,18,-1
 213.33984375 531.779296875 l 1,19,-1
 116.859375 531.779296875 l 1,20,-1
 116.859375 463.139648438 l 1,21,-1
 48.2197265625 463.139648438 l 1,22,-1
 48.2197265625 366.66015625 l 1,23,-1
 72.2197265625 366.66015625 l 1,24,-1
 72.2197265625 342.66015625 l 1,25,-1
 116.859375 342.66015625 l 1,26,-1
 116.859375 120.899414062 l 1,27,-1
 48.2197265625 120.899414062 l 1,28,-1
 48.2197265625 24.419921875 l 1,29,-1
 72.2197265625 24.419921875 l 1,30,-1
 72.2197265625 0.419921875 l 1,31,-1
 305.979492188 0.419921875 l 1,12,-1
EndSplineSet
EndChar

StartChar: two
Encoding: 50 50 21
Width: 500
VWidth: 636
GlyphClass: 1
Flags: W
LayerCount: 2
Fore
SplineSet
352.83984375 312.899414062 m 1,0,-1
 352.83984375 244.259765625 l 1,1,-1
 147.399414062 244.259765625 l 1,2,-1
 147.399414062 106.5 l 1,3,-1
 421.479492188 106.5 l 1,4,-1
 421.479492188 38.8203125 l 1,5,-1
 79.7197265625 38.8203125 l 1,6,-1
 79.7197265625 243.299804688 l 1,7,-1
 148.359375 243.299804688 l 1,8,-1
 148.359375 311.939453125 l 1,9,-1
 353.799804688 311.939453125 l 1,10,-1
 353.799804688 449.69921875 l 1,11,-1
 147.399414062 449.69921875 l 1,12,-1
 147.399414062 381.059570312 l 1,13,-1
 79.7197265625 381.059570312 l 1,14,-1
 79.7197265625 448.739257812 l 1,15,-1
 148.359375 448.739257812 l 1,16,-1
 148.359375 517.37890625 l 1,17,-1
 352.83984375 517.37890625 l 1,18,-1
 352.83984375 448.739257812 l 1,19,-1
 421.479492188 448.739257812 l 1,20,-1
 421.479492188 312.899414062 l 1,21,-1
 352.83984375 312.899414062 l 1,0,-1
459.87890625 274.5 m 1,22,-1
 459.87890625 439.139648438 l 1,23,-1
 435.87890625 439.139648438 l 1,24,-1
 435.87890625 463.139648438 l 1,25,-1
 391.239257812 463.139648438 l 1,26,-1
 391.239257812 507.779296875 l 1,27,-1
 367.239257812 507.779296875 l 1,28,-1
 367.239257812 531.779296875 l 1,29,-1
 133.959960938 531.779296875 l 1,30,-1
 133.959960938 463.139648438 l 1,31,-1
 65.3203125 463.139648438 l 1,32,-1
 65.3203125 366.66015625 l 1,33,-1
 89.3203125 366.66015625 l 1,34,-1
 89.3203125 342.66015625 l 1,35,-1
 185.799804688 342.66015625 l 1,36,-1
 185.799804688 411.299804688 l 1,37,-1
 339.399414062 411.299804688 l 1,38,-1
 339.399414062 326.33984375 l 1,39,-1
 133.959960938 326.33984375 l 1,40,-1
 133.959960938 257.69921875 l 1,41,-1
 65.3203125 257.69921875 l 1,42,-1
 65.3203125 24.419921875 l 1,43,-1
 89.3203125 24.419921875 l 1,44,-1
 89.3203125 0.419921875 l 1,45,-1
 459.87890625 0.419921875 l 1,46,-1
 459.87890625 96.8994140625 l 1,47,-1
 435.87890625 96.8994140625 l 1,48,-1
 435.87890625 120.899414062 l 1,49,-1
 185.799804688 120.899414062 l 1,50,-1
 185.799804688 205.859375 l 1,51,-1
 391.239257812 205.859375 l 1,52,-1
 391.239257812 274.5 l 1,53,-1
 459.87890625 274.5 l 1,22,-1
EndSplineSet
EndChar

StartChar: three
Encoding: 51 51 22
Width: 500
VWidth: 636
GlyphClass: 1
Flags: W
LayerCount: 2
Fore
SplineSet
353.799804688 313.099609375 m 1,0,-1
 353.799804688 243.5 l 1,1,-1
 421.479492188 243.5 l 1,2,-1
 421.479492188 107.66015625 l 1,3,-1
 353.799804688 107.66015625 l 1,4,-1
 353.799804688 39.0205078125 l 1,5,-1
 146.439453125 39.0205078125 l 1,6,-1
 146.439453125 107.66015625 l 1,7,-1
 79.7197265625 107.66015625 l 1,8,-1
 79.7197265625 174.860351562 l 1,9,-1
 147.399414062 174.860351562 l 1,10,-1
 147.399414062 106.700195312 l 1,11,-1
 353.799804688 106.700195312 l 1,12,-1
 353.799804688 244.459960938 l 1,13,-1
 217 244.459960938 l 1,14,-1
 217 312.139648438 l 1,15,-1
 351.399414062 312.139648438 l 1,16,-1
 351.399414062 449.419921875 l 1,17,-1
 148.83984375 449.419921875 l 1,18,-1
 148.83984375 381.259765625 l 1,19,-1
 79.7197265625 381.259765625 l 1,20,-1
 79.7197265625 448.939453125 l 1,21,-1
 148.359375 448.939453125 l 1,22,-1
 148.359375 517.579101562 l 1,23,-1
 353.799804688 517.579101562 l 1,24,-1
 353.799804688 450.860351562 l 1,25,-1
 421.479492188 448.939453125 l 1,26,-1
 421.479492188 313.099609375 l 1,27,-1
 353.799804688 313.099609375 l 1,0,-1
459.87890625 274.700195312 m 1,28,-1
 459.87890625 438.860351562 l 1,29,-1
 435.87890625 439.33984375 l 1,30,-1
 435.87890625 462.860351562 l 1,31,-1
 392.19921875 463.8203125 l 1,32,-1
 392.19921875 507.979492188 l 1,33,-1
 368.19921875 507.979492188 l 1,34,-1
 368.19921875 531.979492188 l 1,35,-1
 133.959960938 531.979492188 l 1,36,-1
 133.959960938 463.33984375 l 1,37,-1
 65.3203125 463.33984375 l 1,38,-1
 65.3203125 366.860351562 l 1,39,-1
 89.3203125 366.860351562 l 1,40,-1
 89.3203125 342.860351562 l 1,41,-1
 187.239257812 342.860351562 l 1,42,-1
 187.239257812 411.020507812 l 1,43,-1
 337 411.020507812 l 1,44,-1
 337 326.540039062 l 1,45,-1
 202.599609375 326.540039062 l 1,46,-1
 202.599609375 230.059570312 l 1,47,-1
 226.599609375 230.059570312 l 1,48,-1
 226.599609375 206.059570312 l 1,49,-1
 339.399414062 206.059570312 l 1,50,-1
 339.399414062 121.099609375 l 1,51,-1
 185.799804688 121.099609375 l 1,52,-1
 185.799804688 165.259765625 l 1,53,-1
 161.799804688 165.259765625 l 1,54,-1
 161.799804688 189.259765625 l 1,55,-1
 65.3203125 189.259765625 l 1,56,-1
 65.3203125 93.259765625 l 1,57,-1
 89.3203125 93.259765625 l 1,58,-1
 89.3203125 69.259765625 l 1,59,-1
 132.0390625 69.259765625 l 1,60,-1
 132.0390625 24.6201171875 l 1,61,-1
 156.0390625 24.6201171875 l 1,62,-1
 156.0390625 0.6201171875 l 1,63,-1
 392.19921875 0.6201171875 l 1,64,-1
 392.19921875 69.259765625 l 1,65,-1
 459.87890625 69.259765625 l 1,66,-1
 459.87890625 233.899414062 l 1,67,-1
 435.87890625 233.899414062 l 1,68,-1
 435.87890625 257.899414062 l 1,69,-1
 392.19921875 257.899414062 l 1,70,-1
 392.19921875 274.700195312 l 1,71,-1
 459.87890625 274.700195312 l 1,28,-1
EndSplineSet
EndChar

StartChar: four
Encoding: 52 52 23
Width: 500
VWidth: 636
GlyphClass: 1
Flags: W
LayerCount: 2
Fore
SplineSet
352.83984375 244.060546875 m 1,0,-1
 352.83984375 38.62109375 l 1,1,-1
 285.639648438 38.62109375 l 1,2,-1
 285.639648438 244.060546875 l 1,3,-1
 79.7197265625 244.060546875 l 1,4,-1
 79.7197265625 517.1796875 l 1,5,-1
 147.399414062 517.1796875 l 1,6,-1
 147.399414062 311.740234375 l 1,7,-1
 285.639648438 311.740234375 l 1,8,-1
 285.639648438 517.1796875 l 1,9,-1
 352.83984375 517.1796875 l 1,10,-1
 352.83984375 311.260742188 l 1,11,-1
 421.479492188 311.260742188 l 1,12,-1
 421.479492188 244.060546875 l 1,13,-1
 352.83984375 244.060546875 l 1,0,-1
459.87890625 205.66015625 m 1,14,-1
 459.87890625 301.66015625 l 1,15,-1
 435.87890625 301.66015625 l 1,16,-1
 435.87890625 325.66015625 l 1,17,-1
 391.239257812 325.66015625 l 1,18,-1
 391.239257812 507.580078125 l 1,19,-1
 367.239257812 507.580078125 l 1,20,-1
 367.239257812 531.580078125 l 1,21,-1
 271.239257812 531.580078125 l 1,22,-1
 271.239257812 326.140625 l 1,23,-1
 185.799804688 326.140625 l 1,24,-1
 185.799804688 507.580078125 l 1,25,-1
 161.799804688 507.580078125 l 1,26,-1
 161.799804688 531.580078125 l 1,27,-1
 65.3203125 531.580078125 l 1,28,-1
 65.3203125 229.66015625 l 1,29,-1
 89.3203125 229.66015625 l 1,30,-1
 89.3203125 205.66015625 l 1,31,-1
 271.239257812 205.66015625 l 1,32,-1
 271.239257812 24.220703125 l 1,33,-1
 295.239257812 24.220703125 l 1,34,-1
 295.239257812 0.220703125 l 1,35,-1
 391.239257812 0.220703125 l 1,36,-1
 391.239257812 205.66015625 l 1,37,-1
 459.87890625 205.66015625 l 1,14,-1
EndSplineSet
EndChar

StartChar: five
Encoding: 53 53 24
Width: 500
VWidth: 636
GlyphClass: 1
Flags: W
LayerCount: 2
Fore
SplineSet
352.83984375 107.66015625 m 1,0,-1
 352.83984375 39.0205078125 l 1,1,-1
 146.439453125 39.0205078125 l 1,2,-1
 146.439453125 107.66015625 l 1,3,-1
 79.7197265625 107.66015625 l 1,4,-1
 79.7197265625 174.860351562 l 1,5,-1
 147.399414062 174.860351562 l 1,6,-1
 147.399414062 106.700195312 l 1,7,-1
 353.799804688 106.700195312 l 1,8,-1
 353.799804688 313.099609375 l 1,9,-1
 79.7197265625 313.099609375 l 1,10,-1
 79.7197265625 517.579101562 l 1,11,-1
 352.83984375 517.579101562 l 1,12,-1
 352.83984375 449.899414062 l 1,13,-1
 148.83984375 449.899414062 l 1,14,-1
 148.83984375 380.299804688 l 1,15,-1
 352.83984375 380.299804688 l 1,16,-1
 352.83984375 311.66015625 l 1,17,-1
 421.479492188 311.66015625 l 1,18,-1
 421.479492188 107.66015625 l 1,19,-1
 352.83984375 107.66015625 l 1,0,-1
459.87890625 69.259765625 m 1,20,-1
 459.87890625 302.059570312 l 1,21,-1
 435.87890625 302.059570312 l 1,22,-1
 435.87890625 326.059570312 l 1,23,-1
 391.239257812 326.059570312 l 1,24,-1
 391.239257812 370.700195312 l 1,25,-1
 367.239257812 370.700195312 l 1,26,-1
 367.239257812 394.700195312 l 1,27,-1
 187.239257812 394.700195312 l 1,28,-1
 187.239257812 411.5 l 1,29,-1
 391.239257812 411.5 l 1,30,-1
 391.239257812 507.979492188 l 1,31,-1
 367.239257812 507.979492188 l 1,32,-1
 367.239257812 531.979492188 l 1,33,-1
 65.3203125 531.979492188 l 1,34,-1
 65.3203125 298.700195312 l 1,35,-1
 89.3203125 298.700195312 l 1,36,-1
 89.3203125 274.700195312 l 1,37,-1
 339.399414062 274.700195312 l 1,38,-1
 339.399414062 121.099609375 l 1,39,-1
 185.799804688 121.099609375 l 1,40,-1
 185.799804688 165.259765625 l 1,41,-1
 161.799804688 165.259765625 l 1,42,-1
 161.799804688 189.259765625 l 1,43,-1
 65.3203125 189.259765625 l 1,44,-1
 65.3203125 93.259765625 l 1,45,-1
 89.3203125 93.259765625 l 1,46,-1
 89.3203125 69.259765625 l 1,47,-1
 132.0390625 69.259765625 l 1,48,-1
 132.0390625 24.6201171875 l 1,49,-1
 156.0390625 24.6201171875 l 1,50,-1
 156.0390625 0.6201171875 l 1,51,-1
 391.239257812 0.6201171875 l 1,52,-1
 391.239257812 69.259765625 l 1,53,-1
 459.87890625 69.259765625 l 1,20,-1
EndSplineSet
EndChar

StartChar: six
Encoding: 54 54 25
Width: 500
VWidth: 636
GlyphClass: 1
Flags: W
LayerCount: 2
Fore
SplineSet
352.83984375 311.459960938 m 1,0,-1
 148.359375 311.459960938 l 1,1,-1
 148.359375 107.459960938 l 1,2,-1
 352.83984375 107.459960938 l 1,3,-1
 352.83984375 311.459960938 l 1,0,-1
352.83984375 107.459960938 m 1,4,-1
 352.83984375 38.8203125 l 1,5,-1
 146.919921875 38.8203125 l 1,6,-1
 146.919921875 107.459960938 l 1,7,-1
 79.7197265625 107.459960938 l 1,8,-1
 79.7197265625 448.739257812 l 1,9,-1
 146.919921875 448.739257812 l 1,10,-1
 146.919921875 517.37890625 l 1,11,-1
 352.83984375 517.37890625 l 1,12,-1
 352.83984375 449.69921875 l 1,13,-1
 149.3203125 449.69921875 l 1,14,-1
 149.3203125 380.099609375 l 1,15,-1
 352.83984375 380.099609375 l 1,16,-1
 352.83984375 311.459960938 l 1,17,-1
 421.479492188 311.459960938 l 1,18,-1
 421.479492188 107.459960938 l 1,19,-1
 352.83984375 107.459960938 l 1,4,-1
459.87890625 69.0595703125 m 1,20,-1
 459.87890625 301.859375 l 1,21,-1
 435.87890625 301.859375 l 1,22,-1
 435.87890625 325.859375 l 1,23,-1
 391.239257812 325.859375 l 1,24,-1
 391.239257812 370.5 l 1,25,-1
 367.239257812 370.5 l 1,26,-1
 367.239257812 394.5 l 1,27,-1
 187.719726562 394.5 l 1,28,-1
 187.719726562 411.299804688 l 1,29,-1
 391.239257812 411.299804688 l 1,30,-1
 391.239257812 507.779296875 l 1,31,-1
 367.239257812 507.779296875 l 1,32,-1
 367.239257812 531.779296875 l 1,33,-1
 132.51953125 531.779296875 l 1,34,-1
 132.51953125 463.139648438 l 1,35,-1
 65.3203125 463.139648438 l 1,36,-1
 65.3203125 93.0595703125 l 1,37,-1
 89.3203125 93.0595703125 l 1,38,-1
 89.3203125 69.0595703125 l 1,39,-1
 132.51953125 69.0595703125 l 1,40,-1
 132.51953125 24.419921875 l 1,41,-1
 156.51953125 24.419921875 l 1,42,-1
 156.51953125 0.419921875 l 1,43,-1
 391.239257812 0.419921875 l 1,44,-1
 391.239257812 69.0595703125 l 1,45,-1
 459.87890625 69.0595703125 l 1,20,-1
186.759765625 273.059570312 m 1,46,-1
 338.439453125 273.059570312 l 1,47,-1
 338.439453125 121.859375 l 1,48,-1
 186.759765625 121.859375 l 1,49,-1
 186.759765625 273.059570312 l 1,46,-1
EndSplineSet
EndChar

StartChar: seven
Encoding: 55 55 26
Width: 500
VWidth: 636
GlyphClass: 1
Flags: W
LayerCount: 2
Fore
SplineSet
352.83984375 380.860351562 m 1,0,-1
 352.83984375 312.700195312 l 1,1,-1
 284.19921875 312.700195312 l 1,2,-1
 284.19921875 38.62109375 l 1,3,-1
 217 38.62109375 l 1,4,-1
 217 311.740234375 l 1,5,-1
 285.639648438 311.740234375 l 1,6,-1
 285.639648438 379.900390625 l 1,7,-1
 353.799804688 379.900390625 l 1,8,-1
 353.799804688 449.5 l 1,9,-1
 79.7197265625 449.5 l 1,10,-1
 79.7197265625 517.1796875 l 1,11,-1
 421.479492188 517.1796875 l 1,12,-1
 421.479492188 380.860351562 l 1,13,-1
 352.83984375 380.860351562 l 1,0,-1
459.87890625 342.4609375 m 1,14,-1
 459.87890625 507.580078125 l 1,15,-1
 435.87890625 507.580078125 l 1,16,-1
 435.87890625 531.580078125 l 1,17,-1
 65.3203125 531.580078125 l 1,18,-1
 65.3203125 435.100585938 l 1,19,-1
 89.3203125 435.100585938 l 1,20,-1
 89.3203125 411.100585938 l 1,21,-1
 339.399414062 411.100585938 l 1,22,-1
 339.399414062 394.30078125 l 1,23,-1
 271.239257812 394.30078125 l 1,24,-1
 271.239257812 326.140625 l 1,25,-1
 202.599609375 326.140625 l 1,26,-1
 202.599609375 24.220703125 l 1,27,-1
 226.599609375 24.220703125 l 1,28,-1
 226.599609375 0.220703125 l 1,29,-1
 322.599609375 0.220703125 l 1,30,-1
 322.599609375 274.30078125 l 1,31,-1
 391.239257812 274.30078125 l 1,32,-1
 391.239257812 342.4609375 l 1,33,-1
 459.87890625 342.4609375 l 1,14,-1
EndSplineSet
EndChar

StartChar: eight
Encoding: 56 56 27
Width: 500
VWidth: 636
GlyphClass: 1
Flags: W
LayerCount: 2
Fore
SplineSet
352.83984375 243.700195312 m 1,0,-1
 148.359375 243.700195312 l 1,1,-1
 148.359375 107.860351562 l 1,2,-1
 352.83984375 107.860351562 l 1,3,-1
 352.83984375 243.700195312 l 1,0,-1
352.83984375 449.139648438 m 1,4,-1
 148.359375 449.139648438 l 1,5,-1
 148.359375 313.299804688 l 1,6,-1
 352.83984375 313.299804688 l 1,7,-1
 352.83984375 449.139648438 l 1,4,-1
352.83984375 107.860351562 m 1,8,-1
 352.83984375 39.220703125 l 1,9,-1
 148.359375 39.220703125 l 1,10,-1
 148.359375 107.860351562 l 1,11,-1
 79.7197265625 107.860351562 l 1,12,-1
 79.7197265625 243.700195312 l 1,13,-1
 148.359375 243.700195312 l 1,14,-1
 148.359375 313.299804688 l 1,15,-1
 79.7197265625 313.299804688 l 1,16,-1
 79.7197265625 449.139648438 l 1,17,-1
 148.359375 449.139648438 l 1,18,-1
 148.359375 517.779296875 l 1,19,-1
 352.83984375 517.779296875 l 1,20,-1
 352.83984375 449.139648438 l 1,21,-1
 421.479492188 449.139648438 l 1,22,-1
 421.479492188 313.299804688 l 1,23,-1
 352.83984375 313.299804688 l 1,24,-1
 352.83984375 243.700195312 l 1,25,-1
 421.479492188 243.700195312 l 1,26,-1
 421.479492188 107.860351562 l 1,27,-1
 352.83984375 107.860351562 l 1,8,-1
459.87890625 69.4599609375 m 1,28,-1
 459.87890625 234.099609375 l 1,29,-1
 435.87890625 234.099609375 l 1,30,-1
 435.87890625 258.099609375 l 1,31,-1
 391.239257812 258.099609375 l 1,32,-1
 391.239257812 274.900390625 l 1,33,-1
 459.87890625 274.900390625 l 1,34,-1
 459.87890625 439.540039062 l 1,35,-1
 435.87890625 439.540039062 l 1,36,-1
 435.87890625 463.540039062 l 1,37,-1
 391.239257812 463.540039062 l 1,38,-1
 391.239257812 508.1796875 l 1,39,-1
 367.239257812 508.1796875 l 1,40,-1
 367.239257812 532.1796875 l 1,41,-1
 133.959960938 532.1796875 l 1,42,-1
 133.959960938 463.540039062 l 1,43,-1
 65.3203125 463.540039062 l 1,44,-1
 65.3203125 298.900390625 l 1,45,-1
 89.3203125 298.900390625 l 1,46,-1
 89.3203125 274.900390625 l 1,47,-1
 133.959960938 274.900390625 l 1,48,-1
 133.959960938 258.099609375 l 1,49,-1
 65.3203125 258.099609375 l 1,50,-1
 65.3203125 93.4599609375 l 1,51,-1
 89.3203125 93.4599609375 l 1,52,-1
 89.3203125 69.4599609375 l 1,53,-1
 133.959960938 69.4599609375 l 1,54,-1
 133.959960938 24.8203125 l 1,55,-1
 157.959960938 24.8203125 l 1,56,-1
 157.959960938 0.8203125 l 1,57,-1
 391.239257812 0.8203125 l 1,58,-1
 391.239257812 69.4599609375 l 1,59,-1
 459.87890625 69.4599609375 l 1,28,-1
186.759765625 205.299804688 m 1,60,-1
 338.439453125 205.299804688 l 1,61,-1
 338.439453125 122.259765625 l 1,62,-1
 186.759765625 122.259765625 l 1,63,-1
 186.759765625 205.299804688 l 1,60,-1
186.759765625 410.740234375 m 1,64,-1
 338.439453125 410.740234375 l 1,65,-1
 338.439453125 327.700195312 l 1,66,-1
 186.759765625 327.700195312 l 1,67,-1
 186.759765625 410.740234375 l 1,64,-1
EndSplineSet
EndChar

StartChar: nine
Encoding: 57 57 28
Width: 500
VWidth: 636
GlyphClass: 1
Flags: W
LayerCount: 2
Fore
SplineSet
352.83984375 448.939453125 m 1,0,-1
 148.359375 448.939453125 l 1,1,-1
 148.359375 244.459960938 l 1,2,-1
 352.83984375 244.459960938 l 1,3,-1
 352.83984375 448.939453125 l 1,0,-1
352.83984375 107.66015625 m 1,4,-1
 352.83984375 39.0205078125 l 1,5,-1
 148.359375 39.0205078125 l 1,6,-1
 148.359375 106.700195312 l 1,7,-1
 353.799804688 106.700195312 l 1,8,-1
 353.799804688 175.8203125 l 1,9,-1
 148.359375 175.8203125 l 1,10,-1
 148.359375 244.459960938 l 1,11,-1
 79.7197265625 244.459960938 l 1,12,-1
 79.7197265625 448.939453125 l 1,13,-1
 148.359375 448.939453125 l 1,14,-1
 148.359375 517.579101562 l 1,15,-1
 352.83984375 517.579101562 l 1,16,-1
 352.83984375 448.939453125 l 1,17,-1
 421.479492188 448.939453125 l 1,18,-1
 421.479492188 107.66015625 l 1,19,-1
 352.83984375 107.66015625 l 1,4,-1
459.87890625 69.259765625 m 1,20,-1
 459.87890625 439.33984375 l 1,21,-1
 435.87890625 439.33984375 l 1,22,-1
 435.87890625 463.33984375 l 1,23,-1
 391.239257812 463.33984375 l 1,24,-1
 391.239257812 507.979492188 l 1,25,-1
 367.239257812 507.979492188 l 1,26,-1
 367.239257812 531.979492188 l 1,27,-1
 133.959960938 531.979492188 l 1,28,-1
 133.959960938 463.33984375 l 1,29,-1
 65.3203125 463.33984375 l 1,30,-1
 65.3203125 230.059570312 l 1,31,-1
 89.3203125 230.059570312 l 1,32,-1
 89.3203125 206.059570312 l 1,33,-1
 133.959960938 206.059570312 l 1,34,-1
 133.959960938 161.419921875 l 1,35,-1
 157.959960938 161.419921875 l 1,36,-1
 157.959960938 137.419921875 l 1,37,-1
 339.399414062 137.419921875 l 1,38,-1
 339.399414062 121.099609375 l 1,39,-1
 133.959960938 121.099609375 l 1,40,-1
 133.959960938 24.6201171875 l 1,41,-1
 157.959960938 24.6201171875 l 1,42,-1
 157.959960938 0.6201171875 l 1,43,-1
 391.239257812 0.6201171875 l 1,44,-1
 391.239257812 69.259765625 l 1,45,-1
 459.87890625 69.259765625 l 1,20,-1
186.759765625 410.540039062 m 1,46,-1
 338.439453125 410.540039062 l 1,47,-1
 338.439453125 258.860351562 l 1,48,-1
 186.759765625 258.860351562 l 1,49,-1
 186.759765625 410.540039062 l 1,46,-1
EndSplineSet
EndChar

StartChar: colon
Encoding: 58 58 29
Width: 194
VWidth: 626
GlyphClass: 1
Flags: W
LayerCount: 2
Fore
SplineSet
45.4599609375 106.959960938 m 5,0,-1
 45.4599609375 174.639648438 l 5,1,-1
 113.139648438 174.639648438 l 5,2,-1
 113.139648438 106.959960938 l 5,3,-1
 45.4599609375 106.959960938 l 5,0,-1
45.4599609375 244.240234375 m 5,4,-1
 45.4599609375 311.440429688 l 5,5,-1
 113.139648438 311.440429688 l 5,6,-1
 113.139648438 244.240234375 l 5,7,-1
 45.4599609375 244.240234375 l 5,4,-1
151.540039062 68.560546875 m 5,8,-1
 151.540039062 165.040039062 l 5,9,-1
 127.540039062 165.040039062 l 5,10,-1
 127.540039062 189.040039062 l 5,11,-1
 31.0595703125 189.040039062 l 5,12,-1
 31.0595703125 92.560546875 l 5,13,-1
 55.0595703125 92.560546875 l 5,14,-1
 55.0595703125 68.560546875 l 5,15,-1
 151.540039062 68.560546875 l 5,8,-1
151.540039062 205.83984375 m 5,16,-1
 151.540039062 301.83984375 l 5,17,-1
 127.540039062 301.83984375 l 5,18,-1
 127.540039062 325.83984375 l 5,19,-1
 31.0595703125 325.83984375 l 5,20,-1
 31.0595703125 229.83984375 l 5,21,-1
 55.0595703125 229.83984375 l 5,22,-1
 55.0595703125 205.83984375 l 5,23,-1
 151.540039062 205.83984375 l 5,16,-1
EndSplineSet
EndChar

StartChar: semicolon
Encoding: 59 59 30
Width: 194
VWidth: 595
GlyphClass: 1
Flags: W
LayerCount: 2
Fore
SplineSet
45.400390625 38.400390625 m 1,0,-1
 45.400390625 174.241210938 l 1,1,-1
 113.080078125 174.241210938 l 1,2,-1
 113.080078125 38.400390625 l 1,3,-1
 45.400390625 38.400390625 l 1,0,-1
45.400390625 243.840820312 m 1,4,-1
 45.400390625 311.041015625 l 1,5,-1
 113.080078125 311.041015625 l 1,6,-1
 113.080078125 243.840820312 l 1,7,-1
 45.400390625 243.840820312 l 1,4,-1
151.48046875 0 m 1,8,-1
 151.48046875 164.640625 l 1,9,-1
 127.48046875 164.640625 l 1,10,-1
 127.48046875 188.640625 l 1,11,-1
 31 188.640625 l 1,12,-1
 31 24 l 1,13,-1
 55 24 l 1,14,-1
 55 0 l 1,15,-1
 151.48046875 0 l 1,8,-1
151.48046875 205.44140625 m 1,16,-1
 151.48046875 301.44140625 l 1,17,-1
 127.48046875 301.44140625 l 1,18,-1
 127.48046875 325.44140625 l 1,19,-1
 31 325.44140625 l 5,20,-1
 31 229.44140625 l 1,21,-1
 55 229.44140625 l 1,22,-1
 55 205.44140625 l 1,23,-1
 151.48046875 205.44140625 l 1,16,-1
EndSplineSet
EndChar

StartChar: less
Encoding: 60 60 31
Width: 419
VWidth: 636
GlyphClass: 1
Flags: W
LayerCount: 2
Fore
SplineSet
277.060546875 39.0205078125 m 1,0,-1
 277.060546875 107.66015625 l 1,1,-1
 208.420898438 107.66015625 l 1,2,-1
 208.420898438 175.8203125 l 1,3,-1
 139.780273438 175.8203125 l 1,4,-1
 139.780273438 244.459960938 l 1,5,-1
 71.1396484375 244.459960938 l 1,6,-1
 71.1396484375 312.139648438 l 1,7,-1
 139.780273438 312.139648438 l 1,8,-1
 139.780273438 380.299804688 l 1,9,-1
 205.540039062 380.299804688 l 1,10,-1
 205.540039062 448.939453125 l 1,11,-1
 274.1796875 448.939453125 l 1,12,-1
 274.1796875 517.579101562 l 1,13,-1
 344.260742188 517.579101562 l 1,14,-1
 344.260742188 449.899414062 l 1,15,-1
 276.580078125 449.899414062 l 1,16,-1
 276.580078125 381.259765625 l 1,17,-1
 207.940429688 381.259765625 l 1,18,-1
 207.940429688 313.099609375 l 1,19,-1
 138.8203125 313.099609375 l 1,20,-1
 138.8203125 243.5 l 1,21,-1
 207.940429688 243.5 l 1,22,-1
 207.940429688 174.860351562 l 1,23,-1
 276.580078125 174.860351562 l 1,24,-1
 276.580078125 106.700195312 l 1,25,-1
 344.260742188 106.700195312 l 1,26,-1
 344.260742188 39.0205078125 l 1,27,-1
 277.060546875 39.0205078125 l 1,0,-1
382.66015625 0.6201171875 m 1,28,-1
 382.66015625 97.099609375 l 1,29,-1
 358.66015625 97.099609375 l 1,30,-1
 358.66015625 121.099609375 l 1,31,-1
 314.979492188 121.099609375 l 1,32,-1
 314.979492188 165.259765625 l 1,33,-1
 290.979492188 165.259765625 l 1,34,-1
 290.979492188 189.259765625 l 1,35,-1
 246.33984375 189.259765625 l 1,36,-1
 246.33984375 233.899414062 l 1,37,-1
 222.33984375 233.899414062 l 1,38,-1
 222.33984375 257.899414062 l 1,39,-1
 177.220703125 257.899414062 l 1,40,-1
 177.220703125 274.700195312 l 1,41,-1
 246.33984375 274.700195312 l 1,42,-1
 246.33984375 342.860351562 l 1,43,-1
 314.979492188 342.860351562 l 1,44,-1
 314.979492188 411.5 l 1,45,-1
 382.66015625 411.5 l 1,46,-1
 382.66015625 507.979492188 l 1,47,-1
 358.66015625 507.979492188 l 1,48,-1
 358.66015625 531.979492188 l 1,49,-1
 259.780273438 531.979492188 l 1,50,-1
 259.780273438 463.33984375 l 1,51,-1
 191.139648438 463.33984375 l 1,52,-1
 191.139648438 394.700195312 l 1,53,-1
 125.379882812 394.700195312 l 1,54,-1
 125.379882812 326.540039062 l 1,55,-1
 56.740234375 326.540039062 l 1,56,-1
 56.740234375 230.059570312 l 1,57,-1
 80.740234375 230.059570312 l 1,58,-1
 80.740234375 206.059570312 l 1,59,-1
 125.379882812 206.059570312 l 1,60,-1
 125.379882812 161.419921875 l 1,61,-1
 149.379882812 161.419921875 l 1,62,-1
 149.379882812 137.419921875 l 1,63,-1
 194.020507812 137.419921875 l 1,64,-1
 194.020507812 93.259765625 l 1,65,-1
 218.020507812 93.259765625 l 1,66,-1
 218.020507812 69.259765625 l 1,67,-1
 262.66015625 69.259765625 l 1,68,-1
 262.66015625 24.6201171875 l 1,69,-1
 286.66015625 24.6201171875 l 1,70,-1
 286.66015625 0.6201171875 l 1,71,-1
 382.66015625 0.6201171875 l 1,28,-1
EndSplineSet
EndChar

StartChar: equal
Encoding: 61 61 32
Width: 419
VWidth: 625
GlyphClass: 1
Flags: W
LayerCount: 2
Fore
SplineSet
71.1396484375 124.959960938 m 1,0,-1
 71.1396484375 192.639648438 l 1,1,-1
 344.260742188 192.639648438 l 1,2,-1
 344.260742188 124.959960938 l 1,3,-1
 71.1396484375 124.959960938 l 1,0,-1
71.1396484375 262.240234375 m 1,4,-1
 71.1396484375 329.440429688 l 1,5,-1
 344.260742188 329.440429688 l 1,6,-1
 344.260742188 262.240234375 l 1,7,-1
 71.1396484375 262.240234375 l 1,4,-1
382.66015625 86.560546875 m 1,8,-1
 382.66015625 183.040039062 l 1,9,-1
 358.66015625 183.040039062 l 1,10,-1
 358.66015625 207.040039062 l 1,11,-1
 56.740234375 207.040039062 l 1,12,-1
 56.740234375 110.560546875 l 1,13,-1
 80.740234375 110.560546875 l 1,14,-1
 80.740234375 86.560546875 l 1,15,-1
 382.66015625 86.560546875 l 1,8,-1
382.66015625 223.83984375 m 1,16,-1
 382.66015625 319.83984375 l 1,17,-1
 358.66015625 319.83984375 l 1,18,-1
 358.66015625 343.83984375 l 1,19,-1
 56.740234375 343.83984375 l 1,20,-1
 56.740234375 247.83984375 l 1,21,-1
 80.740234375 247.83984375 l 1,22,-1
 80.740234375 223.83984375 l 1,23,-1
 382.66015625 223.83984375 l 1,16,-1
EndSplineSet
EndChar

StartChar: greater
Encoding: 62 62 33
Width: 419
VWidth: 636
GlyphClass: 1
Flags: W
LayerCount: 2
Fore
SplineSet
275.620117188 244.259765625 m 1,0,-1
 275.620117188 175.620117188 l 1,1,-1
 207.940429688 175.620117188 l 1,2,-1
 207.940429688 107.459960938 l 1,3,-1
 139.780273438 107.459960938 l 1,4,-1
 139.780273438 38.8203125 l 1,5,-1
 71.1396484375 38.8203125 l 1,6,-1
 71.1396484375 106.5 l 1,7,-1
 139.780273438 106.5 l 1,8,-1
 139.780273438 174.66015625 l 1,9,-1
 208.420898438 174.66015625 l 1,10,-1
 208.420898438 243.299804688 l 1,11,-1
 277.060546875 243.299804688 l 1,12,-1
 277.060546875 312.899414062 l 1,13,-1
 205.540039062 312.899414062 l 1,14,-1
 205.540039062 379.620117188 l 1,15,-1
 136.900390625 381.5390625 l 1,16,-1
 136.900390625 449.219726562 l 1,17,-1
 71.1396484375 449.219726562 l 1,18,-1
 71.1396484375 517.37890625 l 1,19,-1
 139.780273438 517.37890625 l 1,20,-1
 139.780273438 450.66015625 l 1,21,-1
 207.940429688 448.739257812 l 1,22,-1
 207.940429688 382.01953125 l 1,23,-1
 276.100585938 380.099609375 l 1,24,-1
 276.100585938 311.459960938 l 1,25,-1
 344.260742188 311.459960938 l 1,26,-1
 344.260742188 244.259765625 l 1,27,-1
 275.620117188 244.259765625 l 1,0,-1
382.66015625 205.859375 m 1,28,-1
 382.66015625 301.859375 l 1,29,-1
 358.66015625 301.859375 l 1,30,-1
 358.66015625 325.859375 l 1,31,-1
 314.5 325.859375 l 1,32,-1
 314.5 370.01953125 l 1,33,-1
 290.5 370.5 l 1,34,-1
 290.5 394.01953125 l 1,35,-1
 246.33984375 394.979492188 l 1,36,-1
 246.33984375 438.66015625 l 1,37,-1
 222.33984375 439.139648438 l 1,38,-1
 222.33984375 462.66015625 l 1,39,-1
 178.1796875 463.620117188 l 1,40,-1
 178.1796875 507.779296875 l 1,41,-1
 154.1796875 507.779296875 l 1,42,-1
 154.1796875 531.779296875 l 1,43,-1
 56.740234375 531.779296875 l 1,44,-1
 56.740234375 434.8203125 l 1,45,-1
 80.740234375 434.8203125 l 1,46,-1
 80.740234375 410.8203125 l 1,47,-1
 122.5 410.8203125 l 1,48,-1
 122.5 367.620117188 l 1,49,-1
 146.5 366.66015625 l 1,50,-1
 146.5 343.620117188 l 1,51,-1
 191.139648438 342.1796875 l 1,52,-1
 191.139648438 298.5 l 1,53,-1
 215.139648438 298.5 l 1,54,-1
 215.139648438 274.5 l 1,55,-1
 262.66015625 274.5 l 1,56,-1
 262.66015625 257.69921875 l 1,57,-1
 194.020507812 257.69921875 l 1,58,-1
 194.020507812 189.059570312 l 1,59,-1
 125.379882812 189.059570312 l 1,60,-1
 125.379882812 120.899414062 l 1,61,-1
 56.740234375 120.899414062 l 1,62,-1
 56.740234375 24.419921875 l 1,63,-1
 80.740234375 24.419921875 l 1,64,-1
 80.740234375 0.419921875 l 1,65,-1
 178.1796875 0.419921875 l 1,66,-1
 178.1796875 69.0595703125 l 1,67,-1
 246.33984375 69.0595703125 l 1,68,-1
 246.33984375 137.219726562 l 1,69,-1
 314.020507812 137.219726562 l 1,70,-1
 314.020507812 205.859375 l 1,71,-1
 382.66015625 205.859375 l 1,28,-1
EndSplineSet
EndChar

StartChar: question
Encoding: 63 63 34
Width: 500
VWidth: 636
GlyphClass: 1
Flags: W
LayerCount: 2
Fore
SplineSet
217 39.4208984375 m 1,0,-1
 217 107.100585938 l 1,1,-1
 284.6796875 107.100585938 l 1,2,-1
 284.6796875 39.4208984375 l 1,3,-1
 217 39.4208984375 l 1,0,-1
352.83984375 313.5 m 1,4,-1
 352.83984375 244.860351562 l 1,5,-1
 284.19921875 244.860351562 l 1,6,-1
 284.19921875 176.220703125 l 1,7,-1
 217 176.220703125 l 1,8,-1
 217 312.540039062 l 1,9,-1
 353.799804688 312.540039062 l 1,10,-1
 353.799804688 450.299804688 l 1,11,-1
 147.399414062 450.299804688 l 1,12,-1
 147.399414062 381.66015625 l 1,13,-1
 79.7197265625 381.66015625 l 1,14,-1
 79.7197265625 449.33984375 l 1,15,-1
 148.359375 449.33984375 l 1,16,-1
 148.359375 517.979492188 l 1,17,-1
 352.83984375 517.979492188 l 1,18,-1
 352.83984375 449.33984375 l 1,19,-1
 421.479492188 449.33984375 l 1,20,-1
 421.479492188 313.5 l 1,21,-1
 352.83984375 313.5 l 1,4,-1
459.87890625 275.100585938 m 1,22,-1
 459.87890625 439.740234375 l 1,23,-1
 435.87890625 439.740234375 l 1,24,-1
 435.87890625 463.740234375 l 1,25,-1
 391.239257812 463.740234375 l 1,26,-1
 391.239257812 508.379882812 l 1,27,-1
 367.239257812 508.379882812 l 1,28,-1
 367.239257812 532.379882812 l 1,29,-1
 133.959960938 532.379882812 l 1,30,-1
 133.959960938 463.740234375 l 1,31,-1
 65.3203125 463.740234375 l 1,32,-1
 65.3203125 367.260742188 l 1,33,-1
 89.3203125 367.260742188 l 1,34,-1
 89.3203125 343.260742188 l 1,35,-1
 185.799804688 343.260742188 l 1,36,-1
 185.799804688 411.900390625 l 1,37,-1
 339.399414062 411.900390625 l 1,38,-1
 339.399414062 326.940429688 l 1,39,-1
 202.599609375 326.940429688 l 1,40,-1
 202.599609375 161.8203125 l 1,41,-1
 226.599609375 161.8203125 l 1,42,-1
 226.599609375 137.8203125 l 1,43,-1
 322.599609375 137.8203125 l 1,44,-1
 322.599609375 206.459960938 l 1,45,-1
 391.239257812 206.459960938 l 1,46,-1
 391.239257812 275.100585938 l 1,47,-1
 459.87890625 275.100585938 l 1,22,-1
323.079101562 1.0205078125 m 1,48,-1
 323.079101562 97.5 l 1,49,-1
 299.079101562 97.5 l 1,50,-1
 299.079101562 121.5 l 1,51,-1
 202.599609375 121.5 l 1,52,-1
 202.599609375 25.0205078125 l 1,53,-1
 226.599609375 25.0205078125 l 1,54,-1
 226.599609375 1.0205078125 l 1,55,-1
 323.079101562 1.0205078125 l 1,48,-1
EndSplineSet
EndChar

StartChar: A
Encoding: 65 65 35
Width: 492
VWidth: 866
GlyphClass: 1
Flags: W
LayerCount: 2
Fore
SplineSet
352.600585938 448.319335938 m 5,0,-1
 148.120117188 448.319335938 l 5,1,-1
 148.120117188 312.479492188 l 5,2,-1
 352.600585938 312.479492188 l 5,3,-1
 352.600585938 448.319335938 l 5,0,-1
352.120117188 38.400390625 m 5,4,-1
 352.120117188 243.83984375 l 5,5,-1
 148.600585938 243.83984375 l 5,6,-1
 148.600585938 38.400390625 l 5,7,-1
 79.48046875 38.400390625 l 5,8,-1
 79.48046875 448.319335938 l 5,9,-1
 146.200195312 448.319335938 l 5,10,-1
 146.200195312 516.958984375 l 5,11,-1
 354.520507812 516.958984375 l 5,12,-1
 354.520507812 448.319335938 l 5,13,-1
 421.240234375 448.319335938 l 5,14,-1
 421.240234375 38.400390625 l 5,15,-1
 352.120117188 38.400390625 l 5,4,-1
459.639648438 0 m 5,16,-1
 459.639648438 438.719726562 l 5,17,-1
 435.639648438 438.719726562 l 5,18,-1
 435.639648438 462.719726562 l 5,19,-1
 392.920898438 462.719726562 l 5,20,-1
 392.920898438 507.359375 l 5,21,-1
 368.920898438 507.359375 l 5,22,-1
 368.920898438 531.359375 l 5,23,-1
 131.799804688 531.359375 l 5,24,-1
 131.799804688 462.719726562 l 5,25,-1
 65.0810546875 462.719726562 l 5,26,-1
 65.0810546875 24 l 5,27,-1
 89.0810546875 24 l 5,28,-1
 89.0810546875 0 l 5,29,-1
 187 0 l 5,30,-1
 187 205.439453125 l 5,31,-1
 337.720703125 205.439453125 l 5,32,-1
 337.720703125 24 l 5,33,-1
 361.720703125 24 l 5,34,-1
 361.720703125 0 l 5,35,-1
 459.639648438 0 l 5,16,-1
186.520507812 409.919921875 m 5,36,-1
 338.200195312 409.919921875 l 5,37,-1
 338.200195312 326.879882812 l 5,38,-1
 186.520507812 326.879882812 l 5,39,-1
 186.520507812 409.919921875 l 5,36,-1
EndSplineSet
EndChar

StartChar: B
Encoding: 66 66 36
Width: 492
VWidth: 636
GlyphClass: 1
Flags: W
LayerCount: 2
Fore
SplineSet
352.51953125 242.879882812 m 5,0,-1
 148.0390625 242.879882812 l 5,1,-1
 148.0390625 107.040039062 l 5,2,-1
 352.51953125 107.040039062 l 5,3,-1
 352.51953125 242.879882812 l 5,0,-1
352.51953125 448.319335938 m 5,4,-1
 148.0390625 448.319335938 l 5,5,-1
 148.0390625 312.479492188 l 5,6,-1
 352.51953125 312.479492188 l 5,7,-1
 352.51953125 448.319335938 l 5,4,-1
352.51953125 107.040039062 m 5,8,-1
 352.51953125 38.400390625 l 5,9,-1
 79.3994140625 38.400390625 l 5,10,-1
 79.3994140625 516.958984375 l 5,11,-1
 352.51953125 516.958984375 l 5,12,-1
 352.51953125 448.319335938 l 5,13,-1
 421.159179688 448.319335938 l 5,14,-1
 421.159179688 312.479492188 l 5,15,-1
 352.51953125 312.479492188 l 5,16,-1
 352.51953125 242.879882812 l 5,17,-1
 421.159179688 242.879882812 l 5,18,-1
 421.159179688 107.040039062 l 5,19,-1
 352.51953125 107.040039062 l 5,8,-1
459.55859375 68.6396484375 m 5,20,-1
 459.55859375 233.279296875 l 5,21,-1
 435.55859375 233.279296875 l 5,22,-1
 435.55859375 257.279296875 l 5,23,-1
 390.918945312 257.279296875 l 5,24,-1
 390.918945312 274.080078125 l 5,25,-1
 459.55859375 274.080078125 l 5,26,-1
 459.55859375 438.719726562 l 5,27,-1
 435.55859375 438.719726562 l 5,28,-1
 435.55859375 462.719726562 l 5,29,-1
 390.918945312 462.719726562 l 5,30,-1
 390.918945312 507.359375 l 5,31,-1
 366.918945312 507.359375 l 5,32,-1
 366.918945312 531.359375 l 5,33,-1
 65 531.359375 l 5,34,-1
 65 24 l 5,35,-1
 89 24 l 5,36,-1
 89 0 l 5,37,-1
 390.918945312 0 l 5,38,-1
 390.918945312 68.6396484375 l 5,39,-1
 459.55859375 68.6396484375 l 5,20,-1
186.439453125 204.479492188 m 5,40,-1
 338.119140625 204.479492188 l 5,41,-1
 338.119140625 121.439453125 l 5,42,-1
 186.439453125 121.439453125 l 5,43,-1
 186.439453125 204.479492188 l 5,40,-1
186.439453125 409.919921875 m 5,44,-1
 338.119140625 409.919921875 l 5,45,-1
 338.119140625 326.879882812 l 5,46,-1
 186.439453125 326.879882812 l 5,47,-1
 186.439453125 409.919921875 l 5,44,-1
EndSplineSet
EndChar

StartChar: C
Encoding: 67 67 37
Width: 492
VWidth: 636
GlyphClass: 1
Flags: W
LayerCount: 2
Fore
SplineSet
353.83984375 380.639648438 m 5,0,-1
 353.83984375 449.279296875 l 5,1,-1
 147.439453125 449.279296875 l 5,2,-1
 147.439453125 106.080078125 l 5,3,-1
 352.399414062 106.080078125 l 5,4,-1
 352.399414062 174.240234375 l 5,5,-1
 421.51953125 174.240234375 l 5,6,-1
 421.51953125 107.040039062 l 5,7,-1
 352.879882812 107.040039062 l 5,8,-1
 352.879882812 38.400390625 l 5,9,-1
 148.399414062 38.400390625 l 5,10,-1
 148.399414062 107.040039062 l 5,11,-1
 79.759765625 107.040039062 l 5,12,-1
 79.759765625 448.319335938 l 5,13,-1
 148.399414062 448.319335938 l 5,14,-1
 148.399414062 516.958984375 l 5,15,-1
 354.799804688 516.958984375 l 5,16,-1
 354.799804688 448.319335938 l 5,17,-1
 421.51953125 448.319335938 l 5,18,-1
 421.51953125 380.639648438 l 5,19,-1
 353.83984375 380.639648438 l 5,0,-1
459.918945312 342.240234375 m 5,20,-1
 459.918945312 438.719726562 l 5,21,-1
 435.918945312 438.719726562 l 5,22,-1
 435.918945312 462.719726562 l 5,23,-1
 393.200195312 462.719726562 l 5,24,-1
 393.200195312 507.359375 l 5,25,-1
 369.200195312 507.359375 l 5,26,-1
 369.200195312 531.359375 l 5,27,-1
 134 531.359375 l 5,28,-1
 134 462.719726562 l 5,29,-1
 65.3603515625 462.719726562 l 5,30,-1
 65.5205078125 92.6396484375 l 5,31,-1
 89.3603515625 92.6396484375 l 5,32,-1
 89.3603515625 68.6396484375 l 5,33,-1
 134 68.6396484375 l 5,34,-1
 134 24 l 5,35,-1
 158 24 l 5,36,-1
 158 0 l 5,37,-1
 391.279296875 0 l 5,38,-1
 391.279296875 68.6396484375 l 5,39,-1
 459.918945312 68.6396484375 l 5,40,-1
 459.918945312 164.639648438 l 5,41,-1
 435.918945312 164.639648438 l 5,42,-1
 435.918945312 188.639648438 l 5,43,-1
 338 188.639648438 l 5,44,-1
 338 120.479492188 l 5,45,-1
 185.83984375 120.479492188 l 5,46,-1
 185.83984375 410.879882812 l 5,47,-1
 339.439453125 410.879882812 l 5,48,-1
 339.439453125 366.240234375 l 5,49,-1
 363.439453125 366.240234375 l 5,50,-1
 363.439453125 342.240234375 l 5,51,-1
 459.918945312 342.240234375 l 5,20,-1
EndSplineSet
EndChar

StartChar: D
Encoding: 68 68 38
Width: 492
VWidth: 636
GlyphClass: 1
Flags: W
LayerCount: 2
Fore
SplineSet
352.51953125 448.319335938 m 5,0,-1
 148.0390625 448.319335938 l 5,1,-1
 148.0390625 107.040039062 l 5,2,-1
 352.51953125 107.040039062 l 5,3,-1
 352.51953125 448.319335938 l 5,0,-1
352.51953125 107.040039062 m 5,4,-1
 352.51953125 38.400390625 l 5,5,-1
 79.3994140625 38.400390625 l 5,6,-1
 79.3994140625 516.958984375 l 5,7,-1
 352.51953125 516.958984375 l 5,8,-1
 352.51953125 448.319335938 l 5,9,-1
 421.159179688 448.319335938 l 5,10,-1
 421.159179688 107.040039062 l 5,11,-1
 352.51953125 107.040039062 l 5,4,-1
459.55859375 68.6396484375 m 5,12,-1
 459.55859375 438.719726562 l 5,13,-1
 435.55859375 438.719726562 l 5,14,-1
 435.55859375 462.719726562 l 5,15,-1
 390.918945312 462.719726562 l 5,16,-1
 390.918945312 507.359375 l 5,17,-1
 366.918945312 507.359375 l 5,18,-1
 366.918945312 531.359375 l 5,19,-1
 65 531.359375 l 5,20,-1
 65 24 l 5,21,-1
 89 24 l 5,22,-1
 89 0 l 5,23,-1
 390.918945312 0 l 5,24,-1
 390.918945312 68.6396484375 l 5,25,-1
 459.55859375 68.6396484375 l 5,12,-1
186.439453125 409.919921875 m 5,26,-1
 338.119140625 409.919921875 l 5,27,-1
 338.119140625 121.439453125 l 5,28,-1
 186.439453125 121.439453125 l 5,29,-1
 186.439453125 409.919921875 l 5,26,-1
EndSplineSet
EndChar

StartChar: E
Encoding: 69 69 39
Width: 492
VWidth: 636
GlyphClass: 1
Flags: W
LayerCount: 2
Fore
SplineSet
79.3994140625 38.400390625 m 5,0,-1
 79.3994140625 516.958984375 l 5,1,-1
 421.159179688 516.958984375 l 5,2,-1
 421.159179688 449.279296875 l 5,3,-1
 147.079101562 449.279296875 l 5,4,-1
 147.079101562 311.040039062 l 5,5,-1
 284.359375 311.040039062 l 5,6,-1
 284.359375 243.83984375 l 5,7,-1
 147.079101562 243.83984375 l 5,8,-1
 147.079101562 106.080078125 l 5,9,-1
 421.159179688 106.080078125 l 5,10,-1
 421.159179688 38.400390625 l 5,11,-1
 79.3994140625 38.400390625 l 5,0,-1
459.55859375 0 m 5,12,-1
 459.55859375 96.4794921875 l 5,13,-1
 435.55859375 96.4794921875 l 5,14,-1
 435.55859375 120.479492188 l 5,15,-1
 185.479492188 120.479492188 l 5,16,-1
 185.479492188 205.439453125 l 5,17,-1
 322.758789062 205.439453125 l 5,18,-1
 322.758789062 301.439453125 l 5,19,-1
 298.758789062 301.439453125 l 5,20,-1
 298.758789062 325.439453125 l 5,21,-1
 185.479492188 325.439453125 l 5,22,-1
 185.479492188 410.879882812 l 5,23,-1
 459.55859375 410.879882812 l 5,24,-1
 459.55859375 507.359375 l 5,25,-1
 435.55859375 507.359375 l 5,26,-1
 435.55859375 531.359375 l 5,27,-1
 65 531.359375 l 5,28,-1
 65 24 l 5,29,-1
 89 24 l 5,30,-1
 89 0 l 5,31,-1
 459.55859375 0 l 5,12,-1
EndSplineSet
EndChar

StartChar: F
Encoding: 70 70 40
Width: 492
VWidth: 636
GlyphClass: 1
Flags: W
LayerCount: 2
Fore
SplineSet
147.079101562 449.279296875 m 5,0,-1
 147.079101562 311.040039062 l 5,1,-1
 284.359375 311.040039062 l 5,2,-1
 284.359375 243.83984375 l 5,3,-1
 147.079101562 243.83984375 l 5,4,-1
 147.079101562 38.400390625 l 5,5,-1
 79.3994140625 38.400390625 l 5,6,-1
 79.3994140625 516.958984375 l 5,7,-1
 421.159179688 516.958984375 l 5,8,-1
 421.159179688 449.279296875 l 5,9,-1
 147.079101562 449.279296875 l 5,0,-1
459.55859375 410.879882812 m 5,10,-1
 459.55859375 507.359375 l 5,11,-1
 435.55859375 507.359375 l 5,12,-1
 435.55859375 531.359375 l 5,13,-1
 65 531.359375 l 5,14,-1
 65 24 l 5,15,-1
 89 24 l 5,16,-1
 89 0 l 5,17,-1
 185.479492188 0 l 5,18,-1
 185.479492188 205.439453125 l 5,19,-1
 322.758789062 205.439453125 l 5,20,-1
 322.758789062 301.439453125 l 5,21,-1
 298.758789062 301.439453125 l 5,22,-1
 298.758789062 325.439453125 l 5,23,-1
 185.479492188 325.439453125 l 5,24,-1
 185.479492188 410.879882812 l 5,25,-1
 459.55859375 410.879882812 l 5,10,-1
EndSplineSet
EndChar

StartChar: G
Encoding: 71 71 41
Width: 492
VWidth: 636
GlyphClass: 1
Flags: W
LayerCount: 2
Fore
SplineSet
149.399414062 38.400390625 m 5,0,-1
 149.399414062 107.040039062 l 5,1,-1
 80.759765625 107.040039062 l 5,2,-1
 80.759765625 448.319335938 l 5,3,-1
 149.399414062 448.319335938 l 5,4,-1
 149.399414062 516.958984375 l 5,5,-1
 355.799804688 516.958984375 l 5,6,-1
 355.799804688 448.319335938 l 5,7,-1
 422.51953125 448.319335938 l 5,8,-1
 422.51953125 380.639648438 l 5,9,-1
 354.83984375 380.639648438 l 5,10,-1
 354.83984375 449.279296875 l 5,11,-1
 148.439453125 449.279296875 l 5,12,-1
 148.439453125 106.080078125 l 5,13,-1
 353.399414062 106.080078125 l 5,14,-1
 353.399414062 243.83984375 l 5,15,-1
 218.040039062 243.83984375 l 5,16,-1
 218.040039062 311.51953125 l 5,17,-1
 422.51953125 311.51953125 l 5,18,-1
 422.51953125 38.400390625 l 5,19,-1
 149.399414062 38.400390625 l 5,0,-1
460.918945312 0 m 5,20,-1
 460.918945312 301.919921875 l 5,21,-1
 436.918945312 301.919921875 l 5,22,-1
 436.918945312 325.919921875 l 5,23,-1
 203.639648438 325.919921875 l 5,24,-1
 203.639648438 229.439453125 l 5,25,-1
 227.639648438 229.439453125 l 5,26,-1
 227.639648438 205.439453125 l 5,27,-1
 339 205.439453125 l 5,28,-1
 339 120.479492188 l 5,29,-1
 186.83984375 120.479492188 l 5,30,-1
 186.83984375 410.879882812 l 5,31,-1
 340.439453125 410.879882812 l 5,32,-1
 340.439453125 366.240234375 l 5,33,-1
 364.439453125 366.240234375 l 5,34,-1
 364.439453125 342.240234375 l 5,35,-1
 460.918945312 342.240234375 l 5,36,-1
 460.918945312 438.719726562 l 5,37,-1
 436.918945312 438.719726562 l 5,38,-1
 436.918945312 462.719726562 l 5,39,-1
 394.200195312 462.719726562 l 5,40,-1
 394.200195312 507.359375 l 5,41,-1
 370.200195312 507.359375 l 5,42,-1
 370.200195312 531.359375 l 5,43,-1
 135 531.359375 l 5,44,-1
 135 462.719726562 l 5,45,-1
 66.3603515625 462.719726562 l 5,46,-1
 66.3603515625 92.6396484375 l 5,47,-1
 90.3603515625 92.6396484375 l 5,48,-1
 90.3603515625 68.6396484375 l 5,49,-1
 135 68.6396484375 l 5,50,-1
 135 24 l 5,51,-1
 159 24 l 5,52,-1
 159 0 l 5,53,-1
 460.918945312 0 l 5,20,-1
EndSplineSet
EndChar

StartChar: H
Encoding: 72 72 42
Width: 492
VWidth: 636
GlyphClass: 1
Flags: W
LayerCount: 2
Fore
SplineSet
353.479492188 38.400390625 m 5,0,-1
 353.479492188 243.83984375 l 5,1,-1
 147.079101562 243.83984375 l 5,2,-1
 147.079101562 38.400390625 l 5,3,-1
 79.3994140625 38.400390625 l 5,4,-1
 79.3994140625 516.958984375 l 5,5,-1
 147.079101562 516.958984375 l 5,6,-1
 147.079101562 311.51953125 l 5,7,-1
 353.479492188 311.51953125 l 5,8,-1
 353.479492188 516.958984375 l 5,9,-1
 421.159179688 516.958984375 l 5,10,-1
 421.159179688 38.400390625 l 5,11,-1
 353.479492188 38.400390625 l 5,0,-1
459.55859375 0 m 5,12,-1
 459.55859375 507.359375 l 5,13,-1
 435.55859375 507.359375 l 5,14,-1
 435.55859375 531.359375 l 5,15,-1
 339.079101562 531.359375 l 5,16,-1
 339.079101562 325.919921875 l 5,17,-1
 185.479492188 325.919921875 l 5,18,-1
 185.479492188 507.359375 l 5,19,-1
 161.479492188 507.359375 l 5,20,-1
 161.479492188 531.359375 l 5,21,-1
 65 531.359375 l 5,22,-1
 65 24 l 5,23,-1
 89 24 l 5,24,-1
 89 0 l 5,25,-1
 185.479492188 0 l 5,26,-1
 185.479492188 205.439453125 l 5,27,-1
 339.079101562 205.439453125 l 5,28,-1
 339.079101562 24 l 5,29,-1
 363.079101562 24 l 5,30,-1
 363.079101562 0 l 5,31,-1
 459.55859375 0 l 5,12,-1
EndSplineSet
EndChar

StartChar: I
Encoding: 73 73 43
Width: 347
VWidth: 636
GlyphClass: 1
Flags: W
LayerCount: 2
Fore
SplineSet
62.400390625 38.400390625 m 5,0,-1
 62.400390625 106.080078125 l 5,1,-1
 131.040039062 106.080078125 l 5,2,-1
 131.040039062 449.279296875 l 5,3,-1
 62.400390625 449.279296875 l 5,4,-1
 62.400390625 516.958984375 l 5,5,-1
 267.359375 516.958984375 l 5,6,-1
 267.359375 449.279296875 l 5,7,-1
 198.719726562 449.279296875 l 5,8,-1
 198.719726562 106.080078125 l 5,9,-1
 267.359375 106.080078125 l 5,10,-1
 267.359375 38.400390625 l 5,11,-1
 62.400390625 38.400390625 l 5,0,-1
305.759765625 0 m 5,12,-1
 305.759765625 96.4794921875 l 5,13,-1
 281.759765625 96.4794921875 l 5,14,-1
 281.759765625 120.479492188 l 5,15,-1
 237.120117188 120.479492188 l 5,16,-1
 237.120117188 410.879882812 l 5,17,-1
 305.759765625 410.879882812 l 5,18,-1
 305.759765625 507.359375 l 5,19,-1
 281.759765625 507.359375 l 5,20,-1
 281.759765625 531.359375 l 5,21,-1
 48 531.359375 l 5,22,-1
 48 434.879882812 l 5,23,-1
 72 434.879882812 l 5,24,-1
 72 410.879882812 l 5,25,-1
 116.639648438 410.879882812 l 5,26,-1
 116.639648438 120.479492188 l 5,27,-1
 48 120.479492188 l 5,28,-1
 48 24 l 5,29,-1
 72 24 l 5,30,-1
 72 0 l 5,31,-1
 305.759765625 0 l 5,12,-1
EndSplineSet
EndChar

StartChar: J
Encoding: 74 74 44
Width: 492
VWidth: 636
GlyphClass: 1
Flags: W
LayerCount: 2
Fore
SplineSet
352.879882812 107.040039062 m 5,0,-1
 352.879882812 38.400390625 l 5,1,-1
 148.399414062 38.400390625 l 5,2,-1
 148.399414062 107.040039062 l 5,3,-1
 79.759765625 107.040039062 l 5,4,-1
 79.759765625 242.879882812 l 5,5,-1
 147.439453125 242.879882812 l 5,6,-1
 147.439453125 106.080078125 l 5,7,-1
 353.83984375 106.080078125 l 5,8,-1
 353.83984375 516.958984375 l 5,9,-1
 421.51953125 516.958984375 l 5,10,-1
 421.51953125 107.040039062 l 5,11,-1
 352.879882812 107.040039062 l 5,0,-1
459.918945312 68.6396484375 m 5,12,-1
 459.918945312 507.359375 l 5,13,-1
 435.918945312 507.359375 l 5,14,-1
 435.918945312 531.359375 l 5,15,-1
 339.439453125 531.359375 l 5,16,-1
 339.439453125 120.479492188 l 5,17,-1
 185.83984375 120.479492188 l 5,18,-1
 185.83984375 233.279296875 l 5,19,-1
 161.83984375 233.279296875 l 5,20,-1
 161.83984375 257.279296875 l 5,21,-1
 65.3603515625 257.279296875 l 5,22,-1
 65.3603515625 92.6396484375 l 5,23,-1
 89.3603515625 92.6396484375 l 5,24,-1
 89.3603515625 68.6396484375 l 5,25,-1
 134 68.6396484375 l 5,26,-1
 134 24 l 5,27,-1
 158 24 l 5,28,-1
 158 0 l 5,29,-1
 391.279296875 0 l 5,30,-1
 391.279296875 68.6396484375 l 5,31,-1
 459.918945312 68.6396484375 l 5,12,-1
EndSplineSet
EndChar

StartChar: K
Encoding: 75 75 45
Width: 492
VWidth: 636
GlyphClass: 1
Flags: W
LayerCount: 2
Fore
SplineSet
354 38.400390625 m 5,0,-1
 354 175.200195312 l 5,1,-1
 285.83984375 175.200195312 l 5,2,-1
 285.83984375 243.83984375 l 5,3,-1
 147.599609375 243.83984375 l 5,4,-1
 147.599609375 38.400390625 l 5,5,-1
 79.919921875 38.400390625 l 5,6,-1
 79.919921875 516.958984375 l 5,7,-1
 147.599609375 516.958984375 l 5,8,-1
 147.599609375 311.51953125 l 5,9,-1
 285.83984375 311.51953125 l 5,10,-1
 285.83984375 379.6796875 l 5,11,-1
 352.559570312 379.6796875 l 5,12,-1
 352.559570312 516.958984375 l 5,13,-1
 421.6796875 516.958984375 l 5,14,-1
 421.6796875 380.639648438 l 5,15,-1
 353.040039062 380.639648438 l 5,16,-1
 353.040039062 312.479492188 l 5,17,-1
 284.879882812 312.479492188 l 5,18,-1
 284.879882812 242.879882812 l 5,19,-1
 354.959960938 242.879882812 l 5,20,-1
 354.959960938 174.240234375 l 5,21,-1
 421.6796875 174.240234375 l 5,22,-1
 421.6796875 38.400390625 l 5,23,-1
 354 38.400390625 l 5,0,-1
460.079101562 0 m 5,24,-1
 460.079101562 164.639648438 l 5,25,-1
 436.079101562 164.639648438 l 5,26,-1
 436.079101562 188.639648438 l 5,27,-1
 393.360351562 188.639648438 l 5,28,-1
 393.360351562 233.279296875 l 5,29,-1
 369.360351562 233.279296875 l 5,30,-1
 369.360351562 257.279296875 l 5,31,-1
 323.279296875 257.279296875 l 5,32,-1
 323.279296875 274.080078125 l 5,33,-1
 391.439453125 274.080078125 l 5,34,-1
 391.439453125 342.240234375 l 5,35,-1
 460.079101562 342.240234375 l 5,36,-1
 460.079101562 507.359375 l 5,37,-1
 436.079101562 507.359375 l 5,38,-1
 436.079101562 531.359375 l 5,39,-1
 338.16015625 531.359375 l 5,40,-1
 338.16015625 394.080078125 l 5,41,-1
 271.439453125 394.080078125 l 5,42,-1
 271.439453125 325.919921875 l 5,43,-1
 186 325.919921875 l 5,44,-1
 186 507.359375 l 5,45,-1
 162 507.359375 l 5,46,-1
 162 531.359375 l 5,47,-1
 65.5205078125 531.359375 l 5,48,-1
 65.5205078125 24 l 5,49,-1
 89.5205078125 24 l 5,50,-1
 89.5205078125 0 l 5,51,-1
 186 0 l 5,52,-1
 186 205.439453125 l 5,53,-1
 271.439453125 205.439453125 l 5,54,-1
 271.439453125 160.799804688 l 5,55,-1
 295.439453125 160.799804688 l 5,56,-1
 295.439453125 136.799804688 l 5,57,-1
 339.599609375 136.799804688 l 5,58,-1
 339.599609375 24 l 5,59,-1
 363.599609375 24 l 5,60,-1
 363.599609375 0 l 5,61,-1
 460.079101562 0 l 5,24,-1
EndSplineSet
EndChar

StartChar: L
Encoding: 76 76 46
Width: 492
VWidth: 636
GlyphClass: 1
Flags: W
LayerCount: 2
Fore
SplineSet
79.3994140625 38.400390625 m 5,0,-1
 79.3994140625 516.958984375 l 5,1,-1
 147.079101562 516.958984375 l 5,2,-1
 147.079101562 106.080078125 l 5,3,-1
 421.159179688 106.080078125 l 5,4,-1
 421.159179688 38.400390625 l 5,5,-1
 79.3994140625 38.400390625 l 5,0,-1
459.55859375 0 m 5,6,-1
 459.55859375 96.4794921875 l 5,7,-1
 435.55859375 96.4794921875 l 5,8,-1
 435.55859375 120.479492188 l 5,9,-1
 185.479492188 120.479492188 l 5,10,-1
 185.479492188 507.359375 l 5,11,-1
 161.479492188 507.359375 l 5,12,-1
 161.479492188 531.359375 l 5,13,-1
 65 531.359375 l 5,14,-1
 65 24 l 5,15,-1
 89 24 l 5,16,-1
 89 0 l 5,17,-1
 459.55859375 0 l 5,6,-1
EndSplineSet
EndChar

StartChar: M
Encoding: 77 77 47
Width: 492
VWidth: 636
GlyphClass: 1
Flags: W
LayerCount: 2
Fore
SplineSet
354 38.400390625 m 5,0,-1
 354 380.639648438 l 5,1,-1
 284.399414062 380.639648438 l 5,2,-1
 284.399414062 312.479492188 l 5,3,-1
 217.200195312 312.479492188 l 5,4,-1
 217.200195312 380.639648438 l 5,5,-1
 147.599609375 380.639648438 l 5,6,-1
 147.599609375 38.400390625 l 5,7,-1
 79.919921875 38.400390625 l 5,8,-1
 79.919921875 516.958984375 l 5,9,-1
 147.599609375 516.958984375 l 5,10,-1
 147.599609375 448.319335938 l 5,11,-1
 216.239257812 448.319335938 l 5,12,-1
 216.239257812 379.6796875 l 5,13,-1
 285.83984375 379.6796875 l 5,14,-1
 285.83984375 448.319335938 l 5,15,-1
 354 448.319335938 l 5,16,-1
 354 516.958984375 l 5,17,-1
 421.6796875 516.958984375 l 5,18,-1
 421.6796875 38.400390625 l 5,19,-1
 354 38.400390625 l 5,0,-1
460.079101562 0 m 5,20,-1
 460.079101562 507.359375 l 5,21,-1
 436.079101562 507.359375 l 5,22,-1
 436.079101562 531.359375 l 5,23,-1
 339.599609375 531.359375 l 5,24,-1
 339.599609375 462.719726562 l 5,25,-1
 271.439453125 462.719726562 l 5,26,-1
 271.439453125 394.080078125 l 5,27,-1
 254.639648438 394.080078125 l 5,28,-1
 254.639648438 438.719726562 l 5,29,-1
 230.639648438 438.719726562 l 5,30,-1
 230.639648438 462.719726562 l 5,31,-1
 186 462.719726562 l 5,32,-1
 186 507.359375 l 5,33,-1
 162 507.359375 l 5,34,-1
 162 531.359375 l 5,35,-1
 65.5205078125 531.359375 l 5,36,-1
 65.5205078125 24 l 5,37,-1
 89.5205078125 24 l 5,38,-1
 89.5205078125 0 l 5,39,-1
 186 0 l 5,40,-1
 186 342.240234375 l 5,41,-1
 202.799804688 342.240234375 l 5,42,-1
 202.799804688 298.080078125 l 5,43,-1
 226.799804688 298.080078125 l 5,44,-1
 226.799804688 274.080078125 l 5,45,-1
 322.799804688 274.080078125 l 5,46,-1
 322.799804688 342.240234375 l 5,47,-1
 339.599609375 342.240234375 l 5,48,-1
 339.599609375 24 l 5,49,-1
 363.599609375 24 l 5,50,-1
 363.599609375 0 l 5,51,-1
 460.079101562 0 l 5,20,-1
EndSplineSet
EndChar

StartChar: N
Encoding: 78 78 48
Width: 492
VWidth: 636
GlyphClass: 1
Flags: W
LayerCount: 2
Fore
SplineSet
354 38.400390625 m 5,0,-1
 354 243.83984375 l 5,1,-1
 285.83984375 243.83984375 l 5,2,-1
 285.83984375 312.479492188 l 5,3,-1
 217.200195312 312.479492188 l 5,4,-1
 217.200195312 380.639648438 l 5,5,-1
 147.599609375 380.639648438 l 5,6,-1
 147.599609375 38.400390625 l 5,7,-1
 79.919921875 38.400390625 l 5,8,-1
 79.919921875 516.958984375 l 5,9,-1
 147.599609375 516.958984375 l 5,10,-1
 147.599609375 448.319335938 l 5,11,-1
 216.239257812 448.319335938 l 5,12,-1
 216.239257812 379.6796875 l 5,13,-1
 284.879882812 379.6796875 l 5,14,-1
 284.879882812 311.51953125 l 5,15,-1
 354 311.51953125 l 5,16,-1
 354 516.958984375 l 5,17,-1
 421.6796875 516.958984375 l 5,18,-1
 421.6796875 38.400390625 l 5,19,-1
 354 38.400390625 l 5,0,-1
460.079101562 0 m 5,20,-1
 460.079101562 507.359375 l 5,21,-1
 436.079101562 507.359375 l 5,22,-1
 436.079101562 531.359375 l 5,23,-1
 339.599609375 531.359375 l 5,24,-1
 339.599609375 325.919921875 l 5,25,-1
 323.279296875 325.919921875 l 5,26,-1
 323.279296875 370.080078125 l 5,27,-1
 299.279296875 370.080078125 l 5,28,-1
 299.279296875 394.080078125 l 5,29,-1
 254.639648438 394.080078125 l 5,30,-1
 254.639648438 438.719726562 l 5,31,-1
 230.639648438 438.719726562 l 5,32,-1
 230.639648438 462.719726562 l 5,33,-1
 186 462.719726562 l 5,34,-1
 186 507.359375 l 5,35,-1
 162 507.359375 l 5,36,-1
 162 531.359375 l 5,37,-1
 65.5205078125 531.359375 l 5,38,-1
 65.5205078125 24 l 5,39,-1
 89.5205078125 24 l 5,40,-1
 89.5205078125 0 l 5,41,-1
 186 0 l 5,42,-1
 186 342.240234375 l 5,43,-1
 202.799804688 342.240234375 l 5,44,-1
 202.799804688 298.080078125 l 5,45,-1
 226.799804688 298.080078125 l 5,46,-1
 226.799804688 274.080078125 l 5,47,-1
 271.439453125 274.080078125 l 5,48,-1
 271.439453125 229.439453125 l 5,49,-1
 295.439453125 229.439453125 l 5,50,-1
 295.439453125 205.439453125 l 5,51,-1
 339.599609375 205.439453125 l 5,52,-1
 339.599609375 24 l 5,53,-1
 363.599609375 24 l 5,54,-1
 363.599609375 0 l 5,55,-1
 460.079101562 0 l 5,20,-1
EndSplineSet
EndChar

StartChar: O
Encoding: 79 79 49
Width: 492
VWidth: 636
GlyphClass: 1
Flags: W
LayerCount: 2
Fore
SplineSet
352.879882812 448.319335938 m 5,0,-1
 148.399414062 448.319335938 l 5,1,-1
 148.399414062 107.040039062 l 5,2,-1
 352.879882812 107.040039062 l 5,3,-1
 352.879882812 448.319335938 l 5,0,-1
352.879882812 107.040039062 m 5,4,-1
 352.879882812 38.400390625 l 5,5,-1
 148.399414062 38.400390625 l 5,6,-1
 148.399414062 107.040039062 l 5,7,-1
 79.759765625 107.040039062 l 5,8,-1
 79.759765625 448.319335938 l 5,9,-1
 148.399414062 448.319335938 l 5,10,-1
 148.399414062 516.958984375 l 5,11,-1
 352.879882812 516.958984375 l 5,12,-1
 352.879882812 448.319335938 l 5,13,-1
 421.51953125 448.319335938 l 5,14,-1
 421.51953125 107.040039062 l 5,15,-1
 352.879882812 107.040039062 l 5,4,-1
459.918945312 68.6396484375 m 5,16,-1
 459.918945312 438.719726562 l 5,17,-1
 435.918945312 438.719726562 l 5,18,-1
 435.918945312 462.719726562 l 5,19,-1
 391.279296875 462.719726562 l 5,20,-1
 391.279296875 507.359375 l 5,21,-1
 367.279296875 507.359375 l 5,22,-1
 367.279296875 531.359375 l 5,23,-1
 134 531.359375 l 5,24,-1
 134 462.719726562 l 5,25,-1
 65.3603515625 462.719726562 l 5,26,-1
 65.3603515625 92.6396484375 l 5,27,-1
 89.3603515625 92.6396484375 l 5,28,-1
 89.3603515625 68.6396484375 l 5,29,-1
 134 68.6396484375 l 5,30,-1
 134 24 l 5,31,-1
 158 24 l 5,32,-1
 158 0 l 5,33,-1
 391.279296875 0 l 5,34,-1
 391.279296875 68.6396484375 l 5,35,-1
 459.918945312 68.6396484375 l 5,16,-1
186.799804688 409.919921875 m 5,36,-1
 338.479492188 409.919921875 l 5,37,-1
 338.479492188 121.439453125 l 5,38,-1
 186.799804688 121.439453125 l 5,39,-1
 186.799804688 409.919921875 l 5,36,-1
EndSplineSet
EndChar

StartChar: P
Encoding: 80 80 50
Width: 492
VWidth: 636
GlyphClass: 1
Flags: W
LayerCount: 2
Fore
SplineSet
353.040039062 448.319335938 m 5,0,-1
 148.559570312 448.319335938 l 5,1,-1
 148.559570312 312.479492188 l 5,2,-1
 353.040039062 312.479492188 l 5,3,-1
 353.040039062 448.319335938 l 5,0,-1
353.040039062 312.479492188 m 5,4,-1
 353.040039062 243.83984375 l 5,5,-1
 147.599609375 243.83984375 l 5,6,-1
 147.599609375 38.400390625 l 5,7,-1
 79.919921875 38.400390625 l 5,8,-1
 79.919921875 516.958984375 l 5,9,-1
 353.040039062 516.958984375 l 5,10,-1
 353.040039062 448.319335938 l 5,11,-1
 421.6796875 448.319335938 l 5,12,-1
 421.6796875 312.479492188 l 5,13,-1
 353.040039062 312.479492188 l 5,4,-1
460.079101562 274.080078125 m 5,14,-1
 460.079101562 438.719726562 l 5,15,-1
 436.079101562 438.719726562 l 5,16,-1
 436.079101562 462.719726562 l 5,17,-1
 391.439453125 462.719726562 l 5,18,-1
 391.439453125 507.359375 l 5,19,-1
 367.439453125 507.359375 l 5,20,-1
 367.439453125 531.359375 l 5,21,-1
 65.5205078125 531.359375 l 5,22,-1
 65.5205078125 24 l 5,23,-1
 89.5205078125 24 l 5,24,-1
 89.5205078125 0 l 5,25,-1
 186 0 l 5,26,-1
 186 205.439453125 l 5,27,-1
 391.439453125 205.439453125 l 5,28,-1
 391.439453125 274.080078125 l 5,29,-1
 460.079101562 274.080078125 l 5,14,-1
186.959960938 409.919921875 m 5,30,-1
 338.639648438 409.919921875 l 5,31,-1
 338.639648438 326.879882812 l 5,32,-1
 186.959960938 326.879882812 l 5,33,-1
 186.959960938 409.919921875 l 5,30,-1
EndSplineSet
EndChar

StartChar: Q
Encoding: 81 81 51
Width: 492
VWidth: 636
GlyphClass: 1
Flags: W
LayerCount: 2
Fore
SplineSet
352.879882812 448.319335938 m 5,0,-1
 148.399414062 448.319335938 l 5,1,-1
 148.399414062 107.040039062 l 5,2,-1
 286.16015625 107.040039062 l 5,3,-1
 286.16015625 174.240234375 l 5,4,-1
 216.079101562 174.240234375 l 5,5,-1
 216.079101562 243.83984375 l 5,6,-1
 283.759765625 243.83984375 l 5,7,-1
 283.759765625 175.200195312 l 5,8,-1
 352.879882812 175.200195312 l 5,9,-1
 352.879882812 448.319335938 l 5,0,-1
148.399414062 38.400390625 m 5,10,-1
 148.399414062 107.040039062 l 5,11,-1
 79.759765625 107.040039062 l 5,12,-1
 79.759765625 448.319335938 l 5,13,-1
 148.399414062 448.319335938 l 5,14,-1
 148.399414062 516.958984375 l 5,15,-1
 352.879882812 516.958984375 l 5,16,-1
 352.879882812 448.319335938 l 5,17,-1
 421.51953125 448.319335938 l 5,18,-1
 421.51953125 38.400390625 l 5,19,-1
 148.399414062 38.400390625 l 5,10,-1
459.918945312 0 m 5,20,-1
 459.918945312 438.719726562 l 5,21,-1
 435.918945312 438.719726562 l 5,22,-1
 435.918945312 462.719726562 l 5,23,-1
 391.279296875 462.719726562 l 5,24,-1
 391.279296875 507.359375 l 5,25,-1
 367.279296875 507.359375 l 5,26,-1
 367.279296875 531.359375 l 5,27,-1
 134 531.359375 l 5,28,-1
 134 462.719726562 l 5,29,-1
 65.3603515625 462.719726562 l 5,30,-1
 65.3603515625 92.6396484375 l 5,31,-1
 89.3603515625 92.6396484375 l 5,32,-1
 89.3603515625 68.6396484375 l 5,33,-1
 134 68.6396484375 l 5,34,-1
 134 24 l 5,35,-1
 158 24 l 5,36,-1
 158 0 l 5,37,-1
 459.918945312 0 l 5,20,-1
298.16015625 258.240234375 m 5,38,-1
 201.6796875 258.240234375 l 5,39,-1
 201.6796875 159.83984375 l 5,40,-1
 225.6796875 159.83984375 l 5,41,-1
 225.6796875 135.83984375 l 5,42,-1
 271.759765625 135.83984375 l 5,43,-1
 271.759765625 121.439453125 l 5,44,-1
 186.799804688 121.439453125 l 5,45,-1
 186.799804688 409.919921875 l 5,46,-1
 338.479492188 409.919921875 l 5,47,-1
 338.479492188 189.599609375 l 5,48,-1
 322.16015625 189.599609375 l 5,49,-1
 322.16015625 234.240234375 l 5,50,-1
 298.16015625 234.240234375 l 5,51,-1
 298.16015625 258.240234375 l 5,38,-1
EndSplineSet
EndChar

StartChar: R
Encoding: 82 82 52
Width: 492
VWidth: 636
GlyphClass: 1
Flags: W
LayerCount: 2
Fore
SplineSet
353.040039062 448.319335938 m 5,0,-1
 148.559570312 448.319335938 l 5,1,-1
 148.559570312 312.479492188 l 5,2,-1
 353.040039062 312.479492188 l 5,3,-1
 353.040039062 448.319335938 l 5,0,-1
354 38.400390625 m 5,4,-1
 354 243.83984375 l 5,5,-1
 147.599609375 243.83984375 l 5,6,-1
 147.599609375 38.400390625 l 5,7,-1
 79.919921875 38.400390625 l 5,8,-1
 79.919921875 516.958984375 l 5,9,-1
 353.040039062 516.958984375 l 5,10,-1
 353.040039062 448.319335938 l 5,11,-1
 421.6796875 448.319335938 l 5,12,-1
 421.6796875 312.479492188 l 5,13,-1
 353.040039062 312.479492188 l 5,14,-1
 353.040039062 242.879882812 l 5,15,-1
 421.6796875 242.879882812 l 5,16,-1
 421.6796875 38.400390625 l 5,17,-1
 354 38.400390625 l 5,4,-1
460.079101562 0 m 5,18,-1
 460.079101562 233.279296875 l 5,19,-1
 436.079101562 233.279296875 l 5,20,-1
 436.079101562 257.279296875 l 5,21,-1
 391.439453125 257.279296875 l 5,22,-1
 391.439453125 274.080078125 l 5,23,-1
 460.079101562 274.080078125 l 5,24,-1
 460.079101562 438.719726562 l 5,25,-1
 436.079101562 438.719726562 l 5,26,-1
 436.079101562 462.719726562 l 5,27,-1
 391.439453125 462.719726562 l 5,28,-1
 391.439453125 507.359375 l 5,29,-1
 367.439453125 507.359375 l 5,30,-1
 367.439453125 531.359375 l 5,31,-1
 65.5205078125 531.359375 l 5,32,-1
 65.5205078125 24 l 5,33,-1
 89.5205078125 24 l 5,34,-1
 89.5205078125 0 l 5,35,-1
 186 0 l 5,36,-1
 186 205.439453125 l 5,37,-1
 339.599609375 205.439453125 l 5,38,-1
 339.599609375 24 l 5,39,-1
 363.599609375 24 l 5,40,-1
 363.599609375 0 l 5,41,-1
 460.079101562 0 l 5,18,-1
186.959960938 409.919921875 m 5,42,-1
 338.639648438 409.919921875 l 5,43,-1
 338.639648438 326.879882812 l 5,44,-1
 186.959960938 326.879882812 l 5,45,-1
 186.959960938 409.919921875 l 5,42,-1
EndSplineSet
EndChar

StartChar: S
Encoding: 83 83 53
Width: 492
VWidth: 636
GlyphClass: 1
Flags: W
LayerCount: 2
Fore
SplineSet
352.83984375 107.040039062 m 5,0,-1
 352.83984375 38.400390625 l 5,1,-1
 147.399414062 38.400390625 l 5,2,-1
 147.399414062 107.040039062 l 5,3,-1
 79.7197265625 107.040039062 l 5,4,-1
 79.7197265625 174.240234375 l 5,5,-1
 147.399414062 174.240234375 l 5,6,-1
 147.399414062 106.080078125 l 5,7,-1
 353.799804688 106.080078125 l 5,8,-1
 353.799804688 243.83984375 l 5,9,-1
 147.399414062 243.83984375 l 5,10,-1
 147.399414062 310.559570312 l 5,11,-1
 79.7197265625 312.479492188 l 5,12,-1
 79.7197265625 448.319335938 l 5,13,-1
 147.399414062 448.319335938 l 5,14,-1
 147.399414062 516.958984375 l 5,15,-1
 352.83984375 516.958984375 l 5,16,-1
 352.83984375 448.319335938 l 5,17,-1
 421.479492188 448.319335938 l 5,18,-1
 421.479492188 380.639648438 l 5,19,-1
 353.799804688 380.639648438 l 5,20,-1
 353.799804688 449.279296875 l 5,21,-1
 149.799804688 449.279296875 l 5,22,-1
 149.799804688 312 l 5,23,-1
 352.83984375 312 l 5,24,-1
 352.83984375 242.879882812 l 5,25,-1
 421.479492188 242.879882812 l 5,26,-1
 421.479492188 107.040039062 l 5,27,-1
 352.83984375 107.040039062 l 5,0,-1
459.87890625 68.6396484375 m 5,28,-1
 459.87890625 233.279296875 l 5,29,-1
 435.87890625 233.279296875 l 5,30,-1
 435.87890625 257.279296875 l 5,31,-1
 391.239257812 257.279296875 l 5,32,-1
 391.239257812 302.400390625 l 5,33,-1
 367.239257812 302.400390625 l 5,34,-1
 367.239257812 326.400390625 l 5,35,-1
 188.19921875 326.400390625 l 5,36,-1
 188.19921875 410.879882812 l 5,37,-1
 339.399414062 410.879882812 l 5,38,-1
 339.399414062 366.240234375 l 5,39,-1
 363.399414062 366.240234375 l 5,40,-1
 363.399414062 342.240234375 l 5,41,-1
 459.87890625 342.240234375 l 5,42,-1
 459.87890625 438.719726562 l 5,43,-1
 435.87890625 438.719726562 l 5,44,-1
 435.87890625 462.719726562 l 5,45,-1
 391.239257812 462.719726562 l 5,46,-1
 391.239257812 507.359375 l 5,47,-1
 367.239257812 507.359375 l 5,48,-1
 367.239257812 531.359375 l 5,49,-1
 133 531.359375 l 5,50,-1
 133 462.719726562 l 5,51,-1
 65.3203125 462.719726562 l 5,52,-1
 65.3203125 298.559570312 l 5,53,-1
 89.3203125 297.599609375 l 5,54,-1
 89.3203125 274.559570312 l 5,55,-1
 133 273.119140625 l 5,56,-1
 133 229.439453125 l 5,57,-1
 157 229.439453125 l 5,58,-1
 157 205.439453125 l 5,59,-1
 339.399414062 205.439453125 l 5,60,-1
 339.399414062 120.479492188 l 5,61,-1
 185.799804688 120.479492188 l 5,62,-1
 185.799804688 164.639648438 l 5,63,-1
 161.799804688 164.639648438 l 5,64,-1
 161.799804688 188.639648438 l 5,65,-1
 65.3203125 188.639648438 l 5,66,-1
 65.3203125 92.6396484375 l 5,67,-1
 89.3203125 92.6396484375 l 5,68,-1
 89.3203125 68.6396484375 l 5,69,-1
 133 68.6396484375 l 5,70,-1
 133 24 l 5,71,-1
 157 24 l 5,72,-1
 157 0 l 5,73,-1
 391.239257812 0 l 5,74,-1
 391.239257812 68.6396484375 l 5,75,-1
 459.87890625 68.6396484375 l 5,28,-1
EndSplineSet
EndChar

StartChar: T
Encoding: 84 84 54
Width: 492
VWidth: 636
GlyphClass: 1
Flags: W
LayerCount: 2
Fore
SplineSet
284.600585938 449.279296875 m 5,0,-1
 284.600585938 38.400390625 l 5,1,-1
 216.920898438 38.400390625 l 5,2,-1
 216.920898438 449.279296875 l 5,3,-1
 79.640625 449.279296875 l 5,4,-1
 79.640625 516.958984375 l 5,5,-1
 421.400390625 516.958984375 l 5,6,-1
 421.400390625 449.279296875 l 5,7,-1
 284.600585938 449.279296875 l 5,0,-1
459.799804688 410.879882812 m 5,8,-1
 459.799804688 507.359375 l 5,9,-1
 435.799804688 507.359375 l 5,10,-1
 435.799804688 531.359375 l 5,11,-1
 65.2412109375 531.359375 l 5,12,-1
 65.2412109375 434.879882812 l 5,13,-1
 89.2412109375 434.879882812 l 5,14,-1
 89.2412109375 410.879882812 l 5,15,-1
 202.520507812 410.879882812 l 5,16,-1
 202.520507812 24 l 5,17,-1
 226.520507812 24 l 5,18,-1
 226.520507812 0 l 5,19,-1
 323 0 l 5,20,-1
 323 410.879882812 l 5,21,-1
 459.799804688 410.879882812 l 5,8,-1
EndSplineSet
EndChar

StartChar: U
Encoding: 85 85 55
Width: 492
VWidth: 636
GlyphClass: 1
Flags: W
LayerCount: 2
Fore
SplineSet
352.879882812 107.040039062 m 5,0,-1
 352.879882812 38.400390625 l 5,1,-1
 148.399414062 38.400390625 l 5,2,-1
 148.399414062 107.040039062 l 5,3,-1
 79.759765625 107.040039062 l 5,4,-1
 79.759765625 516.958984375 l 5,5,-1
 147.439453125 516.958984375 l 5,6,-1
 147.439453125 106.080078125 l 5,7,-1
 353.83984375 106.080078125 l 5,8,-1
 353.83984375 516.958984375 l 5,9,-1
 421.51953125 516.958984375 l 5,10,-1
 421.51953125 107.040039062 l 5,11,-1
 352.879882812 107.040039062 l 5,0,-1
459.918945312 68.6396484375 m 5,12,-1
 459.918945312 507.359375 l 5,13,-1
 435.918945312 507.359375 l 5,14,-1
 435.918945312 531.359375 l 5,15,-1
 339.439453125 531.359375 l 5,16,-1
 339.439453125 120.479492188 l 5,17,-1
 185.83984375 120.479492188 l 5,18,-1
 185.83984375 507.359375 l 5,19,-1
 161.83984375 507.359375 l 5,20,-1
 161.83984375 531.359375 l 5,21,-1
 65.3603515625 531.359375 l 5,22,-1
 65.3603515625 92.6396484375 l 5,23,-1
 89.3603515625 92.6396484375 l 5,24,-1
 89.3603515625 68.6396484375 l 5,25,-1
 134 68.6396484375 l 5,26,-1
 134 24 l 5,27,-1
 158 24 l 5,28,-1
 158 0 l 5,29,-1
 391.279296875 0 l 5,30,-1
 391.279296875 68.6396484375 l 5,31,-1
 459.918945312 68.6396484375 l 5,12,-1
EndSplineSet
EndChar

StartChar: V
Encoding: 86 86 56
Width: 492
VWidth: 636
GlyphClass: 1
Flags: W
LayerCount: 2
Fore
SplineSet
352.240234375 175.200195312 m 5,0,-1
 352.240234375 107.040039062 l 5,1,-1
 283.599609375 107.040039062 l 5,2,-1
 283.599609375 38.400390625 l 5,3,-1
 216.400390625 38.400390625 l 5,4,-1
 216.400390625 107.040039062 l 5,5,-1
 147.759765625 107.040039062 l 5,6,-1
 147.759765625 172.799804688 l 5,7,-1
 79.1201171875 175.200195312 l 5,8,-1
 79.1201171875 516.958984375 l 5,9,-1
 146.799804688 516.958984375 l 5,10,-1
 146.799804688 175.200195312 l 5,11,-1
 215.439453125 175.200195312 l 5,12,-1
 215.439453125 106.080078125 l 5,13,-1
 285.040039062 106.080078125 l 5,14,-1
 285.040039062 175.200195312 l 5,15,-1
 353.200195312 175.200195312 l 5,16,-1
 353.200195312 516.958984375 l 5,17,-1
 420.879882812 516.958984375 l 5,18,-1
 420.879882812 175.200195312 l 5,19,-1
 352.240234375 175.200195312 l 5,0,-1
459.279296875 136.799804688 m 5,20,-1
 459.279296875 507.359375 l 5,21,-1
 435.279296875 507.359375 l 5,22,-1
 435.279296875 531.359375 l 5,23,-1
 338.799804688 531.359375 l 5,24,-1
 338.799804688 189.599609375 l 5,25,-1
 270.639648438 189.599609375 l 5,26,-1
 270.639648438 120.479492188 l 5,27,-1
 253.83984375 120.479492188 l 5,28,-1
 253.83984375 165.599609375 l 5,29,-1
 229.83984375 165.599609375 l 5,30,-1
 229.83984375 189.599609375 l 5,31,-1
 185.200195312 189.599609375 l 5,32,-1
 185.200195312 507.359375 l 5,33,-1
 161.200195312 507.359375 l 5,34,-1
 161.200195312 531.359375 l 5,35,-1
 64.720703125 531.359375 l 5,36,-1
 64.720703125 161.279296875 l 5,37,-1
 88.720703125 160.319335938 l 5,38,-1
 88.720703125 137.279296875 l 5,39,-1
 133.360351562 135.83984375 l 5,40,-1
 133.360351562 92.6396484375 l 5,41,-1
 157.360351562 92.6396484375 l 5,42,-1
 157.360351562 68.6396484375 l 5,43,-1
 202 68.6396484375 l 5,44,-1
 202 24 l 5,45,-1
 226 24 l 5,46,-1
 226 0 l 5,47,-1
 322 0 l 5,48,-1
 322 68.6396484375 l 5,49,-1
 390.639648438 68.6396484375 l 5,50,-1
 390.639648438 136.799804688 l 5,51,-1
 459.279296875 136.799804688 l 5,20,-1
EndSplineSet
EndChar

StartChar: W
Encoding: 87 87 57
Width: 492
VWidth: 637
GlyphClass: 1
Flags: W
LayerCount: 2
Fore
SplineSet
355.440429688 38.3994140625 m 5,0,-1
 355.440429688 107.520507812 l 5,1,-1
 286.3203125 107.520507812 l 5,2,-1
 286.3203125 176.16015625 l 5,3,-1
 216.241210938 176.16015625 l 5,4,-1
 216.241210938 107.520507812 l 5,5,-1
 147.600585938 107.520507812 l 5,6,-1
 147.600585938 38.3994140625 l 5,7,-1
 79.4404296875 38.3994140625 l 5,8,-1
 79.4404296875 519.840820312 l 5,9,-1
 147.600585938 519.840820312 l 5,10,-1
 147.600585938 175.200195312 l 5,11,-1
 217.200195312 175.200195312 l 5,12,-1
 217.200195312 243.840820312 l 5,13,-1
 285.360351562 243.840820312 l 5,14,-1
 285.360351562 175.200195312 l 5,15,-1
 355.440429688 175.200195312 l 5,16,-1
 355.440429688 519.840820312 l 5,17,-1
 423.600585938 519.840820312 l 5,18,-1
 423.600585938 38.3994140625 l 5,19,-1
 355.440429688 38.3994140625 l 5,0,-1
462 0 m 5,20,-1
 462 510.240234375 l 5,21,-1
 438 510.240234375 l 5,22,-1
 438 534.240234375 l 5,23,-1
 341.041015625 534.240234375 l 5,24,-1
 341.041015625 189.599609375 l 5,25,-1
 323.760742188 189.599609375 l 5,26,-1
 323.760742188 234.240234375 l 5,27,-1
 299.760742188 234.240234375 l 5,28,-1
 299.760742188 258.240234375 l 5,29,-1
 202.799804688 258.240234375 l 5,30,-1
 202.799804688 189.599609375 l 5,31,-1
 186 189.599609375 l 5,32,-1
 186 510.240234375 l 5,33,-1
 162 510.240234375 l 5,34,-1
 162 534.240234375 l 5,35,-1
 65.041015625 534.240234375 l 5,36,-1
 65.041015625 24 l 5,37,-1
 89.041015625 24 l 5,38,-1
 89.041015625 0 l 5,39,-1
 186 0 l 5,40,-1
 186 69.1201171875 l 5,41,-1
 254.640625 69.1201171875 l 5,42,-1
 254.640625 137.759765625 l 5,43,-1
 271.920898438 137.759765625 l 5,44,-1
 271.920898438 93.1201171875 l 5,45,-1
 295.920898438 93.1201171875 l 5,46,-1
 295.920898438 69.1201171875 l 5,47,-1
 341.041015625 69.1201171875 l 5,48,-1
 341.041015625 24 l 5,49,-1
 365.041015625 24 l 5,50,-1
 365.041015625 0 l 5,51,-1
 462 0 l 5,20,-1
EndSplineSet
EndChar

StartChar: X
Encoding: 88 88 58
Width: 492
VWidth: 636
GlyphClass: 1
Flags: W
LayerCount: 2
Fore
SplineSet
354.040039062 38.400390625 m 5,0,-1
 354.040039062 175.200195312 l 5,1,-1
 285.879882812 175.200195312 l 5,2,-1
 285.879882812 243.83984375 l 5,3,-1
 216.279296875 243.83984375 l 5,4,-1
 216.279296875 174.240234375 l 5,5,-1
 148.599609375 174.240234375 l 5,6,-1
 148.599609375 38.400390625 l 5,7,-1
 79.9599609375 38.400390625 l 5,8,-1
 79.9599609375 174.240234375 l 5,9,-1
 148.599609375 174.240234375 l 5,10,-1
 148.599609375 242.879882812 l 5,11,-1
 217.240234375 242.879882812 l 5,12,-1
 217.240234375 312.479492188 l 5,13,-1
 145.719726562 312.479492188 l 5,14,-1
 145.719726562 378.240234375 l 5,15,-1
 79.9599609375 381.119140625 l 5,16,-1
 79.9599609375 516.958984375 l 5,17,-1
 148.599609375 516.958984375 l 5,18,-1
 148.599609375 380.639648438 l 5,19,-1
 216.279296875 380.639648438 l 5,20,-1
 216.279296875 311.51953125 l 5,21,-1
 285.879882812 311.51953125 l 5,22,-1
 285.879882812 380.639648438 l 5,23,-1
 352.599609375 380.639648438 l 5,24,-1
 352.599609375 516.958984375 l 5,25,-1
 421.719726562 516.958984375 l 5,26,-1
 421.719726562 380.639648438 l 5,27,-1
 353.080078125 380.639648438 l 5,28,-1
 353.080078125 312.479492188 l 5,29,-1
 284.919921875 312.479492188 l 5,30,-1
 284.919921875 242.879882812 l 5,31,-1
 355 242.879882812 l 5,32,-1
 355 175.6796875 l 5,33,-1
 421.719726562 174.240234375 l 5,34,-1
 421.719726562 38.400390625 l 5,35,-1
 354.040039062 38.400390625 l 5,0,-1
460.119140625 0 m 5,36,-1
 460.119140625 164.159179688 l 5,37,-1
 436.119140625 164.639648438 l 5,38,-1
 436.119140625 188.159179688 l 5,39,-1
 393.400390625 189.119140625 l 5,40,-1
 393.400390625 233.279296875 l 5,41,-1
 369.400390625 233.279296875 l 5,42,-1
 369.400390625 257.279296875 l 5,43,-1
 323.319335938 257.279296875 l 5,44,-1
 323.319335938 274.080078125 l 5,45,-1
 391.479492188 274.080078125 l 5,46,-1
 391.479492188 342.240234375 l 5,47,-1
 460.119140625 342.240234375 l 5,48,-1
 460.119140625 507.359375 l 5,49,-1
 436.119140625 507.359375 l 5,50,-1
 436.119140625 531.359375 l 5,51,-1
 338.200195312 531.359375 l 5,52,-1
 338.200195312 395.040039062 l 5,53,-1
 271.479492188 395.040039062 l 5,54,-1
 271.479492188 325.919921875 l 5,55,-1
 254.6796875 325.919921875 l 5,56,-1
 254.6796875 371.040039062 l 5,57,-1
 230.6796875 371.040039062 l 5,58,-1
 230.6796875 395.040039062 l 5,59,-1
 187 395.040039062 l 5,60,-1
 187 507.359375 l 5,61,-1
 163 507.359375 l 5,62,-1
 163 531.359375 l 5,63,-1
 65.560546875 531.359375 l 5,64,-1
 65.560546875 367.200195312 l 5,65,-1
 89.560546875 366.240234375 l 5,66,-1
 89.560546875 343.200195312 l 5,67,-1
 131.319335938 341.279296875 l 5,68,-1
 131.319335938 298.080078125 l 5,69,-1
 155.319335938 298.080078125 l 5,70,-1
 155.319335938 274.080078125 l 5,71,-1
 202.83984375 274.080078125 l 5,72,-1
 202.83984375 257.279296875 l 5,73,-1
 134.200195312 257.279296875 l 5,74,-1
 134.200195312 188.639648438 l 5,75,-1
 65.560546875 188.639648438 l 5,76,-1
 65.560546875 24 l 5,77,-1
 89.560546875 24 l 5,78,-1
 89.560546875 0 l 5,79,-1
 187 0 l 5,80,-1
 187 135.83984375 l 5,81,-1
 254.6796875 135.83984375 l 5,82,-1
 254.6796875 205.439453125 l 5,83,-1
 271.479492188 205.439453125 l 5,84,-1
 271.479492188 160.799804688 l 5,85,-1
 295.479492188 160.799804688 l 5,86,-1
 295.479492188 136.799804688 l 5,87,-1
 339.639648438 136.799804688 l 5,88,-1
 339.639648438 24 l 5,89,-1
 363.639648438 24 l 5,90,-1
 363.639648438 0 l 5,91,-1
 460.119140625 0 l 5,36,-1
EndSplineSet
EndChar

StartChar: Y
Encoding: 89 89 59
Width: 492
VWidth: 636
GlyphClass: 1
Flags: W
LayerCount: 2
Fore
SplineSet
353.240234375 312.479492188 m 5,0,-1
 353.240234375 243.83984375 l 5,1,-1
 284.599609375 243.83984375 l 5,2,-1
 284.599609375 38.400390625 l 5,3,-1
 217.400390625 38.400390625 l 5,4,-1
 217.400390625 243.83984375 l 5,5,-1
 148.759765625 243.83984375 l 5,6,-1
 148.759765625 312.479492188 l 5,7,-1
 80.1201171875 312.479492188 l 5,8,-1
 80.1201171875 516.958984375 l 5,9,-1
 147.799804688 516.958984375 l 5,10,-1
 147.799804688 311.51953125 l 5,11,-1
 354.200195312 311.51953125 l 5,12,-1
 354.200195312 516.958984375 l 5,13,-1
 421.879882812 516.958984375 l 5,14,-1
 421.879882812 312.479492188 l 5,15,-1
 353.240234375 312.479492188 l 5,0,-1
460.279296875 274.080078125 m 5,16,-1
 460.279296875 507.359375 l 5,17,-1
 436.279296875 507.359375 l 5,18,-1
 436.279296875 531.359375 l 5,19,-1
 339.799804688 531.359375 l 5,20,-1
 339.799804688 325.919921875 l 5,21,-1
 186.200195312 325.919921875 l 5,22,-1
 186.200195312 507.359375 l 5,23,-1
 162.200195312 507.359375 l 5,24,-1
 162.200195312 531.359375 l 5,25,-1
 65.720703125 531.359375 l 5,26,-1
 65.720703125 298.080078125 l 5,27,-1
 89.720703125 298.080078125 l 5,28,-1
 89.720703125 274.080078125 l 5,29,-1
 134.360351562 274.080078125 l 5,30,-1
 134.360351562 229.439453125 l 5,31,-1
 158.360351562 229.439453125 l 5,32,-1
 158.360351562 205.439453125 l 5,33,-1
 203 205.439453125 l 5,34,-1
 203 24 l 5,35,-1
 227 24 l 5,36,-1
 227 0 l 5,37,-1
 323 0 l 5,38,-1
 323 205.439453125 l 5,39,-1
 391.639648438 205.439453125 l 5,40,-1
 391.639648438 274.080078125 l 5,41,-1
 460.279296875 274.080078125 l 5,16,-1
EndSplineSet
EndChar

StartChar: Z
Encoding: 90 90 60
Width: 492
VWidth: 636
GlyphClass: 1
Flags: W
LayerCount: 2
Fore
SplineSet
352.51953125 380.639648438 m 5,0,-1
 352.51953125 312.479492188 l 5,1,-1
 283.87890625 312.479492188 l 5,2,-1
 283.87890625 243.83984375 l 5,3,-1
 215.71875 243.83984375 l 5,4,-1
 215.71875 175.200195312 l 5,5,-1
 147.079101562 175.200195312 l 5,6,-1
 147.079101562 106.080078125 l 5,7,-1
 421.159179688 106.080078125 l 5,8,-1
 421.159179688 38.400390625 l 5,9,-1
 79.3994140625 38.400390625 l 5,10,-1
 79.3994140625 174.240234375 l 5,11,-1
 148.0390625 174.240234375 l 5,12,-1
 148.0390625 242.879882812 l 5,13,-1
 216.6796875 242.879882812 l 5,14,-1
 216.6796875 311.51953125 l 5,15,-1
 285.319335938 311.51953125 l 5,16,-1
 285.319335938 379.6796875 l 5,17,-1
 353.479492188 379.6796875 l 5,18,-1
 353.479492188 449.279296875 l 5,19,-1
 79.3994140625 449.279296875 l 5,20,-1
 79.3994140625 516.958984375 l 5,21,-1
 421.159179688 516.958984375 l 5,22,-1
 421.159179688 380.639648438 l 5,23,-1
 352.51953125 380.639648438 l 5,0,-1
459.55859375 342.240234375 m 5,24,-1
 459.55859375 507.359375 l 5,25,-1
 435.55859375 507.359375 l 5,26,-1
 435.55859375 531.359375 l 5,27,-1
 65 531.359375 l 5,28,-1
 65 434.879882812 l 5,29,-1
 89 434.879882812 l 5,30,-1
 89 410.879882812 l 5,31,-1
 339.079101562 410.879882812 l 5,32,-1
 339.079101562 394.080078125 l 5,33,-1
 270.918945312 394.080078125 l 5,34,-1
 270.918945312 325.919921875 l 5,35,-1
 202.279296875 325.919921875 l 5,36,-1
 202.279296875 257.279296875 l 5,37,-1
 133.639648438 257.279296875 l 5,38,-1
 133.639648438 188.639648438 l 5,39,-1
 65 188.639648438 l 5,40,-1
 65 24 l 5,41,-1
 89 24 l 5,42,-1
 89 0 l 5,43,-1
 459.55859375 0 l 5,44,-1
 459.55859375 96.4794921875 l 5,45,-1
 435.55859375 96.4794921875 l 5,46,-1
 435.55859375 120.479492188 l 5,47,-1
 185.479492188 120.479492188 l 5,48,-1
 185.479492188 136.799804688 l 5,49,-1
 254.119140625 136.799804688 l 5,50,-1
 254.119140625 205.439453125 l 5,51,-1
 322.279296875 205.439453125 l 5,52,-1
 322.279296875 274.080078125 l 5,53,-1
 390.918945312 274.080078125 l 5,54,-1
 390.918945312 342.240234375 l 5,55,-1
 459.55859375 342.240234375 l 5,24,-1
EndSplineSet
EndChar

StartChar: bracketleft
Encoding: 91 91 61
Width: 258
VWidth: 636
GlyphClass: 1
Flags: W
LayerCount: 2
Fore
SplineSet
54.0400390625 38.8203125 m 1,0,-1
 54.0400390625 517.37890625 l 1,1,-1
 190.360351562 517.37890625 l 1,2,-1
 190.360351562 449.69921875 l 1,3,-1
 121.720703125 449.69921875 l 1,4,-1
 121.720703125 106.5 l 1,5,-1
 190.360351562 106.5 l 1,6,-1
 190.360351562 38.8203125 l 1,7,-1
 54.0400390625 38.8203125 l 1,0,-1
228.760742188 0.419921875 m 1,8,-1
 228.760742188 96.8994140625 l 1,9,-1
 204.760742188 96.8994140625 l 1,10,-1
 204.760742188 120.899414062 l 1,11,-1
 160.120117188 120.899414062 l 1,12,-1
 160.120117188 411.299804688 l 1,13,-1
 228.760742188 411.299804688 l 1,14,-1
 228.760742188 507.779296875 l 1,15,-1
 204.760742188 507.779296875 l 1,16,-1
 204.760742188 531.779296875 l 1,17,-1
 39.6396484375 531.779296875 l 1,18,-1
 39.6396484375 24.419921875 l 1,19,-1
 63.6396484375 24.419921875 l 1,20,-1
 63.6396484375 0.419921875 l 1,21,-1
 228.760742188 0.419921875 l 1,8,-1
EndSplineSet
EndChar

StartChar: backslash
Encoding: 92 92 62
Width: 347
VWidth: 605
GlyphClass: 1
Flags: W
LayerCount: 2
Fore
SplineSet
199.399414062 38.400390625 m 5,0,-1
 199.399414062 175.200195312 l 5,1,-1
 130.759765625 175.200195312 l 5,2,-1
 130.759765625 312.48046875 l 5,3,-1
 62.1201171875 312.48046875 l 5,4,-1
 62.1201171875 448.3203125 l 5,5,-1
 129.799804688 448.3203125 l 5,6,-1
 129.799804688 311.040039062 l 5,7,-1
 198.439453125 311.040039062 l 5,8,-1
 198.439453125 174.240234375 l 5,9,-1
 267.079101562 174.240234375 l 5,10,-1
 267.079101562 38.400390625 l 5,11,-1
 199.399414062 38.400390625 l 5,0,-1
305.479492188 0 m 5,12,-1
 305.479492188 164.639648438 l 5,13,-1
 281.479492188 164.639648438 l 5,14,-1
 281.479492188 188.639648438 l 5,15,-1
 236.83984375 188.639648438 l 5,16,-1
 236.83984375 301.440429688 l 5,17,-1
 212.83984375 301.440429688 l 5,18,-1
 212.83984375 325.440429688 l 5,19,-1
 168.19921875 325.440429688 l 5,20,-1
 168.19921875 438.720703125 l 5,21,-1
 144.19921875 438.720703125 l 5,22,-1
 144.19921875 462.720703125 l 5,23,-1
 47.7197265625 462.720703125 l 5,24,-1
 47.7197265625 298.081054688 l 5,25,-1
 71.7197265625 298.081054688 l 5,26,-1
 71.7197265625 274.081054688 l 5,27,-1
 116.359375 274.081054688 l 5,28,-1
 116.359375 160.799804688 l 5,29,-1
 140.359375 160.799804688 l 5,30,-1
 140.359375 136.799804688 l 5,31,-1
 185 136.799804688 l 5,32,-1
 185 24 l 5,33,-1
 209 24 l 5,34,-1
 209 0 l 5,35,-1
 305.479492188 0 l 5,12,-1
EndSplineSet
EndChar

StartChar: bracketright
Encoding: 93 93 63
Width: 258
VWidth: 636
GlyphClass: 1
Flags: W
LayerCount: 2
Fore
SplineSet
54.0400390625 38.8203125 m 1,0,-1
 54.0400390625 106.5 l 1,1,-1
 122.6796875 106.5 l 1,2,-1
 122.6796875 449.69921875 l 1,3,-1
 54.0400390625 449.69921875 l 1,4,-1
 54.0400390625 517.37890625 l 1,5,-1
 190.360351562 517.37890625 l 1,6,-1
 190.360351562 38.8203125 l 1,7,-1
 54.0400390625 38.8203125 l 1,0,-1
228.760742188 0.419921875 m 1,8,-1
 228.760742188 507.779296875 l 1,9,-1
 204.760742188 507.779296875 l 1,10,-1
 204.760742188 531.779296875 l 1,11,-1
 39.6396484375 531.779296875 l 1,12,-1
 39.6396484375 435.299804688 l 1,13,-1
 63.6396484375 435.299804688 l 1,14,-1
 63.6396484375 411.299804688 l 1,15,-1
 108.280273438 411.299804688 l 1,16,-1
 108.280273438 120.899414062 l 1,17,-1
 39.6396484375 120.899414062 l 1,18,-1
 39.6396484375 24.419921875 l 1,19,-1
 63.6396484375 24.419921875 l 1,20,-1
 63.6396484375 0.419921875 l 1,21,-1
 228.760742188 0.419921875 l 1,8,-1
EndSplineSet
EndChar

StartChar: a
Encoding: 97 97 64
Width: 492
VWidth: 866
GlyphClass: 1
Flags: W
LayerCount: 2
Fore
SplineSet
352.600585938 448.319335938 m 1,0,-1
 148.120117188 448.319335938 l 1,1,-1
 148.120117188 312.479492188 l 1,2,-1
 352.600585938 312.479492188 l 1,3,-1
 352.600585938 448.319335938 l 1,0,-1
352.120117188 38.400390625 m 1,4,-1
 352.120117188 243.83984375 l 1,5,-1
 148.600585938 243.83984375 l 1,6,-1
 148.600585938 38.400390625 l 1,7,-1
 79.48046875 38.400390625 l 1,8,-1
 79.48046875 448.319335938 l 1,9,-1
 146.200195312 448.319335938 l 1,10,-1
 146.200195312 516.958984375 l 1,11,-1
 354.520507812 516.958984375 l 1,12,-1
 354.520507812 448.319335938 l 1,13,-1
 421.240234375 448.319335938 l 1,14,-1
 421.240234375 38.400390625 l 1,15,-1
 352.120117188 38.400390625 l 1,4,-1
459.639648438 0 m 1,16,-1
 459.639648438 438.719726562 l 5,17,-1
 435.639648438 438.719726562 l 1,18,-1
 435.639648438 462.719726562 l 1,19,-1
 392.920898438 462.719726562 l 1,20,-1
 392.920898438 507.359375 l 1,21,-1
 368.920898438 507.359375 l 1,22,-1
 368.920898438 531.359375 l 1,23,-1
 131.799804688 531.359375 l 1,24,-1
 131.799804688 462.719726562 l 1,25,-1
 65.0810546875 462.719726562 l 1,26,-1
 65.0810546875 24 l 1,27,-1
 89.0810546875 24 l 1,28,-1
 89.0810546875 0 l 1,29,-1
 187 0 l 1,30,-1
 187 205.439453125 l 1,31,-1
 337.720703125 205.439453125 l 1,32,-1
 337.720703125 24 l 1,33,-1
 361.720703125 24 l 1,34,-1
 361.720703125 0 l 1,35,-1
 459.639648438 0 l 1,16,-1
186.520507812 409.919921875 m 1,36,-1
 338.200195312 409.919921875 l 1,37,-1
 338.200195312 326.879882812 l 1,38,-1
 186.520507812 326.879882812 l 1,39,-1
 186.520507812 409.919921875 l 1,36,-1
EndSplineSet
EndChar

StartChar: b
Encoding: 98 98 65
Width: 492
VWidth: 636
GlyphClass: 1
Flags: W
LayerCount: 2
Fore
SplineSet
352.51953125 242.879882812 m 5,0,-1
 148.0390625 242.879882812 l 5,1,-1
 148.0390625 107.040039062 l 5,2,-1
 352.51953125 107.040039062 l 5,3,-1
 352.51953125 242.879882812 l 5,0,-1
352.51953125 448.319335938 m 5,4,-1
 148.0390625 448.319335938 l 5,5,-1
 148.0390625 312.479492188 l 5,6,-1
 352.51953125 312.479492188 l 5,7,-1
 352.51953125 448.319335938 l 5,4,-1
352.51953125 107.040039062 m 5,8,-1
 352.51953125 38.400390625 l 5,9,-1
 79.3994140625 38.400390625 l 5,10,-1
 79.3994140625 516.958984375 l 5,11,-1
 352.51953125 516.958984375 l 5,12,-1
 352.51953125 448.319335938 l 5,13,-1
 421.159179688 448.319335938 l 5,14,-1
 421.159179688 312.479492188 l 5,15,-1
 352.51953125 312.479492188 l 5,16,-1
 352.51953125 242.879882812 l 5,17,-1
 421.159179688 242.879882812 l 5,18,-1
 421.159179688 107.040039062 l 5,19,-1
 352.51953125 107.040039062 l 5,8,-1
459.55859375 68.6396484375 m 5,20,-1
 459.55859375 233.279296875 l 5,21,-1
 435.55859375 233.279296875 l 5,22,-1
 435.55859375 257.279296875 l 5,23,-1
 390.918945312 257.279296875 l 5,24,-1
 390.918945312 274.080078125 l 5,25,-1
 459.55859375 274.080078125 l 5,26,-1
 459.55859375 438.719726562 l 5,27,-1
 435.55859375 438.719726562 l 5,28,-1
 435.55859375 462.719726562 l 5,29,-1
 390.918945312 462.719726562 l 5,30,-1
 390.918945312 507.359375 l 5,31,-1
 366.918945312 507.359375 l 5,32,-1
 366.918945312 531.359375 l 5,33,-1
 65 531.359375 l 5,34,-1
 65 24 l 5,35,-1
 89 24 l 5,36,-1
 89 0 l 5,37,-1
 390.918945312 0 l 5,38,-1
 390.918945312 68.6396484375 l 5,39,-1
 459.55859375 68.6396484375 l 5,20,-1
186.439453125 204.479492188 m 5,40,-1
 338.119140625 204.479492188 l 5,41,-1
 338.119140625 121.439453125 l 5,42,-1
 186.439453125 121.439453125 l 5,43,-1
 186.439453125 204.479492188 l 5,40,-1
186.439453125 409.919921875 m 5,44,-1
 338.119140625 409.919921875 l 5,45,-1
 338.119140625 326.879882812 l 5,46,-1
 186.439453125 326.879882812 l 5,47,-1
 186.439453125 409.919921875 l 5,44,-1
EndSplineSet
EndChar

StartChar: c
Encoding: 99 99 66
Width: 492
VWidth: 636
GlyphClass: 1
Flags: W
LayerCount: 2
Fore
SplineSet
353.83984375 380.639648438 m 5,0,-1
 353.83984375 449.279296875 l 5,1,-1
 147.439453125 449.279296875 l 5,2,-1
 147.439453125 106.080078125 l 5,3,-1
 352.399414062 106.080078125 l 5,4,-1
 352.399414062 174.240234375 l 5,5,-1
 421.51953125 174.240234375 l 5,6,-1
 421.51953125 107.040039062 l 5,7,-1
 352.879882812 107.040039062 l 5,8,-1
 352.879882812 38.400390625 l 5,9,-1
 148.399414062 38.400390625 l 5,10,-1
 148.399414062 107.040039062 l 5,11,-1
 79.759765625 107.040039062 l 5,12,-1
 79.759765625 448.319335938 l 5,13,-1
 148.399414062 448.319335938 l 5,14,-1
 148.399414062 516.958984375 l 5,15,-1
 354.799804688 516.958984375 l 5,16,-1
 354.799804688 448.319335938 l 5,17,-1
 421.51953125 448.319335938 l 5,18,-1
 421.51953125 380.639648438 l 5,19,-1
 353.83984375 380.639648438 l 5,0,-1
459.918945312 342.240234375 m 5,20,-1
 459.918945312 438.719726562 l 5,21,-1
 435.918945312 438.719726562 l 5,22,-1
 435.918945312 462.719726562 l 5,23,-1
 393.200195312 462.719726562 l 5,24,-1
 393.200195312 507.359375 l 5,25,-1
 369.200195312 507.359375 l 5,26,-1
 369.200195312 531.359375 l 5,27,-1
 134 531.359375 l 5,28,-1
 134 462.719726562 l 5,29,-1
 65.3603515625 462.719726562 l 5,30,-1
 65.5205078125 92.6396484375 l 5,31,-1
 89.3603515625 92.6396484375 l 5,32,-1
 89.3603515625 68.6396484375 l 5,33,-1
 134 68.6396484375 l 5,34,-1
 134 24 l 5,35,-1
 158 24 l 5,36,-1
 158 0 l 5,37,-1
 391.279296875 0 l 5,38,-1
 391.279296875 68.6396484375 l 5,39,-1
 459.918945312 68.6396484375 l 5,40,-1
 459.918945312 164.639648438 l 5,41,-1
 435.918945312 164.639648438 l 5,42,-1
 435.918945312 188.639648438 l 5,43,-1
 338 188.639648438 l 5,44,-1
 338 120.479492188 l 5,45,-1
 185.83984375 120.479492188 l 5,46,-1
 185.83984375 410.879882812 l 5,47,-1
 339.439453125 410.879882812 l 5,48,-1
 339.439453125 366.240234375 l 5,49,-1
 363.439453125 366.240234375 l 5,50,-1
 363.439453125 342.240234375 l 5,51,-1
 459.918945312 342.240234375 l 5,20,-1
EndSplineSet
EndChar

StartChar: d
Encoding: 100 100 67
Width: 492
VWidth: 636
GlyphClass: 1
Flags: W
LayerCount: 2
Fore
SplineSet
352.51953125 448.319335938 m 5,0,-1
 148.0390625 448.319335938 l 5,1,-1
 148.0390625 107.040039062 l 5,2,-1
 352.51953125 107.040039062 l 5,3,-1
 352.51953125 448.319335938 l 5,0,-1
352.51953125 107.040039062 m 5,4,-1
 352.51953125 38.400390625 l 5,5,-1
 79.3994140625 38.400390625 l 5,6,-1
 79.3994140625 516.958984375 l 5,7,-1
 352.51953125 516.958984375 l 5,8,-1
 352.51953125 448.319335938 l 5,9,-1
 421.159179688 448.319335938 l 5,10,-1
 421.159179688 107.040039062 l 5,11,-1
 352.51953125 107.040039062 l 5,4,-1
459.55859375 68.6396484375 m 5,12,-1
 459.55859375 438.719726562 l 5,13,-1
 435.55859375 438.719726562 l 5,14,-1
 435.55859375 462.719726562 l 5,15,-1
 390.918945312 462.719726562 l 5,16,-1
 390.918945312 507.359375 l 5,17,-1
 366.918945312 507.359375 l 5,18,-1
 366.918945312 531.359375 l 5,19,-1
 65 531.359375 l 5,20,-1
 65 24 l 5,21,-1
 89 24 l 5,22,-1
 89 0 l 5,23,-1
 390.918945312 0 l 5,24,-1
 390.918945312 68.6396484375 l 5,25,-1
 459.55859375 68.6396484375 l 5,12,-1
186.439453125 409.919921875 m 5,26,-1
 338.119140625 409.919921875 l 5,27,-1
 338.119140625 121.439453125 l 5,28,-1
 186.439453125 121.439453125 l 5,29,-1
 186.439453125 409.919921875 l 5,26,-1
EndSplineSet
EndChar

StartChar: e
Encoding: 101 101 68
Width: 492
VWidth: 636
GlyphClass: 1
Flags: W
LayerCount: 2
Fore
SplineSet
79.3994140625 38.400390625 m 5,0,-1
 79.3994140625 516.958984375 l 5,1,-1
 421.159179688 516.958984375 l 5,2,-1
 421.159179688 449.279296875 l 5,3,-1
 147.079101562 449.279296875 l 5,4,-1
 147.079101562 311.040039062 l 5,5,-1
 284.359375 311.040039062 l 5,6,-1
 284.359375 243.83984375 l 5,7,-1
 147.079101562 243.83984375 l 5,8,-1
 147.079101562 106.080078125 l 5,9,-1
 421.159179688 106.080078125 l 5,10,-1
 421.159179688 38.400390625 l 5,11,-1
 79.3994140625 38.400390625 l 5,0,-1
459.55859375 0 m 5,12,-1
 459.55859375 96.4794921875 l 5,13,-1
 435.55859375 96.4794921875 l 5,14,-1
 435.55859375 120.479492188 l 5,15,-1
 185.479492188 120.479492188 l 5,16,-1
 185.479492188 205.439453125 l 5,17,-1
 322.758789062 205.439453125 l 5,18,-1
 322.758789062 301.439453125 l 5,19,-1
 298.758789062 301.439453125 l 5,20,-1
 298.758789062 325.439453125 l 5,21,-1
 185.479492188 325.439453125 l 5,22,-1
 185.479492188 410.879882812 l 5,23,-1
 459.55859375 410.879882812 l 5,24,-1
 459.55859375 507.359375 l 5,25,-1
 435.55859375 507.359375 l 5,26,-1
 435.55859375 531.359375 l 5,27,-1
 65 531.359375 l 5,28,-1
 65 24 l 5,29,-1
 89 24 l 5,30,-1
 89 0 l 5,31,-1
 459.55859375 0 l 5,12,-1
EndSplineSet
EndChar

StartChar: f
Encoding: 102 102 69
Width: 492
VWidth: 636
GlyphClass: 1
Flags: W
LayerCount: 2
Fore
SplineSet
147.079101562 449.279296875 m 5,0,-1
 147.079101562 311.040039062 l 5,1,-1
 284.359375 311.040039062 l 5,2,-1
 284.359375 243.83984375 l 5,3,-1
 147.079101562 243.83984375 l 5,4,-1
 147.079101562 38.400390625 l 5,5,-1
 79.3994140625 38.400390625 l 5,6,-1
 79.3994140625 516.958984375 l 5,7,-1
 421.159179688 516.958984375 l 5,8,-1
 421.159179688 449.279296875 l 5,9,-1
 147.079101562 449.279296875 l 5,0,-1
459.55859375 410.879882812 m 5,10,-1
 459.55859375 507.359375 l 5,11,-1
 435.55859375 507.359375 l 5,12,-1
 435.55859375 531.359375 l 5,13,-1
 65 531.359375 l 5,14,-1
 65 24 l 5,15,-1
 89 24 l 5,16,-1
 89 0 l 5,17,-1
 185.479492188 0 l 5,18,-1
 185.479492188 205.439453125 l 5,19,-1
 322.758789062 205.439453125 l 5,20,-1
 322.758789062 301.439453125 l 5,21,-1
 298.758789062 301.439453125 l 5,22,-1
 298.758789062 325.439453125 l 5,23,-1
 185.479492188 325.439453125 l 5,24,-1
 185.479492188 410.879882812 l 5,25,-1
 459.55859375 410.879882812 l 5,10,-1
EndSplineSet
EndChar

StartChar: g
Encoding: 103 103 70
Width: 492
VWidth: 636
GlyphClass: 1
Flags: W
LayerCount: 2
Fore
SplineSet
149.399414062 38.400390625 m 5,0,-1
 149.399414062 107.040039062 l 5,1,-1
 80.759765625 107.040039062 l 5,2,-1
 80.759765625 448.319335938 l 5,3,-1
 149.399414062 448.319335938 l 5,4,-1
 149.399414062 516.958984375 l 5,5,-1
 355.799804688 516.958984375 l 5,6,-1
 355.799804688 448.319335938 l 5,7,-1
 422.51953125 448.319335938 l 5,8,-1
 422.51953125 380.639648438 l 5,9,-1
 354.83984375 380.639648438 l 5,10,-1
 354.83984375 449.279296875 l 5,11,-1
 148.439453125 449.279296875 l 5,12,-1
 148.439453125 106.080078125 l 5,13,-1
 353.399414062 106.080078125 l 5,14,-1
 353.399414062 243.83984375 l 5,15,-1
 218.040039062 243.83984375 l 5,16,-1
 218.040039062 311.51953125 l 5,17,-1
 422.51953125 311.51953125 l 5,18,-1
 422.51953125 38.400390625 l 5,19,-1
 149.399414062 38.400390625 l 5,0,-1
460.918945312 0 m 5,20,-1
 460.918945312 301.919921875 l 5,21,-1
 436.918945312 301.919921875 l 5,22,-1
 436.918945312 325.919921875 l 5,23,-1
 203.639648438 325.919921875 l 5,24,-1
 203.639648438 229.439453125 l 5,25,-1
 227.639648438 229.439453125 l 5,26,-1
 227.639648438 205.439453125 l 5,27,-1
 339 205.439453125 l 5,28,-1
 339 120.479492188 l 5,29,-1
 186.83984375 120.479492188 l 5,30,-1
 186.83984375 410.879882812 l 5,31,-1
 340.439453125 410.879882812 l 5,32,-1
 340.439453125 366.240234375 l 5,33,-1
 364.439453125 366.240234375 l 5,34,-1
 364.439453125 342.240234375 l 5,35,-1
 460.918945312 342.240234375 l 5,36,-1
 460.918945312 438.719726562 l 5,37,-1
 436.918945312 438.719726562 l 5,38,-1
 436.918945312 462.719726562 l 5,39,-1
 394.200195312 462.719726562 l 5,40,-1
 394.200195312 507.359375 l 5,41,-1
 370.200195312 507.359375 l 5,42,-1
 370.200195312 531.359375 l 5,43,-1
 135 531.359375 l 5,44,-1
 135 462.719726562 l 5,45,-1
 66.3603515625 462.719726562 l 5,46,-1
 66.3603515625 92.6396484375 l 5,47,-1
 90.3603515625 92.6396484375 l 5,48,-1
 90.3603515625 68.6396484375 l 5,49,-1
 135 68.6396484375 l 5,50,-1
 135 24 l 5,51,-1
 159 24 l 5,52,-1
 159 0 l 5,53,-1
 460.918945312 0 l 5,20,-1
EndSplineSet
EndChar

StartChar: h
Encoding: 104 104 71
Width: 492
VWidth: 636
GlyphClass: 1
Flags: W
LayerCount: 2
Fore
SplineSet
353.479492188 38.400390625 m 5,0,-1
 353.479492188 243.83984375 l 5,1,-1
 147.079101562 243.83984375 l 5,2,-1
 147.079101562 38.400390625 l 5,3,-1
 79.3994140625 38.400390625 l 5,4,-1
 79.3994140625 516.958984375 l 5,5,-1
 147.079101562 516.958984375 l 5,6,-1
 147.079101562 311.51953125 l 5,7,-1
 353.479492188 311.51953125 l 5,8,-1
 353.479492188 516.958984375 l 5,9,-1
 421.159179688 516.958984375 l 5,10,-1
 421.159179688 38.400390625 l 5,11,-1
 353.479492188 38.400390625 l 5,0,-1
459.55859375 0 m 5,12,-1
 459.55859375 507.359375 l 5,13,-1
 435.55859375 507.359375 l 5,14,-1
 435.55859375 531.359375 l 5,15,-1
 339.079101562 531.359375 l 5,16,-1
 339.079101562 325.919921875 l 5,17,-1
 185.479492188 325.919921875 l 5,18,-1
 185.479492188 507.359375 l 5,19,-1
 161.479492188 507.359375 l 5,20,-1
 161.479492188 531.359375 l 5,21,-1
 65 531.359375 l 5,22,-1
 65 24 l 5,23,-1
 89 24 l 5,24,-1
 89 0 l 5,25,-1
 185.479492188 0 l 5,26,-1
 185.479492188 205.439453125 l 5,27,-1
 339.079101562 205.439453125 l 5,28,-1
 339.079101562 24 l 5,29,-1
 363.079101562 24 l 5,30,-1
 363.079101562 0 l 5,31,-1
 459.55859375 0 l 5,12,-1
EndSplineSet
EndChar

StartChar: i
Encoding: 105 105 72
Width: 347
VWidth: 636
GlyphClass: 1
Flags: W
LayerCount: 2
Fore
SplineSet
62.400390625 38.400390625 m 5,0,-1
 62.400390625 106.080078125 l 5,1,-1
 131.040039062 106.080078125 l 5,2,-1
 131.040039062 449.279296875 l 5,3,-1
 62.400390625 449.279296875 l 5,4,-1
 62.400390625 516.958984375 l 5,5,-1
 267.359375 516.958984375 l 5,6,-1
 267.359375 449.279296875 l 5,7,-1
 198.719726562 449.279296875 l 5,8,-1
 198.719726562 106.080078125 l 5,9,-1
 267.359375 106.080078125 l 5,10,-1
 267.359375 38.400390625 l 5,11,-1
 62.400390625 38.400390625 l 5,0,-1
305.759765625 0 m 5,12,-1
 305.759765625 96.4794921875 l 5,13,-1
 281.759765625 96.4794921875 l 5,14,-1
 281.759765625 120.479492188 l 5,15,-1
 237.120117188 120.479492188 l 5,16,-1
 237.120117188 410.879882812 l 5,17,-1
 305.759765625 410.879882812 l 5,18,-1
 305.759765625 507.359375 l 5,19,-1
 281.759765625 507.359375 l 5,20,-1
 281.759765625 531.359375 l 5,21,-1
 48 531.359375 l 5,22,-1
 48 434.879882812 l 5,23,-1
 72 434.879882812 l 5,24,-1
 72 410.879882812 l 5,25,-1
 116.639648438 410.879882812 l 5,26,-1
 116.639648438 120.479492188 l 5,27,-1
 48 120.479492188 l 5,28,-1
 48 24 l 5,29,-1
 72 24 l 5,30,-1
 72 0 l 5,31,-1
 305.759765625 0 l 5,12,-1
EndSplineSet
EndChar

StartChar: j
Encoding: 106 106 73
Width: 492
VWidth: 636
GlyphClass: 1
Flags: W
LayerCount: 2
Fore
SplineSet
352.879882812 107.040039062 m 5,0,-1
 352.879882812 38.400390625 l 5,1,-1
 148.399414062 38.400390625 l 5,2,-1
 148.399414062 107.040039062 l 5,3,-1
 79.759765625 107.040039062 l 5,4,-1
 79.759765625 242.879882812 l 5,5,-1
 147.439453125 242.879882812 l 5,6,-1
 147.439453125 106.080078125 l 5,7,-1
 353.83984375 106.080078125 l 5,8,-1
 353.83984375 516.958984375 l 5,9,-1
 421.51953125 516.958984375 l 5,10,-1
 421.51953125 107.040039062 l 5,11,-1
 352.879882812 107.040039062 l 5,0,-1
459.918945312 68.6396484375 m 5,12,-1
 459.918945312 507.359375 l 5,13,-1
 435.918945312 507.359375 l 5,14,-1
 435.918945312 531.359375 l 5,15,-1
 339.439453125 531.359375 l 5,16,-1
 339.439453125 120.479492188 l 5,17,-1
 185.83984375 120.479492188 l 5,18,-1
 185.83984375 233.279296875 l 5,19,-1
 161.83984375 233.279296875 l 5,20,-1
 161.83984375 257.279296875 l 5,21,-1
 65.3603515625 257.279296875 l 5,22,-1
 65.3603515625 92.6396484375 l 5,23,-1
 89.3603515625 92.6396484375 l 5,24,-1
 89.3603515625 68.6396484375 l 5,25,-1
 134 68.6396484375 l 5,26,-1
 134 24 l 5,27,-1
 158 24 l 5,28,-1
 158 0 l 5,29,-1
 391.279296875 0 l 5,30,-1
 391.279296875 68.6396484375 l 5,31,-1
 459.918945312 68.6396484375 l 5,12,-1
EndSplineSet
EndChar

StartChar: k
Encoding: 107 107 74
Width: 492
VWidth: 636
GlyphClass: 1
Flags: W
LayerCount: 2
Fore
SplineSet
354 38.400390625 m 5,0,-1
 354 175.200195312 l 5,1,-1
 285.83984375 175.200195312 l 5,2,-1
 285.83984375 243.83984375 l 5,3,-1
 147.599609375 243.83984375 l 5,4,-1
 147.599609375 38.400390625 l 5,5,-1
 79.919921875 38.400390625 l 5,6,-1
 79.919921875 516.958984375 l 5,7,-1
 147.599609375 516.958984375 l 5,8,-1
 147.599609375 311.51953125 l 5,9,-1
 285.83984375 311.51953125 l 5,10,-1
 285.83984375 379.6796875 l 5,11,-1
 352.559570312 379.6796875 l 5,12,-1
 352.559570312 516.958984375 l 5,13,-1
 421.6796875 516.958984375 l 5,14,-1
 421.6796875 380.639648438 l 5,15,-1
 353.040039062 380.639648438 l 5,16,-1
 353.040039062 312.479492188 l 5,17,-1
 284.879882812 312.479492188 l 5,18,-1
 284.879882812 242.879882812 l 5,19,-1
 354.959960938 242.879882812 l 5,20,-1
 354.959960938 174.240234375 l 5,21,-1
 421.6796875 174.240234375 l 5,22,-1
 421.6796875 38.400390625 l 5,23,-1
 354 38.400390625 l 5,0,-1
460.079101562 0 m 5,24,-1
 460.079101562 164.639648438 l 5,25,-1
 436.079101562 164.639648438 l 5,26,-1
 436.079101562 188.639648438 l 5,27,-1
 393.360351562 188.639648438 l 5,28,-1
 393.360351562 233.279296875 l 5,29,-1
 369.360351562 233.279296875 l 5,30,-1
 369.360351562 257.279296875 l 5,31,-1
 323.279296875 257.279296875 l 5,32,-1
 323.279296875 274.080078125 l 5,33,-1
 391.439453125 274.080078125 l 5,34,-1
 391.439453125 342.240234375 l 5,35,-1
 460.079101562 342.240234375 l 5,36,-1
 460.079101562 507.359375 l 5,37,-1
 436.079101562 507.359375 l 5,38,-1
 436.079101562 531.359375 l 5,39,-1
 338.16015625 531.359375 l 5,40,-1
 338.16015625 394.080078125 l 5,41,-1
 271.439453125 394.080078125 l 5,42,-1
 271.439453125 325.919921875 l 5,43,-1
 186 325.919921875 l 5,44,-1
 186 507.359375 l 5,45,-1
 162 507.359375 l 5,46,-1
 162 531.359375 l 5,47,-1
 65.5205078125 531.359375 l 5,48,-1
 65.5205078125 24 l 5,49,-1
 89.5205078125 24 l 5,50,-1
 89.5205078125 0 l 5,51,-1
 186 0 l 5,52,-1
 186 205.439453125 l 5,53,-1
 271.439453125 205.439453125 l 5,54,-1
 271.439453125 160.799804688 l 5,55,-1
 295.439453125 160.799804688 l 5,56,-1
 295.439453125 136.799804688 l 5,57,-1
 339.599609375 136.799804688 l 5,58,-1
 339.599609375 24 l 5,59,-1
 363.599609375 24 l 5,60,-1
 363.599609375 0 l 5,61,-1
 460.079101562 0 l 5,24,-1
EndSplineSet
EndChar

StartChar: l
Encoding: 108 108 75
Width: 492
VWidth: 636
GlyphClass: 1
Flags: W
LayerCount: 2
Fore
SplineSet
79.3994140625 38.400390625 m 5,0,-1
 79.3994140625 516.958984375 l 5,1,-1
 147.079101562 516.958984375 l 5,2,-1
 147.079101562 106.080078125 l 5,3,-1
 421.159179688 106.080078125 l 5,4,-1
 421.159179688 38.400390625 l 5,5,-1
 79.3994140625 38.400390625 l 5,0,-1
459.55859375 0 m 5,6,-1
 459.55859375 96.4794921875 l 5,7,-1
 435.55859375 96.4794921875 l 5,8,-1
 435.55859375 120.479492188 l 5,9,-1
 185.479492188 120.479492188 l 5,10,-1
 185.479492188 507.359375 l 5,11,-1
 161.479492188 507.359375 l 5,12,-1
 161.479492188 531.359375 l 5,13,-1
 65 531.359375 l 5,14,-1
 65 24 l 5,15,-1
 89 24 l 5,16,-1
 89 0 l 5,17,-1
 459.55859375 0 l 5,6,-1
EndSplineSet
EndChar

StartChar: m
Encoding: 109 109 76
Width: 492
VWidth: 636
GlyphClass: 1
Flags: W
LayerCount: 2
Fore
SplineSet
354 38.400390625 m 5,0,-1
 354 380.639648438 l 5,1,-1
 284.399414062 380.639648438 l 5,2,-1
 284.399414062 312.479492188 l 5,3,-1
 217.200195312 312.479492188 l 5,4,-1
 217.200195312 380.639648438 l 5,5,-1
 147.599609375 380.639648438 l 5,6,-1
 147.599609375 38.400390625 l 5,7,-1
 79.919921875 38.400390625 l 5,8,-1
 79.919921875 516.958984375 l 5,9,-1
 147.599609375 516.958984375 l 5,10,-1
 147.599609375 448.319335938 l 5,11,-1
 216.239257812 448.319335938 l 5,12,-1
 216.239257812 379.6796875 l 5,13,-1
 285.83984375 379.6796875 l 5,14,-1
 285.83984375 448.319335938 l 5,15,-1
 354 448.319335938 l 5,16,-1
 354 516.958984375 l 5,17,-1
 421.6796875 516.958984375 l 5,18,-1
 421.6796875 38.400390625 l 5,19,-1
 354 38.400390625 l 5,0,-1
460.079101562 0 m 5,20,-1
 460.079101562 507.359375 l 5,21,-1
 436.079101562 507.359375 l 5,22,-1
 436.079101562 531.359375 l 5,23,-1
 339.599609375 531.359375 l 5,24,-1
 339.599609375 462.719726562 l 5,25,-1
 271.439453125 462.719726562 l 5,26,-1
 271.439453125 394.080078125 l 5,27,-1
 254.639648438 394.080078125 l 5,28,-1
 254.639648438 438.719726562 l 5,29,-1
 230.639648438 438.719726562 l 5,30,-1
 230.639648438 462.719726562 l 5,31,-1
 186 462.719726562 l 5,32,-1
 186 507.359375 l 5,33,-1
 162 507.359375 l 5,34,-1
 162 531.359375 l 5,35,-1
 65.5205078125 531.359375 l 5,36,-1
 65.5205078125 24 l 5,37,-1
 89.5205078125 24 l 5,38,-1
 89.5205078125 0 l 5,39,-1
 186 0 l 5,40,-1
 186 342.240234375 l 5,41,-1
 202.799804688 342.240234375 l 5,42,-1
 202.799804688 298.080078125 l 5,43,-1
 226.799804688 298.080078125 l 5,44,-1
 226.799804688 274.080078125 l 5,45,-1
 322.799804688 274.080078125 l 5,46,-1
 322.799804688 342.240234375 l 5,47,-1
 339.599609375 342.240234375 l 5,48,-1
 339.599609375 24 l 5,49,-1
 363.599609375 24 l 5,50,-1
 363.599609375 0 l 5,51,-1
 460.079101562 0 l 5,20,-1
EndSplineSet
EndChar

StartChar: n
Encoding: 110 110 77
Width: 492
VWidth: 636
GlyphClass: 1
Flags: W
LayerCount: 2
Fore
SplineSet
354 38.400390625 m 5,0,-1
 354 243.83984375 l 5,1,-1
 285.83984375 243.83984375 l 5,2,-1
 285.83984375 312.479492188 l 5,3,-1
 217.200195312 312.479492188 l 5,4,-1
 217.200195312 380.639648438 l 5,5,-1
 147.599609375 380.639648438 l 5,6,-1
 147.599609375 38.400390625 l 5,7,-1
 79.919921875 38.400390625 l 5,8,-1
 79.919921875 516.958984375 l 5,9,-1
 147.599609375 516.958984375 l 5,10,-1
 147.599609375 448.319335938 l 5,11,-1
 216.239257812 448.319335938 l 5,12,-1
 216.239257812 379.6796875 l 5,13,-1
 284.879882812 379.6796875 l 5,14,-1
 284.879882812 311.51953125 l 5,15,-1
 354 311.51953125 l 5,16,-1
 354 516.958984375 l 5,17,-1
 421.6796875 516.958984375 l 5,18,-1
 421.6796875 38.400390625 l 5,19,-1
 354 38.400390625 l 5,0,-1
460.079101562 0 m 5,20,-1
 460.079101562 507.359375 l 5,21,-1
 436.079101562 507.359375 l 5,22,-1
 436.079101562 531.359375 l 5,23,-1
 339.599609375 531.359375 l 5,24,-1
 339.599609375 325.919921875 l 5,25,-1
 323.279296875 325.919921875 l 5,26,-1
 323.279296875 370.080078125 l 5,27,-1
 299.279296875 370.080078125 l 5,28,-1
 299.279296875 394.080078125 l 5,29,-1
 254.639648438 394.080078125 l 5,30,-1
 254.639648438 438.719726562 l 5,31,-1
 230.639648438 438.719726562 l 5,32,-1
 230.639648438 462.719726562 l 5,33,-1
 186 462.719726562 l 5,34,-1
 186 507.359375 l 5,35,-1
 162 507.359375 l 5,36,-1
 162 531.359375 l 5,37,-1
 65.5205078125 531.359375 l 5,38,-1
 65.5205078125 24 l 5,39,-1
 89.5205078125 24 l 5,40,-1
 89.5205078125 0 l 5,41,-1
 186 0 l 5,42,-1
 186 342.240234375 l 5,43,-1
 202.799804688 342.240234375 l 5,44,-1
 202.799804688 298.080078125 l 5,45,-1
 226.799804688 298.080078125 l 5,46,-1
 226.799804688 274.080078125 l 5,47,-1
 271.439453125 274.080078125 l 5,48,-1
 271.439453125 229.439453125 l 5,49,-1
 295.439453125 229.439453125 l 5,50,-1
 295.439453125 205.439453125 l 5,51,-1
 339.599609375 205.439453125 l 5,52,-1
 339.599609375 24 l 5,53,-1
 363.599609375 24 l 5,54,-1
 363.599609375 0 l 5,55,-1
 460.079101562 0 l 5,20,-1
EndSplineSet
EndChar

StartChar: o
Encoding: 111 111 78
Width: 492
VWidth: 636
GlyphClass: 1
Flags: W
LayerCount: 2
Fore
SplineSet
352.879882812 448.319335938 m 5,0,-1
 148.399414062 448.319335938 l 5,1,-1
 148.399414062 107.040039062 l 5,2,-1
 352.879882812 107.040039062 l 5,3,-1
 352.879882812 448.319335938 l 5,0,-1
352.879882812 107.040039062 m 5,4,-1
 352.879882812 38.400390625 l 5,5,-1
 148.399414062 38.400390625 l 5,6,-1
 148.399414062 107.040039062 l 5,7,-1
 79.759765625 107.040039062 l 5,8,-1
 79.759765625 448.319335938 l 5,9,-1
 148.399414062 448.319335938 l 5,10,-1
 148.399414062 516.958984375 l 5,11,-1
 352.879882812 516.958984375 l 5,12,-1
 352.879882812 448.319335938 l 5,13,-1
 421.51953125 448.319335938 l 5,14,-1
 421.51953125 107.040039062 l 5,15,-1
 352.879882812 107.040039062 l 5,4,-1
459.918945312 68.6396484375 m 5,16,-1
 459.918945312 438.719726562 l 5,17,-1
 435.918945312 438.719726562 l 5,18,-1
 435.918945312 462.719726562 l 5,19,-1
 391.279296875 462.719726562 l 5,20,-1
 391.279296875 507.359375 l 5,21,-1
 367.279296875 507.359375 l 5,22,-1
 367.279296875 531.359375 l 5,23,-1
 134 531.359375 l 5,24,-1
 134 462.719726562 l 5,25,-1
 65.3603515625 462.719726562 l 5,26,-1
 65.3603515625 92.6396484375 l 5,27,-1
 89.3603515625 92.6396484375 l 5,28,-1
 89.3603515625 68.6396484375 l 5,29,-1
 134 68.6396484375 l 5,30,-1
 134 24 l 5,31,-1
 158 24 l 5,32,-1
 158 0 l 5,33,-1
 391.279296875 0 l 5,34,-1
 391.279296875 68.6396484375 l 5,35,-1
 459.918945312 68.6396484375 l 5,16,-1
186.799804688 409.919921875 m 5,36,-1
 338.479492188 409.919921875 l 5,37,-1
 338.479492188 121.439453125 l 5,38,-1
 186.799804688 121.439453125 l 5,39,-1
 186.799804688 409.919921875 l 5,36,-1
EndSplineSet
EndChar

StartChar: p
Encoding: 112 112 79
Width: 492
VWidth: 636
GlyphClass: 1
Flags: W
LayerCount: 2
Fore
SplineSet
353.040039062 448.319335938 m 5,0,-1
 148.559570312 448.319335938 l 5,1,-1
 148.559570312 312.479492188 l 5,2,-1
 353.040039062 312.479492188 l 5,3,-1
 353.040039062 448.319335938 l 5,0,-1
353.040039062 312.479492188 m 5,4,-1
 353.040039062 243.83984375 l 5,5,-1
 147.599609375 243.83984375 l 5,6,-1
 147.599609375 38.400390625 l 5,7,-1
 79.919921875 38.400390625 l 5,8,-1
 79.919921875 516.958984375 l 5,9,-1
 353.040039062 516.958984375 l 5,10,-1
 353.040039062 448.319335938 l 5,11,-1
 421.6796875 448.319335938 l 5,12,-1
 421.6796875 312.479492188 l 5,13,-1
 353.040039062 312.479492188 l 5,4,-1
460.079101562 274.080078125 m 5,14,-1
 460.079101562 438.719726562 l 5,15,-1
 436.079101562 438.719726562 l 5,16,-1
 436.079101562 462.719726562 l 5,17,-1
 391.439453125 462.719726562 l 5,18,-1
 391.439453125 507.359375 l 5,19,-1
 367.439453125 507.359375 l 5,20,-1
 367.439453125 531.359375 l 5,21,-1
 65.5205078125 531.359375 l 5,22,-1
 65.5205078125 24 l 5,23,-1
 89.5205078125 24 l 5,24,-1
 89.5205078125 0 l 5,25,-1
 186 0 l 5,26,-1
 186 205.439453125 l 5,27,-1
 391.439453125 205.439453125 l 5,28,-1
 391.439453125 274.080078125 l 5,29,-1
 460.079101562 274.080078125 l 5,14,-1
186.959960938 409.919921875 m 5,30,-1
 338.639648438 409.919921875 l 5,31,-1
 338.639648438 326.879882812 l 5,32,-1
 186.959960938 326.879882812 l 5,33,-1
 186.959960938 409.919921875 l 5,30,-1
EndSplineSet
EndChar

StartChar: q
Encoding: 113 113 80
Width: 492
VWidth: 636
GlyphClass: 1
Flags: W
LayerCount: 2
Fore
SplineSet
352.879882812 448.319335938 m 5,0,-1
 148.399414062 448.319335938 l 5,1,-1
 148.399414062 107.040039062 l 5,2,-1
 286.16015625 107.040039062 l 5,3,-1
 286.16015625 174.240234375 l 5,4,-1
 216.079101562 174.240234375 l 5,5,-1
 216.079101562 243.83984375 l 5,6,-1
 283.759765625 243.83984375 l 5,7,-1
 283.759765625 175.200195312 l 5,8,-1
 352.879882812 175.200195312 l 5,9,-1
 352.879882812 448.319335938 l 5,0,-1
148.399414062 38.400390625 m 5,10,-1
 148.399414062 107.040039062 l 5,11,-1
 79.759765625 107.040039062 l 5,12,-1
 79.759765625 448.319335938 l 5,13,-1
 148.399414062 448.319335938 l 5,14,-1
 148.399414062 516.958984375 l 5,15,-1
 352.879882812 516.958984375 l 5,16,-1
 352.879882812 448.319335938 l 5,17,-1
 421.51953125 448.319335938 l 5,18,-1
 421.51953125 38.400390625 l 5,19,-1
 148.399414062 38.400390625 l 5,10,-1
459.918945312 0 m 5,20,-1
 459.918945312 438.719726562 l 5,21,-1
 435.918945312 438.719726562 l 5,22,-1
 435.918945312 462.719726562 l 5,23,-1
 391.279296875 462.719726562 l 5,24,-1
 391.279296875 507.359375 l 5,25,-1
 367.279296875 507.359375 l 5,26,-1
 367.279296875 531.359375 l 5,27,-1
 134 531.359375 l 5,28,-1
 134 462.719726562 l 5,29,-1
 65.3603515625 462.719726562 l 5,30,-1
 65.3603515625 92.6396484375 l 5,31,-1
 89.3603515625 92.6396484375 l 5,32,-1
 89.3603515625 68.6396484375 l 5,33,-1
 134 68.6396484375 l 5,34,-1
 134 24 l 5,35,-1
 158 24 l 5,36,-1
 158 0 l 5,37,-1
 459.918945312 0 l 5,20,-1
298.16015625 258.240234375 m 5,38,-1
 201.6796875 258.240234375 l 5,39,-1
 201.6796875 159.83984375 l 5,40,-1
 225.6796875 159.83984375 l 5,41,-1
 225.6796875 135.83984375 l 5,42,-1
 271.759765625 135.83984375 l 5,43,-1
 271.759765625 121.439453125 l 5,44,-1
 186.799804688 121.439453125 l 5,45,-1
 186.799804688 409.919921875 l 5,46,-1
 338.479492188 409.919921875 l 5,47,-1
 338.479492188 189.599609375 l 5,48,-1
 322.16015625 189.599609375 l 5,49,-1
 322.16015625 234.240234375 l 5,50,-1
 298.16015625 234.240234375 l 5,51,-1
 298.16015625 258.240234375 l 5,38,-1
EndSplineSet
EndChar

StartChar: r
Encoding: 114 114 81
Width: 492
VWidth: 636
GlyphClass: 1
Flags: W
LayerCount: 2
Fore
SplineSet
353.040039062 448.319335938 m 5,0,-1
 148.559570312 448.319335938 l 5,1,-1
 148.559570312 312.479492188 l 5,2,-1
 353.040039062 312.479492188 l 5,3,-1
 353.040039062 448.319335938 l 5,0,-1
354 38.400390625 m 5,4,-1
 354 243.83984375 l 5,5,-1
 147.599609375 243.83984375 l 5,6,-1
 147.599609375 38.400390625 l 5,7,-1
 79.919921875 38.400390625 l 5,8,-1
 79.919921875 516.958984375 l 5,9,-1
 353.040039062 516.958984375 l 5,10,-1
 353.040039062 448.319335938 l 5,11,-1
 421.6796875 448.319335938 l 5,12,-1
 421.6796875 312.479492188 l 5,13,-1
 353.040039062 312.479492188 l 5,14,-1
 353.040039062 242.879882812 l 5,15,-1
 421.6796875 242.879882812 l 5,16,-1
 421.6796875 38.400390625 l 5,17,-1
 354 38.400390625 l 5,4,-1
460.079101562 0 m 5,18,-1
 460.079101562 233.279296875 l 5,19,-1
 436.079101562 233.279296875 l 5,20,-1
 436.079101562 257.279296875 l 5,21,-1
 391.439453125 257.279296875 l 5,22,-1
 391.439453125 274.080078125 l 5,23,-1
 460.079101562 274.080078125 l 5,24,-1
 460.079101562 438.719726562 l 5,25,-1
 436.079101562 438.719726562 l 5,26,-1
 436.079101562 462.719726562 l 5,27,-1
 391.439453125 462.719726562 l 5,28,-1
 391.439453125 507.359375 l 5,29,-1
 367.439453125 507.359375 l 5,30,-1
 367.439453125 531.359375 l 5,31,-1
 65.5205078125 531.359375 l 5,32,-1
 65.5205078125 24 l 5,33,-1
 89.5205078125 24 l 5,34,-1
 89.5205078125 0 l 5,35,-1
 186 0 l 5,36,-1
 186 205.439453125 l 5,37,-1
 339.599609375 205.439453125 l 5,38,-1
 339.599609375 24 l 5,39,-1
 363.599609375 24 l 5,40,-1
 363.599609375 0 l 5,41,-1
 460.079101562 0 l 5,18,-1
186.959960938 409.919921875 m 5,42,-1
 338.639648438 409.919921875 l 5,43,-1
 338.639648438 326.879882812 l 5,44,-1
 186.959960938 326.879882812 l 5,45,-1
 186.959960938 409.919921875 l 5,42,-1
EndSplineSet
EndChar

StartChar: s
Encoding: 115 115 82
Width: 492
VWidth: 636
GlyphClass: 1
Flags: W
LayerCount: 2
Fore
SplineSet
352.83984375 107.040039062 m 5,0,-1
 352.83984375 38.400390625 l 5,1,-1
 147.399414062 38.400390625 l 5,2,-1
 147.399414062 107.040039062 l 5,3,-1
 79.7197265625 107.040039062 l 5,4,-1
 79.7197265625 174.240234375 l 5,5,-1
 147.399414062 174.240234375 l 5,6,-1
 147.399414062 106.080078125 l 5,7,-1
 353.799804688 106.080078125 l 5,8,-1
 353.799804688 243.83984375 l 5,9,-1
 147.399414062 243.83984375 l 5,10,-1
 147.399414062 310.559570312 l 5,11,-1
 79.7197265625 312.479492188 l 5,12,-1
 79.7197265625 448.319335938 l 5,13,-1
 147.399414062 448.319335938 l 5,14,-1
 147.399414062 516.958984375 l 5,15,-1
 352.83984375 516.958984375 l 5,16,-1
 352.83984375 448.319335938 l 5,17,-1
 421.479492188 448.319335938 l 5,18,-1
 421.479492188 380.639648438 l 5,19,-1
 353.799804688 380.639648438 l 5,20,-1
 353.799804688 449.279296875 l 5,21,-1
 149.799804688 449.279296875 l 5,22,-1
 149.799804688 312 l 5,23,-1
 352.83984375 312 l 5,24,-1
 352.83984375 242.879882812 l 5,25,-1
 421.479492188 242.879882812 l 5,26,-1
 421.479492188 107.040039062 l 5,27,-1
 352.83984375 107.040039062 l 5,0,-1
459.87890625 68.6396484375 m 5,28,-1
 459.87890625 233.279296875 l 5,29,-1
 435.87890625 233.279296875 l 5,30,-1
 435.87890625 257.279296875 l 5,31,-1
 391.239257812 257.279296875 l 5,32,-1
 391.239257812 302.400390625 l 5,33,-1
 367.239257812 302.400390625 l 5,34,-1
 367.239257812 326.400390625 l 5,35,-1
 188.19921875 326.400390625 l 5,36,-1
 188.19921875 410.879882812 l 5,37,-1
 339.399414062 410.879882812 l 5,38,-1
 339.399414062 366.240234375 l 5,39,-1
 363.399414062 366.240234375 l 5,40,-1
 363.399414062 342.240234375 l 5,41,-1
 459.87890625 342.240234375 l 5,42,-1
 459.87890625 438.719726562 l 5,43,-1
 435.87890625 438.719726562 l 5,44,-1
 435.87890625 462.719726562 l 5,45,-1
 391.239257812 462.719726562 l 5,46,-1
 391.239257812 507.359375 l 5,47,-1
 367.239257812 507.359375 l 5,48,-1
 367.239257812 531.359375 l 5,49,-1
 133 531.359375 l 5,50,-1
 133 462.719726562 l 5,51,-1
 65.3203125 462.719726562 l 5,52,-1
 65.3203125 298.559570312 l 5,53,-1
 89.3203125 297.599609375 l 5,54,-1
 89.3203125 274.559570312 l 5,55,-1
 133 273.119140625 l 5,56,-1
 133 229.439453125 l 5,57,-1
 157 229.439453125 l 5,58,-1
 157 205.439453125 l 5,59,-1
 339.399414062 205.439453125 l 5,60,-1
 339.399414062 120.479492188 l 5,61,-1
 185.799804688 120.479492188 l 5,62,-1
 185.799804688 164.639648438 l 5,63,-1
 161.799804688 164.639648438 l 5,64,-1
 161.799804688 188.639648438 l 5,65,-1
 65.3203125 188.639648438 l 5,66,-1
 65.3203125 92.6396484375 l 5,67,-1
 89.3203125 92.6396484375 l 5,68,-1
 89.3203125 68.6396484375 l 5,69,-1
 133 68.6396484375 l 5,70,-1
 133 24 l 5,71,-1
 157 24 l 5,72,-1
 157 0 l 5,73,-1
 391.239257812 0 l 5,74,-1
 391.239257812 68.6396484375 l 5,75,-1
 459.87890625 68.6396484375 l 5,28,-1
EndSplineSet
EndChar

StartChar: t
Encoding: 116 116 83
Width: 492
VWidth: 636
GlyphClass: 1
Flags: W
LayerCount: 2
Fore
SplineSet
284.600585938 449.279296875 m 5,0,-1
 284.600585938 38.400390625 l 5,1,-1
 216.920898438 38.400390625 l 5,2,-1
 216.920898438 449.279296875 l 5,3,-1
 79.640625 449.279296875 l 5,4,-1
 79.640625 516.958984375 l 5,5,-1
 421.400390625 516.958984375 l 5,6,-1
 421.400390625 449.279296875 l 5,7,-1
 284.600585938 449.279296875 l 5,0,-1
459.799804688 410.879882812 m 5,8,-1
 459.799804688 507.359375 l 5,9,-1
 435.799804688 507.359375 l 5,10,-1
 435.799804688 531.359375 l 5,11,-1
 65.2412109375 531.359375 l 5,12,-1
 65.2412109375 434.879882812 l 5,13,-1
 89.2412109375 434.879882812 l 5,14,-1
 89.2412109375 410.879882812 l 5,15,-1
 202.520507812 410.879882812 l 5,16,-1
 202.520507812 24 l 5,17,-1
 226.520507812 24 l 5,18,-1
 226.520507812 0 l 5,19,-1
 323 0 l 5,20,-1
 323 410.879882812 l 5,21,-1
 459.799804688 410.879882812 l 5,8,-1
EndSplineSet
EndChar

StartChar: u
Encoding: 117 117 84
Width: 492
VWidth: 636
GlyphClass: 1
Flags: W
LayerCount: 2
Fore
SplineSet
352.879882812 107.040039062 m 5,0,-1
 352.879882812 38.400390625 l 5,1,-1
 148.399414062 38.400390625 l 5,2,-1
 148.399414062 107.040039062 l 5,3,-1
 79.759765625 107.040039062 l 5,4,-1
 79.759765625 516.958984375 l 5,5,-1
 147.439453125 516.958984375 l 5,6,-1
 147.439453125 106.080078125 l 5,7,-1
 353.83984375 106.080078125 l 5,8,-1
 353.83984375 516.958984375 l 5,9,-1
 421.51953125 516.958984375 l 5,10,-1
 421.51953125 107.040039062 l 5,11,-1
 352.879882812 107.040039062 l 5,0,-1
459.918945312 68.6396484375 m 5,12,-1
 459.918945312 507.359375 l 5,13,-1
 435.918945312 507.359375 l 5,14,-1
 435.918945312 531.359375 l 5,15,-1
 339.439453125 531.359375 l 5,16,-1
 339.439453125 120.479492188 l 5,17,-1
 185.83984375 120.479492188 l 5,18,-1
 185.83984375 507.359375 l 5,19,-1
 161.83984375 507.359375 l 5,20,-1
 161.83984375 531.359375 l 5,21,-1
 65.3603515625 531.359375 l 5,22,-1
 65.3603515625 92.6396484375 l 5,23,-1
 89.3603515625 92.6396484375 l 5,24,-1
 89.3603515625 68.6396484375 l 5,25,-1
 134 68.6396484375 l 5,26,-1
 134 24 l 5,27,-1
 158 24 l 5,28,-1
 158 0 l 5,29,-1
 391.279296875 0 l 5,30,-1
 391.279296875 68.6396484375 l 5,31,-1
 459.918945312 68.6396484375 l 5,12,-1
EndSplineSet
EndChar

StartChar: v
Encoding: 118 118 85
Width: 492
VWidth: 636
GlyphClass: 1
Flags: W
LayerCount: 2
Fore
SplineSet
352.240234375 175.200195312 m 5,0,-1
 352.240234375 107.040039062 l 5,1,-1
 283.599609375 107.040039062 l 5,2,-1
 283.599609375 38.400390625 l 5,3,-1
 216.400390625 38.400390625 l 5,4,-1
 216.400390625 107.040039062 l 5,5,-1
 147.759765625 107.040039062 l 5,6,-1
 147.759765625 172.799804688 l 5,7,-1
 79.1201171875 175.200195312 l 5,8,-1
 79.1201171875 516.958984375 l 5,9,-1
 146.799804688 516.958984375 l 5,10,-1
 146.799804688 175.200195312 l 5,11,-1
 215.439453125 175.200195312 l 5,12,-1
 215.439453125 106.080078125 l 5,13,-1
 285.040039062 106.080078125 l 5,14,-1
 285.040039062 175.200195312 l 5,15,-1
 353.200195312 175.200195312 l 5,16,-1
 353.200195312 516.958984375 l 5,17,-1
 420.879882812 516.958984375 l 5,18,-1
 420.879882812 175.200195312 l 5,19,-1
 352.240234375 175.200195312 l 5,0,-1
459.279296875 136.799804688 m 5,20,-1
 459.279296875 507.359375 l 5,21,-1
 435.279296875 507.359375 l 5,22,-1
 435.279296875 531.359375 l 5,23,-1
 338.799804688 531.359375 l 5,24,-1
 338.799804688 189.599609375 l 5,25,-1
 270.639648438 189.599609375 l 5,26,-1
 270.639648438 120.479492188 l 5,27,-1
 253.83984375 120.479492188 l 5,28,-1
 253.83984375 165.599609375 l 5,29,-1
 229.83984375 165.599609375 l 5,30,-1
 229.83984375 189.599609375 l 5,31,-1
 185.200195312 189.599609375 l 5,32,-1
 185.200195312 507.359375 l 5,33,-1
 161.200195312 507.359375 l 5,34,-1
 161.200195312 531.359375 l 5,35,-1
 64.720703125 531.359375 l 5,36,-1
 64.720703125 161.279296875 l 5,37,-1
 88.720703125 160.319335938 l 5,38,-1
 88.720703125 137.279296875 l 5,39,-1
 133.360351562 135.83984375 l 5,40,-1
 133.360351562 92.6396484375 l 5,41,-1
 157.360351562 92.6396484375 l 5,42,-1
 157.360351562 68.6396484375 l 5,43,-1
 202 68.6396484375 l 5,44,-1
 202 24 l 5,45,-1
 226 24 l 5,46,-1
 226 0 l 5,47,-1
 322 0 l 5,48,-1
 322 68.6396484375 l 5,49,-1
 390.639648438 68.6396484375 l 5,50,-1
 390.639648438 136.799804688 l 5,51,-1
 459.279296875 136.799804688 l 5,20,-1
EndSplineSet
EndChar

StartChar: w
Encoding: 119 119 86
Width: 492
VWidth: 637
GlyphClass: 1
Flags: W
LayerCount: 2
Fore
SplineSet
355.440429688 38.3994140625 m 5,0,-1
 355.440429688 107.520507812 l 5,1,-1
 286.3203125 107.520507812 l 5,2,-1
 286.3203125 176.16015625 l 5,3,-1
 216.241210938 176.16015625 l 5,4,-1
 216.241210938 107.520507812 l 5,5,-1
 147.600585938 107.520507812 l 5,6,-1
 147.600585938 38.3994140625 l 5,7,-1
 79.4404296875 38.3994140625 l 5,8,-1
 79.4404296875 519.840820312 l 5,9,-1
 147.600585938 519.840820312 l 5,10,-1
 147.600585938 175.200195312 l 5,11,-1
 217.200195312 175.200195312 l 5,12,-1
 217.200195312 243.840820312 l 5,13,-1
 285.360351562 243.840820312 l 5,14,-1
 285.360351562 175.200195312 l 5,15,-1
 355.440429688 175.200195312 l 5,16,-1
 355.440429688 519.840820312 l 5,17,-1
 423.600585938 519.840820312 l 5,18,-1
 423.600585938 38.3994140625 l 5,19,-1
 355.440429688 38.3994140625 l 5,0,-1
462 0 m 5,20,-1
 462 510.240234375 l 5,21,-1
 438 510.240234375 l 5,22,-1
 438 534.240234375 l 5,23,-1
 341.041015625 534.240234375 l 5,24,-1
 341.041015625 189.599609375 l 5,25,-1
 323.760742188 189.599609375 l 5,26,-1
 323.760742188 234.240234375 l 5,27,-1
 299.760742188 234.240234375 l 5,28,-1
 299.760742188 258.240234375 l 5,29,-1
 202.799804688 258.240234375 l 5,30,-1
 202.799804688 189.599609375 l 5,31,-1
 186 189.599609375 l 5,32,-1
 186 510.240234375 l 5,33,-1
 162 510.240234375 l 5,34,-1
 162 534.240234375 l 5,35,-1
 65.041015625 534.240234375 l 5,36,-1
 65.041015625 24 l 5,37,-1
 89.041015625 24 l 5,38,-1
 89.041015625 0 l 5,39,-1
 186 0 l 5,40,-1
 186 69.1201171875 l 5,41,-1
 254.640625 69.1201171875 l 5,42,-1
 254.640625 137.759765625 l 5,43,-1
 271.920898438 137.759765625 l 5,44,-1
 271.920898438 93.1201171875 l 5,45,-1
 295.920898438 93.1201171875 l 5,46,-1
 295.920898438 69.1201171875 l 5,47,-1
 341.041015625 69.1201171875 l 5,48,-1
 341.041015625 24 l 5,49,-1
 365.041015625 24 l 5,50,-1
 365.041015625 0 l 5,51,-1
 462 0 l 5,20,-1
EndSplineSet
EndChar

StartChar: x
Encoding: 120 120 87
Width: 492
VWidth: 636
GlyphClass: 1
Flags: W
LayerCount: 2
Fore
SplineSet
354.040039062 38.400390625 m 5,0,-1
 354.040039062 175.200195312 l 5,1,-1
 285.879882812 175.200195312 l 5,2,-1
 285.879882812 243.83984375 l 5,3,-1
 216.279296875 243.83984375 l 5,4,-1
 216.279296875 174.240234375 l 5,5,-1
 148.599609375 174.240234375 l 5,6,-1
 148.599609375 38.400390625 l 5,7,-1
 79.9599609375 38.400390625 l 5,8,-1
 79.9599609375 174.240234375 l 5,9,-1
 148.599609375 174.240234375 l 5,10,-1
 148.599609375 242.879882812 l 5,11,-1
 217.240234375 242.879882812 l 5,12,-1
 217.240234375 312.479492188 l 5,13,-1
 145.719726562 312.479492188 l 5,14,-1
 145.719726562 378.240234375 l 5,15,-1
 79.9599609375 381.119140625 l 5,16,-1
 79.9599609375 516.958984375 l 5,17,-1
 148.599609375 516.958984375 l 5,18,-1
 148.599609375 380.639648438 l 5,19,-1
 216.279296875 380.639648438 l 5,20,-1
 216.279296875 311.51953125 l 5,21,-1
 285.879882812 311.51953125 l 5,22,-1
 285.879882812 380.639648438 l 5,23,-1
 352.599609375 380.639648438 l 5,24,-1
 352.599609375 516.958984375 l 5,25,-1
 421.719726562 516.958984375 l 5,26,-1
 421.719726562 380.639648438 l 5,27,-1
 353.080078125 380.639648438 l 5,28,-1
 353.080078125 312.479492188 l 5,29,-1
 284.919921875 312.479492188 l 5,30,-1
 284.919921875 242.879882812 l 5,31,-1
 355 242.879882812 l 5,32,-1
 355 175.6796875 l 5,33,-1
 421.719726562 174.240234375 l 5,34,-1
 421.719726562 38.400390625 l 5,35,-1
 354.040039062 38.400390625 l 5,0,-1
460.119140625 0 m 5,36,-1
 460.119140625 164.159179688 l 5,37,-1
 436.119140625 164.639648438 l 5,38,-1
 436.119140625 188.159179688 l 5,39,-1
 393.400390625 189.119140625 l 5,40,-1
 393.400390625 233.279296875 l 5,41,-1
 369.400390625 233.279296875 l 5,42,-1
 369.400390625 257.279296875 l 5,43,-1
 323.319335938 257.279296875 l 5,44,-1
 323.319335938 274.080078125 l 5,45,-1
 391.479492188 274.080078125 l 5,46,-1
 391.479492188 342.240234375 l 5,47,-1
 460.119140625 342.240234375 l 5,48,-1
 460.119140625 507.359375 l 5,49,-1
 436.119140625 507.359375 l 5,50,-1
 436.119140625 531.359375 l 5,51,-1
 338.200195312 531.359375 l 5,52,-1
 338.200195312 395.040039062 l 5,53,-1
 271.479492188 395.040039062 l 5,54,-1
 271.479492188 325.919921875 l 5,55,-1
 254.6796875 325.919921875 l 5,56,-1
 254.6796875 371.040039062 l 5,57,-1
 230.6796875 371.040039062 l 5,58,-1
 230.6796875 395.040039062 l 5,59,-1
 187 395.040039062 l 5,60,-1
 187 507.359375 l 5,61,-1
 163 507.359375 l 5,62,-1
 163 531.359375 l 5,63,-1
 65.560546875 531.359375 l 5,64,-1
 65.560546875 367.200195312 l 5,65,-1
 89.560546875 366.240234375 l 5,66,-1
 89.560546875 343.200195312 l 5,67,-1
 131.319335938 341.279296875 l 5,68,-1
 131.319335938 298.080078125 l 5,69,-1
 155.319335938 298.080078125 l 5,70,-1
 155.319335938 274.080078125 l 5,71,-1
 202.83984375 274.080078125 l 5,72,-1
 202.83984375 257.279296875 l 5,73,-1
 134.200195312 257.279296875 l 5,74,-1
 134.200195312 188.639648438 l 5,75,-1
 65.560546875 188.639648438 l 5,76,-1
 65.560546875 24 l 5,77,-1
 89.560546875 24 l 5,78,-1
 89.560546875 0 l 5,79,-1
 187 0 l 5,80,-1
 187 135.83984375 l 5,81,-1
 254.6796875 135.83984375 l 5,82,-1
 254.6796875 205.439453125 l 5,83,-1
 271.479492188 205.439453125 l 5,84,-1
 271.479492188 160.799804688 l 5,85,-1
 295.479492188 160.799804688 l 5,86,-1
 295.479492188 136.799804688 l 5,87,-1
 339.639648438 136.799804688 l 5,88,-1
 339.639648438 24 l 5,89,-1
 363.639648438 24 l 5,90,-1
 363.639648438 0 l 5,91,-1
 460.119140625 0 l 5,36,-1
EndSplineSet
EndChar

StartChar: y
Encoding: 121 121 88
Width: 492
VWidth: 636
GlyphClass: 1
Flags: W
LayerCount: 2
Fore
SplineSet
353.240234375 312.479492188 m 5,0,-1
 353.240234375 243.83984375 l 5,1,-1
 284.599609375 243.83984375 l 5,2,-1
 284.599609375 38.400390625 l 5,3,-1
 217.400390625 38.400390625 l 5,4,-1
 217.400390625 243.83984375 l 5,5,-1
 148.759765625 243.83984375 l 5,6,-1
 148.759765625 312.479492188 l 5,7,-1
 80.1201171875 312.479492188 l 5,8,-1
 80.1201171875 516.958984375 l 5,9,-1
 147.799804688 516.958984375 l 5,10,-1
 147.799804688 311.51953125 l 5,11,-1
 354.200195312 311.51953125 l 5,12,-1
 354.200195312 516.958984375 l 5,13,-1
 421.879882812 516.958984375 l 5,14,-1
 421.879882812 312.479492188 l 5,15,-1
 353.240234375 312.479492188 l 5,0,-1
460.279296875 274.080078125 m 5,16,-1
 460.279296875 507.359375 l 5,17,-1
 436.279296875 507.359375 l 5,18,-1
 436.279296875 531.359375 l 5,19,-1
 339.799804688 531.359375 l 5,20,-1
 339.799804688 325.919921875 l 5,21,-1
 186.200195312 325.919921875 l 5,22,-1
 186.200195312 507.359375 l 5,23,-1
 162.200195312 507.359375 l 5,24,-1
 162.200195312 531.359375 l 5,25,-1
 65.720703125 531.359375 l 5,26,-1
 65.720703125 298.080078125 l 5,27,-1
 89.720703125 298.080078125 l 5,28,-1
 89.720703125 274.080078125 l 5,29,-1
 134.360351562 274.080078125 l 5,30,-1
 134.360351562 229.439453125 l 5,31,-1
 158.360351562 229.439453125 l 5,32,-1
 158.360351562 205.439453125 l 5,33,-1
 203 205.439453125 l 5,34,-1
 203 24 l 5,35,-1
 227 24 l 5,36,-1
 227 0 l 5,37,-1
 323 0 l 5,38,-1
 323 205.439453125 l 5,39,-1
 391.639648438 205.439453125 l 5,40,-1
 391.639648438 274.080078125 l 5,41,-1
 460.279296875 274.080078125 l 5,16,-1
EndSplineSet
EndChar

StartChar: z
Encoding: 122 122 89
Width: 492
VWidth: 636
GlyphClass: 1
Flags: W
LayerCount: 2
Fore
SplineSet
352.51953125 380.639648438 m 5,0,-1
 352.51953125 312.479492188 l 5,1,-1
 283.87890625 312.479492188 l 5,2,-1
 283.87890625 243.83984375 l 5,3,-1
 215.71875 243.83984375 l 5,4,-1
 215.71875 175.200195312 l 5,5,-1
 147.079101562 175.200195312 l 5,6,-1
 147.079101562 106.080078125 l 5,7,-1
 421.159179688 106.080078125 l 5,8,-1
 421.159179688 38.400390625 l 5,9,-1
 79.3994140625 38.400390625 l 5,10,-1
 79.3994140625 174.240234375 l 5,11,-1
 148.0390625 174.240234375 l 5,12,-1
 148.0390625 242.879882812 l 5,13,-1
 216.6796875 242.879882812 l 5,14,-1
 216.6796875 311.51953125 l 5,15,-1
 285.319335938 311.51953125 l 5,16,-1
 285.319335938 379.6796875 l 5,17,-1
 353.479492188 379.6796875 l 5,18,-1
 353.479492188 449.279296875 l 5,19,-1
 79.3994140625 449.279296875 l 5,20,-1
 79.3994140625 516.958984375 l 5,21,-1
 421.159179688 516.958984375 l 5,22,-1
 421.159179688 380.639648438 l 5,23,-1
 352.51953125 380.639648438 l 5,0,-1
459.55859375 342.240234375 m 5,24,-1
 459.55859375 507.359375 l 5,25,-1
 435.55859375 507.359375 l 5,26,-1
 435.55859375 531.359375 l 5,27,-1
 65 531.359375 l 5,28,-1
 65 434.879882812 l 5,29,-1
 89 434.879882812 l 5,30,-1
 89 410.879882812 l 5,31,-1
 339.079101562 410.879882812 l 5,32,-1
 339.079101562 394.080078125 l 5,33,-1
 270.918945312 394.080078125 l 5,34,-1
 270.918945312 325.919921875 l 5,35,-1
 202.279296875 325.919921875 l 5,36,-1
 202.279296875 257.279296875 l 5,37,-1
 133.639648438 257.279296875 l 5,38,-1
 133.639648438 188.639648438 l 5,39,-1
 65 188.639648438 l 5,40,-1
 65 24 l 5,41,-1
 89 24 l 5,42,-1
 89 0 l 5,43,-1
 459.55859375 0 l 5,44,-1
 459.55859375 96.4794921875 l 5,45,-1
 435.55859375 96.4794921875 l 5,46,-1
 435.55859375 120.479492188 l 5,47,-1
 185.479492188 120.479492188 l 5,48,-1
 185.479492188 136.799804688 l 5,49,-1
 254.119140625 136.799804688 l 5,50,-1
 254.119140625 205.439453125 l 5,51,-1
 322.279296875 205.439453125 l 5,52,-1
 322.279296875 274.080078125 l 5,53,-1
 390.918945312 274.080078125 l 5,54,-1
 390.918945312 342.240234375 l 5,55,-1
 459.55859375 342.240234375 l 5,24,-1
EndSplineSet
EndChar

StartChar: Aogonek
Encoding: 260 260 91
Width: 496
VWidth: 846
GlyphClass: 1
Flags: W
LayerCount: 2
Fore
SplineSet
352.200195312 448 m 5,0,-1
 148.200195312 448 l 5,1,-1
 148.200195312 312.799804688 l 5,2,-1
 352.200195312 312.799804688 l 5,3,-1
 352.200195312 448 l 5,0,-1
352.200195312 38.3994140625 m 5,4,-1
 352.200195312 -40.7998046875 l 5,5,-1
 421 -40.7998046875 l 5,6,-1
 421 -119.200195312 l 5,7,-1
 352.200195312 -119.200195312 l 5,8,-1
 352.200195312 -40.7998046875 l 5,9,-1
 285 -40.7998046875 l 5,10,-1
 285 38.3994140625 l 5,11,-1
 352.200195312 38.3994140625 l 5,12,-1
 352.200195312 244 l 5,13,-1
 148.200195312 244 l 5,14,-1
 148.200195312 38.3994140625 l 5,15,-1
 79.400390625 38.3994140625 l 5,16,-1
 79.400390625 448 l 5,17,-1
 145.799804688 448 l 5,18,-1
 145.799804688 516.799804688 l 5,19,-1
 354.600585938 516.799804688 l 5,20,-1
 354.600585938 448 l 5,21,-1
 421 448 l 5,22,-1
 421 38.3994140625 l 5,23,-1
 352.200195312 38.3994140625 l 5,4,-1
337.799804688 -78.400390625 m 5,24,-1
 337.799804688 -133.600585938 l 5,25,-1
 361.799804688 -133.600585938 l 5,26,-1
 361.799804688 -157.600585938 l 5,27,-1
 453 -157.600585938 l 5,28,-1
 453 -50.400390625 l 5,29,-1
 435.400390625 -50.400390625 l 5,30,-1
 435.400390625 -26.400390625 l 5,31,-1
 381 -26.400390625 l 5,32,-1
 381 0 l 5,33,-1
 459.400390625 0 l 5,34,-1
 459.400390625 438.399414062 l 5,35,-1
 435.400390625 438.399414062 l 5,36,-1
 435.400390625 462.399414062 l 5,37,-1
 393 462.399414062 l 5,38,-1
 393 507.200195312 l 5,39,-1
 369 507.200195312 l 5,40,-1
 369 531.200195312 l 5,41,-1
 131.400390625 531.200195312 l 5,42,-1
 131.400390625 462.399414062 l 5,43,-1
 65 462.399414062 l 5,44,-1
 65 24 l 5,45,-1
 89 24 l 5,46,-1
 89 0 l 5,47,-1
 186.600585938 0 l 5,48,-1
 186.600585938 205.599609375 l 5,49,-1
 337.799804688 205.599609375 l 5,50,-1
 337.799804688 51.2001953125 l 5,51,-1
 270.600585938 51.2001953125 l 5,52,-1
 270.600585938 -55.2001953125 l 5,53,-1
 294.600585938 -55.2001953125 l 5,54,-1
 294.600585938 -78.400390625 l 5,55,-1
 337.799804688 -78.400390625 l 5,24,-1
186.600585938 409.599609375 m 5,56,-1
 337.799804688 409.599609375 l 5,57,-1
 337.799804688 327.200195312 l 5,58,-1
 186.600585938 327.200195312 l 5,59,-1
 186.600585938 409.599609375 l 5,56,-1
EndSplineSet
EndChar

StartChar: aogonek
Encoding: 261 261 92
Width: 496
VWidth: 846
GlyphClass: 1
Flags: W
LayerCount: 2
Fore
SplineSet
352.200195312 448 m 5,0,-1
 148.200195312 448 l 5,1,-1
 148.200195312 312.799804688 l 5,2,-1
 352.200195312 312.799804688 l 5,3,-1
 352.200195312 448 l 5,0,-1
352.200195312 38.3994140625 m 5,4,-1
 352.200195312 -40.7998046875 l 5,5,-1
 421 -40.7998046875 l 5,6,-1
 421 -119.200195312 l 5,7,-1
 352.200195312 -119.200195312 l 5,8,-1
 352.200195312 -40.7998046875 l 5,9,-1
 285 -40.7998046875 l 5,10,-1
 285 38.3994140625 l 5,11,-1
 352.200195312 38.3994140625 l 5,12,-1
 352.200195312 244 l 5,13,-1
 148.200195312 244 l 5,14,-1
 148.200195312 38.3994140625 l 5,15,-1
 79.400390625 38.3994140625 l 5,16,-1
 79.400390625 448 l 5,17,-1
 145.799804688 448 l 5,18,-1
 145.799804688 516.799804688 l 5,19,-1
 354.600585938 516.799804688 l 5,20,-1
 354.600585938 448 l 5,21,-1
 421 448 l 5,22,-1
 421 38.3994140625 l 5,23,-1
 352.200195312 38.3994140625 l 5,4,-1
337.799804688 -78.400390625 m 5,24,-1
 337.799804688 -133.600585938 l 5,25,-1
 361.799804688 -133.600585938 l 5,26,-1
 361.799804688 -157.600585938 l 5,27,-1
 453 -157.600585938 l 5,28,-1
 453 -50.400390625 l 5,29,-1
 435.400390625 -50.400390625 l 5,30,-1
 435.400390625 -26.400390625 l 5,31,-1
 381 -26.400390625 l 5,32,-1
 381 0 l 5,33,-1
 459.400390625 0 l 5,34,-1
 459.400390625 438.399414062 l 5,35,-1
 435.400390625 438.399414062 l 5,36,-1
 435.400390625 462.399414062 l 5,37,-1
 393 462.399414062 l 5,38,-1
 393 507.200195312 l 5,39,-1
 369 507.200195312 l 5,40,-1
 369 531.200195312 l 5,41,-1
 131.400390625 531.200195312 l 5,42,-1
 131.400390625 462.399414062 l 5,43,-1
 65 462.399414062 l 5,44,-1
 65 24 l 5,45,-1
 89 24 l 5,46,-1
 89 0 l 5,47,-1
 186.600585938 0 l 5,48,-1
 186.600585938 205.599609375 l 5,49,-1
 337.799804688 205.599609375 l 5,50,-1
 337.799804688 51.2001953125 l 5,51,-1
 270.600585938 51.2001953125 l 5,52,-1
 270.600585938 -55.2001953125 l 5,53,-1
 294.600585938 -55.2001953125 l 5,54,-1
 294.600585938 -78.400390625 l 5,55,-1
 337.799804688 -78.400390625 l 5,24,-1
186.600585938 409.599609375 m 5,56,-1
 337.799804688 409.599609375 l 5,57,-1
 337.799804688 327.200195312 l 5,58,-1
 186.600585938 327.200195312 l 5,59,-1
 186.600585938 409.599609375 l 5,56,-1
EndSplineSet
EndChar

StartChar: Eogonek
Encoding: 280 280 93
Width: 496
VWidth: 846
GlyphClass: 1
Flags: W
LayerCount: 2
Fore
SplineSet
80 40 m 5,0,-1
 80 518.399414062 l 5,1,-1
 421.599609375 518.399414062 l 5,2,-1
 421.599609375 450.399414062 l 5,3,-1
 148 450.399414062 l 5,4,-1
 148 312.799804688 l 5,5,-1
 284.799804688 312.799804688 l 5,6,-1
 284.799804688 245.599609375 l 5,7,-1
 148 245.599609375 l 5,8,-1
 148 107.19921875 l 5,9,-1
 421.599609375 107.19921875 l 5,10,-1
 421.599609375 40 l 5,11,-1
 353.599609375 40 l 5,12,-1
 353.599609375 -40.80078125 l 5,13,-1
 422.399414062 -40.80078125 l 5,14,-1
 422.399414062 -119.200195312 l 5,15,-1
 353.599609375 -119.200195312 l 5,16,-1
 353.599609375 -40.80078125 l 5,17,-1
 286.399414062 -40.80078125 l 5,18,-1
 286.399414062 40 l 4,19,20
 286.399414062 40 286.399414062 40 80 40 c 5,0,-1
272 0 m 5,21,-1
 272 -55.2001953125 l 5,22,-1
 296 -55.2001953125 l 5,23,-1
 296 -78.400390625 l 5,24,-1
 339.200195312 -78.400390625 l 5,25,-1
 339.200195312 -133.600585938 l 5,26,-1
 363.200195312 -133.600585938 l 5,27,-1
 363.200195312 -157.600585938 l 5,28,-1
 454.399414062 -157.600585938 l 5,29,-1
 454.399414062 -50.400390625 l 5,30,-1
 436.799804688 -50.400390625 l 5,31,-1
 436.799804688 -26.400390625 l 5,32,-1
 382.399414062 -26.400390625 l 5,33,-1
 382.399414062 0 l 4,34,35
 382.399414062 0 382.399414062 0 460 0 c 5,36,37
 460 0 460 0 460 97.599609375 c 5,38,-1
 436 97.599609375 l 5,39,-1
 436 121.599609375 l 5,40,-1
 186.399414062 121.599609375 l 5,41,-1
 186.399414062 207.19921875 l 5,42,-1
 323.200195312 207.19921875 l 5,43,-1
 323.200195312 303.19921875 l 5,44,-1
 299.200195312 303.19921875 l 5,45,-1
 299.200195312 327.19921875 l 5,46,-1
 186.399414062 327.19921875 l 5,47,-1
 186.399414062 412 l 5,48,-1
 460 412 l 5,49,-1
 460 508.799804688 l 5,50,-1
 436 508.799804688 l 5,51,-1
 436 532.799804688 l 5,52,-1
 65.599609375 532.799804688 l 5,53,-1
 65.599609375 25.599609375 l 5,54,-1
 89.599609375 25.599609375 l 5,55,-1
 89.599609375 0 l 5,56,57
 89.599609375 0 89.599609375 0 272 0 c 5,21,-1
EndSplineSet
EndChar

StartChar: eogonek
Encoding: 281 281 103
Width: 496
VWidth: 846
Flags: W
LayerCount: 2
Fore
SplineSet
80 40 m 5,0,-1
 80 518.399414062 l 5,1,-1
 421.599609375 518.399414062 l 5,2,-1
 421.599609375 450.399414062 l 5,3,-1
 148 450.399414062 l 5,4,-1
 148 312.799804688 l 5,5,-1
 284.799804688 312.799804688 l 5,6,-1
 284.799804688 245.599609375 l 5,7,-1
 148 245.599609375 l 5,8,-1
 148 107.19921875 l 5,9,-1
 421.599609375 107.19921875 l 5,10,-1
 421.599609375 40 l 5,11,-1
 353.599609375 40 l 5,12,-1
 353.599609375 -40.80078125 l 5,13,-1
 422.399414062 -40.80078125 l 5,14,-1
 422.399414062 -119.200195312 l 5,15,-1
 353.599609375 -119.200195312 l 5,16,-1
 353.599609375 -40.80078125 l 5,17,-1
 286.399414062 -40.80078125 l 5,18,-1
 286.399414062 40 l 4,19,20
 286.399414062 40 286.399414062 40 80 40 c 5,0,-1
272 0 m 5,21,-1
 272 -55.2001953125 l 5,22,-1
 296 -55.2001953125 l 5,23,-1
 296 -78.400390625 l 5,24,-1
 339.200195312 -78.400390625 l 5,25,-1
 339.200195312 -133.600585938 l 5,26,-1
 363.200195312 -133.600585938 l 5,27,-1
 363.200195312 -157.600585938 l 5,28,-1
 454.399414062 -157.600585938 l 5,29,-1
 454.399414062 -50.400390625 l 5,30,-1
 436.799804688 -50.400390625 l 5,31,-1
 436.799804688 -26.400390625 l 5,32,-1
 382.399414062 -26.400390625 l 5,33,-1
 382.399414062 0 l 4,34,35
 382.399414062 0 382.399414062 0 460 0 c 5,36,37
 460 0 460 0 460 97.599609375 c 5,38,-1
 436 97.599609375 l 5,39,-1
 436 121.599609375 l 5,40,-1
 186.399414062 121.599609375 l 5,41,-1
 186.399414062 207.19921875 l 5,42,-1
 323.200195312 207.19921875 l 5,43,-1
 323.200195312 303.19921875 l 5,44,-1
 299.200195312 303.19921875 l 5,45,-1
 299.200195312 327.19921875 l 5,46,-1
 186.399414062 327.19921875 l 5,47,-1
 186.399414062 412 l 5,48,-1
 460 412 l 5,49,-1
 460 508.799804688 l 5,50,-1
 436 508.799804688 l 5,51,-1
 436 532.799804688 l 5,52,-1
 65.599609375 532.799804688 l 5,53,-1
 65.599609375 25.599609375 l 5,54,-1
 89.599609375 25.599609375 l 5,55,-1
 89.599609375 0 l 5,56,57
 89.599609375 0 89.599609375 0 272 0 c 5,21,-1
EndSplineSet
EndChar

StartChar: Cacute
Encoding: 262 262 104
Width: 492
VWidth: 652
Flags: W
LayerCount: 2
Fore
SplineSet
274.479492188 666 m 5,0,-1
 274.479492188 733.6796875 l 5,1,-1
 342.159179688 733.6796875 l 5,2,-1
 342.159179688 666 l 5,3,-1
 274.479492188 666 l 5,0,-1
380.55859375 627.600585938 m 5,4,-1
 380.55859375 724.080078125 l 5,5,-1
 356.55859375 724.080078125 l 5,6,-1
 356.55859375 748.080078125 l 5,7,-1
 260.079101562 748.080078125 l 5,8,-1
 260.079101562 651.600585938 l 5,9,-1
 284.079101562 651.600585938 l 5,10,-1
 284.079101562 627.600585938 l 5,11,-1
 380.55859375 627.600585938 l 5,4,-1
192.400390625 583.919921875 m 5,12,-1
 192.400390625 651.599609375 l 5,13,-1
 260.080078125 651.599609375 l 5,14,-1
 260.080078125 583.919921875 l 5,15,-1
 192.400390625 583.919921875 l 5,12,-1
298.479492188 545.520507812 m 5,16,-1
 298.479492188 642 l 5,17,-1
 291 654.520507812 l 5,18,-1
 274.479492188 666 l 5,19,-1
 178 666 l 5,20,-1
 178 569.520507812 l 5,21,-1
 202 569.520507812 l 5,22,-1
 202 545.520507812 l 5,23,-1
 298.479492188 545.520507812 l 5,16,-1
354.83984375 380.639648438 m 1,24,-1
 354.83984375 449.280273438 l 1,25,-1
 148.439453125 449.280273438 l 1,26,-1
 148.439453125 106.080078125 l 1,27,-1
 353.399414062 106.080078125 l 1,28,-1
 353.399414062 174.240234375 l 1,29,-1
 422.51953125 174.240234375 l 1,30,-1
 422.51953125 107.040039062 l 1,31,-1
 353.879882812 107.040039062 l 1,32,-1
 353.879882812 38.400390625 l 1,33,-1
 149.399414062 38.400390625 l 1,34,-1
 149.399414062 107.040039062 l 1,35,-1
 80.759765625 107.040039062 l 1,36,-1
 80.759765625 448.319335938 l 1,37,-1
 149.399414062 448.319335938 l 1,38,-1
 149.399414062 516.959960938 l 1,39,-1
 355.799804688 516.959960938 l 1,40,-1
 355.799804688 448.319335938 l 1,41,-1
 422.51953125 448.319335938 l 1,42,-1
 422.51953125 380.639648438 l 1,43,-1
 354.83984375 380.639648438 l 1,24,-1
460.918945312 342.240234375 m 1,44,-1
 460.918945312 438.719726562 l 1,45,-1
 436.918945312 438.719726562 l 1,46,-1
 436.918945312 462.719726562 l 1,47,-1
 394.200195312 462.719726562 l 1,48,-1
 394.200195312 507.359375 l 1,49,-1
 370.200195312 507.359375 l 1,50,-1
 370.200195312 531.359375 l 1,51,-1
 135 531.359375 l 1,52,-1
 135 462.719726562 l 1,53,-1
 66.3603515625 462.719726562 l 1,54,-1
 66.5205078125 92.6396484375 l 1,55,-1
 90.3603515625 92.6396484375 l 1,56,-1
 90.3603515625 68.6396484375 l 1,57,-1
 135 68.6396484375 l 1,58,-1
 135 24 l 1,59,-1
 159 24 l 1,60,-1
 159 0 l 1,61,-1
 392.279296875 0 l 1,62,-1
 392.279296875 68.6396484375 l 1,63,-1
 460.918945312 68.6396484375 l 1,64,-1
 460.918945312 164.639648438 l 1,65,-1
 436.918945312 164.639648438 l 1,66,-1
 436.918945312 188.639648438 l 1,67,-1
 339 188.639648438 l 1,68,-1
 339 120.479492188 l 1,69,-1
 186.83984375 120.479492188 l 1,70,-1
 186.83984375 410.879882812 l 1,71,-1
 340.439453125 410.879882812 l 1,72,-1
 340.439453125 366.240234375 l 1,73,-1
 364.439453125 366.240234375 l 1,74,-1
 364.439453125 342.240234375 l 1,75,-1
 460.918945312 342.240234375 l 1,44,-1
EndSplineSet
Validated: 524293
EndChar

StartChar: cacute
Encoding: 263 263 105
Width: 492
VWidth: 652
Flags: W
LayerCount: 2
Fore
SplineSet
274.479492188 666 m 5,0,-1
 274.479492188 733.6796875 l 5,1,-1
 342.159179688 733.6796875 l 5,2,-1
 342.159179688 666 l 5,3,-1
 274.479492188 666 l 5,0,-1
380.55859375 627.600585938 m 5,4,-1
 380.55859375 724.080078125 l 5,5,-1
 356.55859375 724.080078125 l 5,6,-1
 356.55859375 748.080078125 l 5,7,-1
 260.079101562 748.080078125 l 5,8,-1
 260.079101562 651.600585938 l 5,9,-1
 284.079101562 651.600585938 l 5,10,-1
 284.079101562 627.600585938 l 5,11,-1
 380.55859375 627.600585938 l 5,4,-1
192.400390625 583.919921875 m 5,12,-1
 192.400390625 651.599609375 l 5,13,-1
 260.080078125 651.599609375 l 5,14,-1
 260.080078125 583.919921875 l 5,15,-1
 192.400390625 583.919921875 l 5,12,-1
298.479492188 545.520507812 m 5,16,-1
 298.479492188 642 l 5,17,-1
 291 654.520507812 l 5,18,-1
 274.479492188 666 l 5,19,-1
 178 666 l 5,20,-1
 178 569.520507812 l 5,21,-1
 202 569.520507812 l 5,22,-1
 202 545.520507812 l 5,23,-1
 298.479492188 545.520507812 l 5,16,-1
354.83984375 380.639648438 m 1,24,-1
 354.83984375 449.280273438 l 1,25,-1
 148.439453125 449.280273438 l 1,26,-1
 148.439453125 106.080078125 l 1,27,-1
 353.399414062 106.080078125 l 1,28,-1
 353.399414062 174.240234375 l 1,29,-1
 422.51953125 174.240234375 l 1,30,-1
 422.51953125 107.040039062 l 1,31,-1
 353.879882812 107.040039062 l 1,32,-1
 353.879882812 38.400390625 l 1,33,-1
 149.399414062 38.400390625 l 1,34,-1
 149.399414062 107.040039062 l 1,35,-1
 80.759765625 107.040039062 l 1,36,-1
 80.759765625 448.319335938 l 1,37,-1
 149.399414062 448.319335938 l 1,38,-1
 149.399414062 516.959960938 l 1,39,-1
 355.799804688 516.959960938 l 1,40,-1
 355.799804688 448.319335938 l 1,41,-1
 422.51953125 448.319335938 l 1,42,-1
 422.51953125 380.639648438 l 1,43,-1
 354.83984375 380.639648438 l 1,24,-1
460.918945312 342.240234375 m 1,44,-1
 460.918945312 438.719726562 l 1,45,-1
 436.918945312 438.719726562 l 1,46,-1
 436.918945312 462.719726562 l 1,47,-1
 394.200195312 462.719726562 l 1,48,-1
 394.200195312 507.359375 l 1,49,-1
 370.200195312 507.359375 l 1,50,-1
 370.200195312 531.359375 l 1,51,-1
 135 531.359375 l 1,52,-1
 135 462.719726562 l 1,53,-1
 66.3603515625 462.719726562 l 1,54,-1
 66.5205078125 92.6396484375 l 1,55,-1
 90.3603515625 92.6396484375 l 1,56,-1
 90.3603515625 68.6396484375 l 1,57,-1
 135 68.6396484375 l 1,58,-1
 135 24 l 1,59,-1
 159 24 l 1,60,-1
 159 0 l 1,61,-1
 392.279296875 0 l 1,62,-1
 392.279296875 68.6396484375 l 1,63,-1
 460.918945312 68.6396484375 l 1,64,-1
 460.918945312 164.639648438 l 1,65,-1
 436.918945312 164.639648438 l 1,66,-1
 436.918945312 188.639648438 l 1,67,-1
 339 188.639648438 l 1,68,-1
 339 120.479492188 l 1,69,-1
 186.83984375 120.479492188 l 1,70,-1
 186.83984375 410.879882812 l 1,71,-1
 340.439453125 410.879882812 l 1,72,-1
 340.439453125 366.240234375 l 1,73,-1
 364.439453125 366.240234375 l 1,74,-1
 364.439453125 342.240234375 l 1,75,-1
 460.918945312 342.240234375 l 1,44,-1
EndSplineSet
Validated: 524293
EndChar

StartChar: Nacute
Encoding: 323 323 106
Width: 492
VWidth: 636
Flags: W
LayerCount: 2
Fore
SplineSet
274.479492188 666 m 1,0,-1
 274.479492188 733.6796875 l 1,1,-1
 342.159179688 733.6796875 l 1,2,-1
 342.159179688 666 l 1,3,-1
 274.479492188 666 l 1,0,-1
380.55859375 627.600585938 m 1,4,-1
 380.55859375 724.080078125 l 1,5,-1
 356.55859375 724.080078125 l 1,6,-1
 356.55859375 748.080078125 l 1,7,-1
 260.079101562 748.080078125 l 1,8,-1
 260.079101562 651.600585938 l 1,9,-1
 284.079101562 651.600585938 l 1,10,-1
 284.079101562 627.600585938 l 1,11,-1
 380.55859375 627.600585938 l 1,4,-1
192.400390625 583.919921875 m 1,12,-1
 192.400390625 651.599609375 l 1,13,-1
 260.080078125 651.599609375 l 1,14,-1
 260.080078125 583.919921875 l 1,15,-1
 192.400390625 583.919921875 l 1,12,-1
298.479492188 545.520507812 m 1,16,-1
 298.479492188 642 l 1,17,-1
 291 654.520507812 l 1,18,-1
 274.479492188 666 l 1,19,-1
 178 666 l 1,20,-1
 178 569.520507812 l 5,21,-1
 202 569.520507812 l 1,22,-1
 202 545.520507812 l 1,23,-1
 298.479492188 545.520507812 l 1,16,-1
353.479492188 38.400390625 m 1,24,-1
 353.479492188 243.83984375 l 1,25,-1
 285.319335938 243.83984375 l 1,26,-1
 285.319335938 312.479492188 l 1,27,-1
 216.6796875 312.479492188 l 1,28,-1
 216.6796875 380.639648438 l 1,29,-1
 147.079101562 380.639648438 l 1,30,-1
 147.079101562 38.400390625 l 1,31,-1
 79.3994140625 38.400390625 l 1,32,-1
 79.3994140625 516.958984375 l 1,33,-1
 147.079101562 516.958984375 l 1,34,-1
 147.079101562 448.319335938 l 1,35,-1
 215.71875 448.319335938 l 1,36,-1
 215.71875 379.6796875 l 1,37,-1
 284.359375 379.6796875 l 1,38,-1
 284.359375 311.51953125 l 1,39,-1
 353.479492188 311.51953125 l 1,40,-1
 353.479492188 516.958984375 l 1,41,-1
 421.159179688 516.958984375 l 1,42,-1
 421.159179688 38.400390625 l 1,43,-1
 353.479492188 38.400390625 l 1,24,-1
459.55859375 0 m 1,44,-1
 459.55859375 507.359375 l 1,45,-1
 435.55859375 507.359375 l 1,46,-1
 435.55859375 531.359375 l 1,47,-1
 339.079101562 531.359375 l 1,48,-1
 339.079101562 325.919921875 l 1,49,-1
 322.758789062 325.919921875 l 1,50,-1
 322.758789062 370.080078125 l 1,51,-1
 298.758789062 370.080078125 l 1,52,-1
 298.758789062 394.080078125 l 1,53,-1
 254.119140625 394.080078125 l 1,54,-1
 254.119140625 438.719726562 l 1,55,-1
 230.119140625 438.719726562 l 1,56,-1
 230.119140625 462.719726562 l 1,57,-1
 185.479492188 462.719726562 l 1,58,-1
 185.479492188 507.359375 l 1,59,-1
 161.479492188 507.359375 l 1,60,-1
 161.479492188 531.359375 l 1,61,-1
 65 531.359375 l 1,62,-1
 65 24 l 1,63,-1
 89 24 l 1,64,-1
 89 0 l 1,65,-1
 185.479492188 0 l 1,66,-1
 185.479492188 342.240234375 l 1,67,-1
 202.279296875 342.240234375 l 1,68,-1
 202.279296875 298.080078125 l 1,69,-1
 226.279296875 298.080078125 l 1,70,-1
 226.279296875 274.080078125 l 1,71,-1
 270.918945312 274.080078125 l 1,72,-1
 270.918945312 229.439453125 l 1,73,-1
 294.918945312 229.439453125 l 1,74,-1
 294.918945312 205.439453125 l 1,75,-1
 339.079101562 205.439453125 l 1,76,-1
 339.079101562 24 l 1,77,-1
 363.079101562 24 l 1,78,-1
 363.079101562 0 l 1,79,-1
 459.55859375 0 l 1,44,-1
EndSplineSet
Validated: 524293
EndChar

StartChar: nacute
Encoding: 324 324 107
Width: 492
VWidth: 636
Flags: W
LayerCount: 2
Fore
SplineSet
274.479492188 666 m 1,0,-1
 274.479492188 733.6796875 l 1,1,-1
 342.159179688 733.6796875 l 1,2,-1
 342.159179688 666 l 1,3,-1
 274.479492188 666 l 1,0,-1
380.55859375 627.600585938 m 1,4,-1
 380.55859375 724.080078125 l 1,5,-1
 356.55859375 724.080078125 l 1,6,-1
 356.55859375 748.080078125 l 1,7,-1
 260.079101562 748.080078125 l 1,8,-1
 260.079101562 651.600585938 l 1,9,-1
 284.079101562 651.600585938 l 1,10,-1
 284.079101562 627.600585938 l 1,11,-1
 380.55859375 627.600585938 l 1,4,-1
192.400390625 583.919921875 m 1,12,-1
 192.400390625 651.599609375 l 1,13,-1
 260.080078125 651.599609375 l 1,14,-1
 260.080078125 583.919921875 l 1,15,-1
 192.400390625 583.919921875 l 1,12,-1
298.479492188 545.520507812 m 1,16,-1
 298.479492188 642 l 1,17,-1
 291 654.520507812 l 1,18,-1
 274.479492188 666 l 1,19,-1
 178 666 l 1,20,-1
 178 569.520507812 l 5,21,-1
 202 569.520507812 l 1,22,-1
 202 545.520507812 l 1,23,-1
 298.479492188 545.520507812 l 1,16,-1
353.479492188 38.400390625 m 1,24,-1
 353.479492188 243.83984375 l 1,25,-1
 285.319335938 243.83984375 l 1,26,-1
 285.319335938 312.479492188 l 1,27,-1
 216.6796875 312.479492188 l 1,28,-1
 216.6796875 380.639648438 l 1,29,-1
 147.079101562 380.639648438 l 1,30,-1
 147.079101562 38.400390625 l 1,31,-1
 79.3994140625 38.400390625 l 1,32,-1
 79.3994140625 516.958984375 l 1,33,-1
 147.079101562 516.958984375 l 1,34,-1
 147.079101562 448.319335938 l 1,35,-1
 215.71875 448.319335938 l 1,36,-1
 215.71875 379.6796875 l 1,37,-1
 284.359375 379.6796875 l 1,38,-1
 284.359375 311.51953125 l 1,39,-1
 353.479492188 311.51953125 l 1,40,-1
 353.479492188 516.958984375 l 1,41,-1
 421.159179688 516.958984375 l 1,42,-1
 421.159179688 38.400390625 l 1,43,-1
 353.479492188 38.400390625 l 1,24,-1
459.55859375 0 m 1,44,-1
 459.55859375 507.359375 l 1,45,-1
 435.55859375 507.359375 l 1,46,-1
 435.55859375 531.359375 l 1,47,-1
 339.079101562 531.359375 l 1,48,-1
 339.079101562 325.919921875 l 1,49,-1
 322.758789062 325.919921875 l 1,50,-1
 322.758789062 370.080078125 l 1,51,-1
 298.758789062 370.080078125 l 1,52,-1
 298.758789062 394.080078125 l 1,53,-1
 254.119140625 394.080078125 l 1,54,-1
 254.119140625 438.719726562 l 1,55,-1
 230.119140625 438.719726562 l 1,56,-1
 230.119140625 462.719726562 l 1,57,-1
 185.479492188 462.719726562 l 1,58,-1
 185.479492188 507.359375 l 1,59,-1
 161.479492188 507.359375 l 1,60,-1
 161.479492188 531.359375 l 1,61,-1
 65 531.359375 l 1,62,-1
 65 24 l 1,63,-1
 89 24 l 1,64,-1
 89 0 l 1,65,-1
 185.479492188 0 l 1,66,-1
 185.479492188 342.240234375 l 1,67,-1
 202.279296875 342.240234375 l 1,68,-1
 202.279296875 298.080078125 l 1,69,-1
 226.279296875 298.080078125 l 1,70,-1
 226.279296875 274.080078125 l 1,71,-1
 270.918945312 274.080078125 l 1,72,-1
 270.918945312 229.439453125 l 1,73,-1
 294.918945312 229.439453125 l 1,74,-1
 294.918945312 205.439453125 l 1,75,-1
 339.079101562 205.439453125 l 1,76,-1
 339.079101562 24 l 1,77,-1
 363.079101562 24 l 1,78,-1
 363.079101562 0 l 1,79,-1
 459.55859375 0 l 1,44,-1
EndSplineSet
Validated: 524293
EndChar

StartChar: Oacute
Encoding: 211 211 108
Width: 492
VWidth: 636
Flags: W
LayerCount: 2
Fore
SplineSet
274.479492188 666 m 5,0,-1
 274.479492188 733.6796875 l 5,1,-1
 342.159179688 733.6796875 l 5,2,-1
 342.159179688 666 l 5,3,-1
 274.479492188 666 l 5,0,-1
380.55859375 627.600585938 m 5,4,-1
 380.55859375 724.080078125 l 5,5,-1
 356.55859375 724.080078125 l 5,6,-1
 356.55859375 748.080078125 l 5,7,-1
 260.079101562 748.080078125 l 5,8,-1
 260.079101562 651.600585938 l 5,9,-1
 284.079101562 651.600585938 l 5,10,-1
 284.079101562 627.600585938 l 5,11,-1
 380.55859375 627.600585938 l 5,4,-1
192.400390625 583.919921875 m 5,12,-1
 192.400390625 651.599609375 l 5,13,-1
 260.080078125 651.599609375 l 5,14,-1
 260.080078125 583.919921875 l 5,15,-1
 192.400390625 583.919921875 l 5,12,-1
298.479492188 545.520507812 m 5,16,-1
 298.479492188 642 l 5,17,-1
 291 654.520507812 l 5,18,-1
 274.479492188 666 l 5,19,-1
 178 666 l 5,20,-1
 178 569.520507812 l 5,21,-1
 202 569.520507812 l 5,22,-1
 202 545.520507812 l 5,23,-1
 298.479492188 545.520507812 l 5,16,-1
352.879882812 448.319335938 m 1,24,-1
 148.399414062 448.319335938 l 1,25,-1
 148.399414062 107.040039062 l 1,26,-1
 352.879882812 107.040039062 l 1,27,-1
 352.879882812 448.319335938 l 1,24,-1
352.879882812 107.040039062 m 1,28,-1
 352.879882812 38.400390625 l 1,29,-1
 148.399414062 38.400390625 l 1,30,-1
 148.399414062 107.040039062 l 1,31,-1
 79.759765625 107.040039062 l 1,32,-1
 79.759765625 448.319335938 l 1,33,-1
 148.399414062 448.319335938 l 1,34,-1
 148.399414062 516.958984375 l 1,35,-1
 352.879882812 516.958984375 l 1,36,-1
 352.879882812 448.319335938 l 1,37,-1
 421.51953125 448.319335938 l 1,38,-1
 421.51953125 107.040039062 l 1,39,-1
 352.879882812 107.040039062 l 1,28,-1
459.918945312 68.6396484375 m 1,40,-1
 459.918945312 438.719726562 l 1,41,-1
 435.918945312 438.719726562 l 1,42,-1
 435.918945312 462.719726562 l 1,43,-1
 391.279296875 462.719726562 l 1,44,-1
 391.279296875 507.359375 l 1,45,-1
 367.279296875 507.359375 l 1,46,-1
 367.279296875 531.359375 l 1,47,-1
 134 531.359375 l 1,48,-1
 134 462.719726562 l 1,49,-1
 65.3603515625 462.719726562 l 1,50,-1
 65.3603515625 92.6396484375 l 1,51,-1
 89.3603515625 92.6396484375 l 1,52,-1
 89.3603515625 68.6396484375 l 1,53,-1
 134 68.6396484375 l 1,54,-1
 134 24 l 1,55,-1
 158 24 l 1,56,-1
 158 0 l 1,57,-1
 391.279296875 0 l 1,58,-1
 391.279296875 68.6396484375 l 1,59,-1
 459.918945312 68.6396484375 l 1,40,-1
186.799804688 409.919921875 m 1,60,-1
 338.479492188 409.919921875 l 1,61,-1
 338.479492188 121.439453125 l 1,62,-1
 186.799804688 121.439453125 l 1,63,-1
 186.799804688 409.919921875 l 1,60,-1
EndSplineSet
Validated: 526341
EndChar

StartChar: oacute
Encoding: 243 243 109
Width: 492
VWidth: 636
Flags: W
LayerCount: 2
Fore
SplineSet
274.479492188 666 m 5,0,-1
 274.479492188 733.6796875 l 5,1,-1
 342.159179688 733.6796875 l 5,2,-1
 342.159179688 666 l 5,3,-1
 274.479492188 666 l 5,0,-1
380.55859375 627.600585938 m 5,4,-1
 380.55859375 724.080078125 l 5,5,-1
 356.55859375 724.080078125 l 5,6,-1
 356.55859375 748.080078125 l 5,7,-1
 260.079101562 748.080078125 l 5,8,-1
 260.079101562 651.600585938 l 5,9,-1
 284.079101562 651.600585938 l 5,10,-1
 284.079101562 627.600585938 l 5,11,-1
 380.55859375 627.600585938 l 5,4,-1
192.400390625 583.919921875 m 5,12,-1
 192.400390625 651.599609375 l 5,13,-1
 260.080078125 651.599609375 l 5,14,-1
 260.080078125 583.919921875 l 5,15,-1
 192.400390625 583.919921875 l 5,12,-1
298.479492188 545.520507812 m 5,16,-1
 298.479492188 642 l 5,17,-1
 291 654.520507812 l 5,18,-1
 274.479492188 666 l 5,19,-1
 178 666 l 5,20,-1
 178 569.520507812 l 5,21,-1
 202 569.520507812 l 5,22,-1
 202 545.520507812 l 5,23,-1
 298.479492188 545.520507812 l 5,16,-1
352.879882812 448.319335938 m 1,24,-1
 148.399414062 448.319335938 l 1,25,-1
 148.399414062 107.040039062 l 1,26,-1
 352.879882812 107.040039062 l 1,27,-1
 352.879882812 448.319335938 l 1,24,-1
352.879882812 107.040039062 m 1,28,-1
 352.879882812 38.400390625 l 1,29,-1
 148.399414062 38.400390625 l 1,30,-1
 148.399414062 107.040039062 l 1,31,-1
 79.759765625 107.040039062 l 1,32,-1
 79.759765625 448.319335938 l 1,33,-1
 148.399414062 448.319335938 l 1,34,-1
 148.399414062 516.958984375 l 1,35,-1
 352.879882812 516.958984375 l 1,36,-1
 352.879882812 448.319335938 l 1,37,-1
 421.51953125 448.319335938 l 1,38,-1
 421.51953125 107.040039062 l 1,39,-1
 352.879882812 107.040039062 l 1,28,-1
459.918945312 68.6396484375 m 1,40,-1
 459.918945312 438.719726562 l 1,41,-1
 435.918945312 438.719726562 l 1,42,-1
 435.918945312 462.719726562 l 1,43,-1
 391.279296875 462.719726562 l 1,44,-1
 391.279296875 507.359375 l 1,45,-1
 367.279296875 507.359375 l 1,46,-1
 367.279296875 531.359375 l 1,47,-1
 134 531.359375 l 1,48,-1
 134 462.719726562 l 1,49,-1
 65.3603515625 462.719726562 l 1,50,-1
 65.3603515625 92.6396484375 l 1,51,-1
 89.3603515625 92.6396484375 l 1,52,-1
 89.3603515625 68.6396484375 l 1,53,-1
 134 68.6396484375 l 1,54,-1
 134 24 l 1,55,-1
 158 24 l 1,56,-1
 158 0 l 1,57,-1
 391.279296875 0 l 1,58,-1
 391.279296875 68.6396484375 l 1,59,-1
 459.918945312 68.6396484375 l 1,40,-1
186.799804688 409.919921875 m 1,60,-1
 338.479492188 409.919921875 l 1,61,-1
 338.479492188 121.439453125 l 1,62,-1
 186.799804688 121.439453125 l 1,63,-1
 186.799804688 409.919921875 l 1,60,-1
EndSplineSet
Validated: 526341
EndChar

StartChar: Sacute
Encoding: 346 346 110
Width: 492
VWidth: 636
Flags: W
LayerCount: 2
Fore
SplineSet
274.479492188 666 m 5,0,-1
 274.479492188 733.6796875 l 5,1,-1
 342.159179688 733.6796875 l 5,2,-1
 342.159179688 666 l 5,3,-1
 274.479492188 666 l 5,0,-1
380.55859375 627.600585938 m 5,4,-1
 380.55859375 724.080078125 l 5,5,-1
 356.55859375 724.080078125 l 5,6,-1
 356.55859375 748.080078125 l 5,7,-1
 260.079101562 748.080078125 l 5,8,-1
 260.079101562 651.600585938 l 5,9,-1
 284.079101562 651.600585938 l 5,10,-1
 284.079101562 627.600585938 l 5,11,-1
 380.55859375 627.600585938 l 5,4,-1
192.400390625 583.919921875 m 5,12,-1
 192.400390625 651.599609375 l 5,13,-1
 260.080078125 651.599609375 l 5,14,-1
 260.080078125 583.919921875 l 5,15,-1
 192.400390625 583.919921875 l 5,12,-1
298.479492188 545.520507812 m 5,16,-1
 298.479492188 642 l 5,17,-1
 291 654.520507812 l 5,18,-1
 274.479492188 666 l 5,19,-1
 178 666 l 5,20,-1
 178 569.520507812 l 5,21,-1
 202 569.520507812 l 5,22,-1
 202 545.520507812 l 5,23,-1
 298.479492188 545.520507812 l 5,16,-1
352.83984375 107.040039062 m 1,24,-1
 352.83984375 38.400390625 l 1,25,-1
 147.399414062 38.400390625 l 1,26,-1
 147.399414062 107.040039062 l 1,27,-1
 79.7197265625 107.040039062 l 1,28,-1
 79.7197265625 174.240234375 l 1,29,-1
 147.399414062 174.240234375 l 1,30,-1
 147.399414062 106.080078125 l 1,31,-1
 353.799804688 106.080078125 l 1,32,-1
 353.799804688 243.83984375 l 1,33,-1
 147.399414062 243.83984375 l 1,34,-1
 147.399414062 310.559570312 l 1,35,-1
 79.7197265625 312.479492188 l 1,36,-1
 79.7197265625 448.319335938 l 1,37,-1
 147.399414062 448.319335938 l 1,38,-1
 147.399414062 516.958984375 l 1,39,-1
 352.83984375 516.958984375 l 1,40,-1
 352.83984375 448.319335938 l 1,41,-1
 421.479492188 448.319335938 l 1,42,-1
 421.479492188 380.639648438 l 1,43,-1
 353.799804688 380.639648438 l 1,44,-1
 353.799804688 449.279296875 l 1,45,-1
 149.799804688 449.279296875 l 1,46,-1
 149.799804688 312 l 1,47,-1
 352.83984375 312 l 1,48,-1
 352.83984375 242.879882812 l 1,49,-1
 421.479492188 242.879882812 l 1,50,-1
 421.479492188 107.040039062 l 1,51,-1
 352.83984375 107.040039062 l 1,24,-1
459.87890625 68.6396484375 m 1,52,-1
 459.87890625 233.279296875 l 1,53,-1
 435.87890625 233.279296875 l 1,54,-1
 435.87890625 257.279296875 l 1,55,-1
 391.239257812 257.279296875 l 1,56,-1
 391.239257812 302.400390625 l 1,57,-1
 367.239257812 302.400390625 l 1,58,-1
 367.239257812 326.400390625 l 1,59,-1
 188.19921875 326.400390625 l 1,60,-1
 188.19921875 410.879882812 l 1,61,-1
 339.399414062 410.879882812 l 1,62,-1
 339.399414062 366.240234375 l 1,63,-1
 363.399414062 366.240234375 l 1,64,-1
 363.399414062 342.240234375 l 1,65,-1
 459.87890625 342.240234375 l 1,66,-1
 459.87890625 438.719726562 l 1,67,-1
 435.87890625 438.719726562 l 1,68,-1
 435.87890625 462.719726562 l 1,69,-1
 391.239257812 462.719726562 l 1,70,-1
 391.239257812 507.359375 l 1,71,-1
 367.239257812 507.359375 l 1,72,-1
 367.239257812 531.359375 l 1,73,-1
 133 531.359375 l 1,74,-1
 133 462.719726562 l 1,75,-1
 65.3203125 462.719726562 l 1,76,-1
 65.3203125 298.559570312 l 1,77,-1
 89.3203125 297.599609375 l 1,78,-1
 89.3203125 274.559570312 l 1,79,-1
 133 273.119140625 l 1,80,-1
 133 229.439453125 l 1,81,-1
 157 229.439453125 l 1,82,-1
 157 205.439453125 l 1,83,-1
 339.399414062 205.439453125 l 1,84,-1
 339.399414062 120.479492188 l 1,85,-1
 185.799804688 120.479492188 l 1,86,-1
 185.799804688 164.639648438 l 1,87,-1
 161.799804688 164.639648438 l 1,88,-1
 161.799804688 188.639648438 l 1,89,-1
 65.3203125 188.639648438 l 1,90,-1
 65.3203125 92.6396484375 l 1,91,-1
 89.3203125 92.6396484375 l 1,92,-1
 89.3203125 68.6396484375 l 1,93,-1
 133 68.6396484375 l 1,94,-1
 133 24 l 1,95,-1
 157 24 l 1,96,-1
 157 0 l 1,97,-1
 391.239257812 0 l 1,98,-1
 391.239257812 68.6396484375 l 1,99,-1
 459.87890625 68.6396484375 l 1,52,-1
EndSplineSet
Validated: 525317
EndChar

StartChar: sacute
Encoding: 347 347 111
Width: 492
VWidth: 636
Flags: W
LayerCount: 2
Fore
SplineSet
274.479492188 666 m 5,0,-1
 274.479492188 733.6796875 l 5,1,-1
 342.159179688 733.6796875 l 5,2,-1
 342.159179688 666 l 5,3,-1
 274.479492188 666 l 5,0,-1
380.55859375 627.600585938 m 5,4,-1
 380.55859375 724.080078125 l 5,5,-1
 356.55859375 724.080078125 l 5,6,-1
 356.55859375 748.080078125 l 5,7,-1
 260.079101562 748.080078125 l 5,8,-1
 260.079101562 651.600585938 l 5,9,-1
 284.079101562 651.600585938 l 5,10,-1
 284.079101562 627.600585938 l 5,11,-1
 380.55859375 627.600585938 l 5,4,-1
192.400390625 583.919921875 m 5,12,-1
 192.400390625 651.599609375 l 5,13,-1
 260.080078125 651.599609375 l 5,14,-1
 260.080078125 583.919921875 l 5,15,-1
 192.400390625 583.919921875 l 5,12,-1
298.479492188 545.520507812 m 5,16,-1
 298.479492188 642 l 5,17,-1
 291 654.520507812 l 5,18,-1
 274.479492188 666 l 5,19,-1
 178 666 l 5,20,-1
 178 569.520507812 l 5,21,-1
 202 569.520507812 l 5,22,-1
 202 545.520507812 l 5,23,-1
 298.479492188 545.520507812 l 5,16,-1
352.83984375 107.040039062 m 1,24,-1
 352.83984375 38.400390625 l 1,25,-1
 147.399414062 38.400390625 l 1,26,-1
 147.399414062 107.040039062 l 1,27,-1
 79.7197265625 107.040039062 l 1,28,-1
 79.7197265625 174.240234375 l 1,29,-1
 147.399414062 174.240234375 l 1,30,-1
 147.399414062 106.080078125 l 1,31,-1
 353.799804688 106.080078125 l 1,32,-1
 353.799804688 243.83984375 l 1,33,-1
 147.399414062 243.83984375 l 1,34,-1
 147.399414062 310.559570312 l 1,35,-1
 79.7197265625 312.479492188 l 1,36,-1
 79.7197265625 448.319335938 l 1,37,-1
 147.399414062 448.319335938 l 1,38,-1
 147.399414062 516.958984375 l 1,39,-1
 352.83984375 516.958984375 l 1,40,-1
 352.83984375 448.319335938 l 1,41,-1
 421.479492188 448.319335938 l 1,42,-1
 421.479492188 380.639648438 l 1,43,-1
 353.799804688 380.639648438 l 1,44,-1
 353.799804688 449.279296875 l 1,45,-1
 149.799804688 449.279296875 l 1,46,-1
 149.799804688 312 l 1,47,-1
 352.83984375 312 l 1,48,-1
 352.83984375 242.879882812 l 1,49,-1
 421.479492188 242.879882812 l 1,50,-1
 421.479492188 107.040039062 l 1,51,-1
 352.83984375 107.040039062 l 1,24,-1
459.87890625 68.6396484375 m 1,52,-1
 459.87890625 233.279296875 l 1,53,-1
 435.87890625 233.279296875 l 1,54,-1
 435.87890625 257.279296875 l 1,55,-1
 391.239257812 257.279296875 l 1,56,-1
 391.239257812 302.400390625 l 1,57,-1
 367.239257812 302.400390625 l 1,58,-1
 367.239257812 326.400390625 l 1,59,-1
 188.19921875 326.400390625 l 1,60,-1
 188.19921875 410.879882812 l 1,61,-1
 339.399414062 410.879882812 l 1,62,-1
 339.399414062 366.240234375 l 1,63,-1
 363.399414062 366.240234375 l 1,64,-1
 363.399414062 342.240234375 l 1,65,-1
 459.87890625 342.240234375 l 1,66,-1
 459.87890625 438.719726562 l 1,67,-1
 435.87890625 438.719726562 l 1,68,-1
 435.87890625 462.719726562 l 1,69,-1
 391.239257812 462.719726562 l 1,70,-1
 391.239257812 507.359375 l 1,71,-1
 367.239257812 507.359375 l 1,72,-1
 367.239257812 531.359375 l 1,73,-1
 133 531.359375 l 1,74,-1
 133 462.719726562 l 1,75,-1
 65.3203125 462.719726562 l 1,76,-1
 65.3203125 298.559570312 l 1,77,-1
 89.3203125 297.599609375 l 1,78,-1
 89.3203125 274.559570312 l 1,79,-1
 133 273.119140625 l 1,80,-1
 133 229.439453125 l 1,81,-1
 157 229.439453125 l 1,82,-1
 157 205.439453125 l 1,83,-1
 339.399414062 205.439453125 l 1,84,-1
 339.399414062 120.479492188 l 1,85,-1
 185.799804688 120.479492188 l 1,86,-1
 185.799804688 164.639648438 l 1,87,-1
 161.799804688 164.639648438 l 1,88,-1
 161.799804688 188.639648438 l 1,89,-1
 65.3203125 188.639648438 l 1,90,-1
 65.3203125 92.6396484375 l 1,91,-1
 89.3203125 92.6396484375 l 1,92,-1
 89.3203125 68.6396484375 l 1,93,-1
 133 68.6396484375 l 1,94,-1
 133 24 l 1,95,-1
 157 24 l 1,96,-1
 157 0 l 1,97,-1
 391.239257812 0 l 1,98,-1
 391.239257812 68.6396484375 l 1,99,-1
 459.87890625 68.6396484375 l 1,52,-1
EndSplineSet
Validated: 525317
EndChar

StartChar: Zacute
Encoding: 377 377 112
Width: 492
VWidth: 636
Flags: W
LayerCount: 2
Fore
SplineSet
274.479492188 666 m 5,0,-1
 274.479492188 733.6796875 l 5,1,-1
 342.159179688 733.6796875 l 5,2,-1
 342.159179688 666 l 5,3,-1
 274.479492188 666 l 5,0,-1
380.55859375 627.600585938 m 5,4,-1
 380.55859375 724.080078125 l 5,5,-1
 356.55859375 724.080078125 l 5,6,-1
 356.55859375 748.080078125 l 5,7,-1
 260.079101562 748.080078125 l 5,8,-1
 260.079101562 651.600585938 l 5,9,-1
 284.079101562 651.600585938 l 5,10,-1
 284.079101562 627.600585938 l 5,11,-1
 380.55859375 627.600585938 l 5,4,-1
192.400390625 583.919921875 m 5,12,-1
 192.400390625 651.599609375 l 5,13,-1
 260.080078125 651.599609375 l 5,14,-1
 260.080078125 583.919921875 l 5,15,-1
 192.400390625 583.919921875 l 5,12,-1
298.479492188 545.520507812 m 5,16,-1
 298.479492188 642 l 5,17,-1
 291 654.520507812 l 5,18,-1
 274.479492188 666 l 5,19,-1
 178 666 l 5,20,-1
 178 569.520507812 l 5,21,-1
 202 569.520507812 l 5,22,-1
 202 545.520507812 l 5,23,-1
 298.479492188 545.520507812 l 5,16,-1
352.51953125 380.639648438 m 1,24,-1
 352.51953125 312.479492188 l 1,25,-1
 283.87890625 312.479492188 l 1,26,-1
 283.87890625 243.83984375 l 1,27,-1
 215.71875 243.83984375 l 1,28,-1
 215.71875 175.200195312 l 1,29,-1
 147.079101562 175.200195312 l 1,30,-1
 147.079101562 106.080078125 l 1,31,-1
 421.159179688 106.080078125 l 1,32,-1
 421.159179688 38.400390625 l 1,33,-1
 79.3994140625 38.400390625 l 1,34,-1
 79.3994140625 174.240234375 l 1,35,-1
 148.0390625 174.240234375 l 1,36,-1
 148.0390625 242.879882812 l 1,37,-1
 216.6796875 242.879882812 l 1,38,-1
 216.6796875 311.51953125 l 1,39,-1
 285.319335938 311.51953125 l 1,40,-1
 285.319335938 379.6796875 l 1,41,-1
 353.479492188 379.6796875 l 1,42,-1
 353.479492188 449.279296875 l 1,43,-1
 79.3994140625 449.279296875 l 1,44,-1
 79.3994140625 516.958984375 l 1,45,-1
 421.159179688 516.958984375 l 1,46,-1
 421.159179688 380.639648438 l 1,47,-1
 352.51953125 380.639648438 l 1,24,-1
459.55859375 342.240234375 m 1,48,-1
 459.55859375 507.359375 l 1,49,-1
 435.55859375 507.359375 l 1,50,-1
 435.55859375 531.359375 l 1,51,-1
 65 531.359375 l 1,52,-1
 65 434.879882812 l 1,53,-1
 89 434.879882812 l 1,54,-1
 89 410.879882812 l 1,55,-1
 339.079101562 410.879882812 l 1,56,-1
 339.079101562 394.080078125 l 1,57,-1
 270.918945312 394.080078125 l 1,58,-1
 270.918945312 325.919921875 l 1,59,-1
 202.279296875 325.919921875 l 1,60,-1
 202.279296875 257.279296875 l 1,61,-1
 133.639648438 257.279296875 l 1,62,-1
 133.639648438 188.639648438 l 1,63,-1
 65 188.639648438 l 1,64,-1
 65 24 l 1,65,-1
 89 24 l 1,66,-1
 89 0 l 1,67,-1
 459.55859375 0 l 1,68,-1
 459.55859375 96.4794921875 l 1,69,-1
 435.55859375 96.4794921875 l 1,70,-1
 435.55859375 120.479492188 l 1,71,-1
 185.479492188 120.479492188 l 1,72,-1
 185.479492188 136.799804688 l 1,73,-1
 254.119140625 136.799804688 l 1,74,-1
 254.119140625 205.439453125 l 1,75,-1
 322.279296875 205.439453125 l 1,76,-1
 322.279296875 274.080078125 l 1,77,-1
 390.918945312 274.080078125 l 1,78,-1
 390.918945312 342.240234375 l 1,79,-1
 459.55859375 342.240234375 l 1,48,-1
EndSplineSet
Validated: 524293
EndChar

StartChar: zacute
Encoding: 378 378 113
Width: 492
VWidth: 636
Flags: W
LayerCount: 2
Fore
SplineSet
274.479492188 666 m 5,0,-1
 274.479492188 733.6796875 l 5,1,-1
 342.159179688 733.6796875 l 5,2,-1
 342.159179688 666 l 5,3,-1
 274.479492188 666 l 5,0,-1
380.55859375 627.600585938 m 5,4,-1
 380.55859375 724.080078125 l 5,5,-1
 356.55859375 724.080078125 l 5,6,-1
 356.55859375 748.080078125 l 5,7,-1
 260.079101562 748.080078125 l 5,8,-1
 260.079101562 651.600585938 l 5,9,-1
 284.079101562 651.600585938 l 5,10,-1
 284.079101562 627.600585938 l 5,11,-1
 380.55859375 627.600585938 l 5,4,-1
192.400390625 583.919921875 m 5,12,-1
 192.400390625 651.599609375 l 5,13,-1
 260.080078125 651.599609375 l 5,14,-1
 260.080078125 583.919921875 l 5,15,-1
 192.400390625 583.919921875 l 5,12,-1
298.479492188 545.520507812 m 5,16,-1
 298.479492188 642 l 5,17,-1
 291 654.520507812 l 5,18,-1
 274.479492188 666 l 5,19,-1
 178 666 l 5,20,-1
 178 569.520507812 l 5,21,-1
 202 569.520507812 l 5,22,-1
 202 545.520507812 l 5,23,-1
 298.479492188 545.520507812 l 5,16,-1
352.51953125 380.639648438 m 1,24,-1
 352.51953125 312.479492188 l 1,25,-1
 283.87890625 312.479492188 l 1,26,-1
 283.87890625 243.83984375 l 1,27,-1
 215.71875 243.83984375 l 1,28,-1
 215.71875 175.200195312 l 1,29,-1
 147.079101562 175.200195312 l 1,30,-1
 147.079101562 106.080078125 l 1,31,-1
 421.159179688 106.080078125 l 1,32,-1
 421.159179688 38.400390625 l 1,33,-1
 79.3994140625 38.400390625 l 1,34,-1
 79.3994140625 174.240234375 l 1,35,-1
 148.0390625 174.240234375 l 1,36,-1
 148.0390625 242.879882812 l 1,37,-1
 216.6796875 242.879882812 l 1,38,-1
 216.6796875 311.51953125 l 1,39,-1
 285.319335938 311.51953125 l 1,40,-1
 285.319335938 379.6796875 l 1,41,-1
 353.479492188 379.6796875 l 1,42,-1
 353.479492188 449.279296875 l 1,43,-1
 79.3994140625 449.279296875 l 1,44,-1
 79.3994140625 516.958984375 l 1,45,-1
 421.159179688 516.958984375 l 1,46,-1
 421.159179688 380.639648438 l 1,47,-1
 352.51953125 380.639648438 l 1,24,-1
459.55859375 342.240234375 m 1,48,-1
 459.55859375 507.359375 l 1,49,-1
 435.55859375 507.359375 l 1,50,-1
 435.55859375 531.359375 l 1,51,-1
 65 531.359375 l 1,52,-1
 65 434.879882812 l 1,53,-1
 89 434.879882812 l 1,54,-1
 89 410.879882812 l 1,55,-1
 339.079101562 410.879882812 l 1,56,-1
 339.079101562 394.080078125 l 1,57,-1
 270.918945312 394.080078125 l 1,58,-1
 270.918945312 325.919921875 l 1,59,-1
 202.279296875 325.919921875 l 1,60,-1
 202.279296875 257.279296875 l 1,61,-1
 133.639648438 257.279296875 l 1,62,-1
 133.639648438 188.639648438 l 1,63,-1
 65 188.639648438 l 1,64,-1
 65 24 l 1,65,-1
 89 24 l 1,66,-1
 89 0 l 1,67,-1
 459.55859375 0 l 1,68,-1
 459.55859375 96.4794921875 l 1,69,-1
 435.55859375 96.4794921875 l 1,70,-1
 435.55859375 120.479492188 l 1,71,-1
 185.479492188 120.479492188 l 1,72,-1
 185.479492188 136.799804688 l 1,73,-1
 254.119140625 136.799804688 l 1,74,-1
 254.119140625 205.439453125 l 1,75,-1
 322.279296875 205.439453125 l 1,76,-1
 322.279296875 274.080078125 l 1,77,-1
 390.918945312 274.080078125 l 1,78,-1
 390.918945312 342.240234375 l 1,79,-1
 459.55859375 342.240234375 l 1,48,-1
EndSplineSet
Validated: 524293
EndChar

